<?xml version="1.0" encoding="UTF-8"?><svg xmlns="http://www.w3.org/2000/svg" width="1075" height="1075" viewBox="0 0 1075 1075"><g id="Layer_1"><path d="M65.65,159.55l-3.88-3.88,14.99-14.97c-.67-.11-1.37-.26-2.11-.45-1.59-.41-2.95-.88-4.05-1.38l-1.3-.6,3.85-3.84.59.21c1.93.7,3.86,1.1,5.71,1.21h0c1.82.1,3.35-.05,4.52-.44l.59-.2,2.73,2.73-21.64,21.61ZM64.58,155.67l1.07,1.07,18.83-18.8-.47-.47c-1.31.34-2.87.46-4.66.37h0c-1.85-.1-3.76-.48-5.67-1.11l-.89.89c.71.25,1.5.49,2.37.72,1.45.38,2.74.58,3.82.61l2.32.05-16.7,16.69Z" fill="#fff"/><path d="M83.87,174.88c-.3,0-.6-.01-.9-.04-1.99-.2-3.82-1.12-5.46-2.76-2.16-2.16-3.09-4.67-2.77-7.47.38-3.26,2.5-6.78,6.48-10.76,2.45-2.45,4.72-4.2,6.75-5.2,2.1-1.04,4.15-1.47,6.09-1.27,1.98.2,3.81,1.13,5.43,2.75,1.19,1.19,2.01,2.51,2.44,3.91.43,1.41.48,2.89.16,4.4-.31,1.45-.94,2.98-1.86,4.54-.91,1.54-2.41,3.36-4.46,5.41-2.43,2.43-4.69,4.17-6.71,5.18-1.78.88-3.52,1.33-5.19,1.33ZM93.13,149.31c-1.35,0-2.79.37-4.28,1.11-1.84.91-3.93,2.53-6.23,4.82-3.6,3.6-5.59,6.83-5.91,9.59-.25,2.2.47,4.11,2.2,5.84,1.32,1.32,2.71,2.03,4.25,2.18,1.56.15,3.25-.21,5-1.09,1.83-.91,3.92-2.53,6.19-4.8,1.93-1.93,3.33-3.61,4.16-5.01.82-1.38,1.36-2.71,1.63-3.94.25-1.18.21-2.32-.12-3.4-.33-1.09-.98-2.12-1.94-3.08-1.31-1.31-2.69-2.02-4.23-2.18-.24-.02-.48-.04-.72-.04ZM83.55,171.66c-1.59,0-2.94-.54-4.01-1.61-1.37-1.37-1.88-3.18-1.5-5.37.36-2.09,2.23-4.81,5.72-8.29,3.49-3.48,6.3-5.38,8.61-5.79,1.98-.34,3.67.18,5.04,1.55,1.39,1.39,1.91,3.2,1.53,5.39-.35,2.09-2.23,4.81-5.73,8.3-3.48,3.48-6.19,5.34-8.29,5.71-.48.08-.94.12-1.38.12ZM93.49,152.47c-.25,0-.51.02-.78.07-1.86.34-4.4,2.1-7.55,5.24-3.92,3.91-4.97,6.09-5.17,7.22-.27,1.54.04,2.73.95,3.63s2.09,1.21,3.64.94c1.14-.2,3.32-1.25,7.23-5.15,3.93-3.92,4.98-6.1,5.17-7.23.26-1.54-.06-2.74-.98-3.66-.72-.72-1.55-1.07-2.52-1.07Z" fill="#fff"/><path d="M60.33,142.15l-9.01-9,3.89-3.89,9.01,9-3.89,3.89ZM54.14,133.15l6.19,6.19,1.08-1.08-6.19-6.19-1.08,1.08Z" fill="#fff"/><path d="M118.32,208.77c-.52,0-1.03-.04-1.54-.12-2.1-.34-3.99-1.34-5.62-2.96-1.74-1.74-2.7-3.7-2.84-5.81-.14-2.11.57-4.18,2.1-6.16l.63-.81,4.09,3.4-.52.75c-.78,1.12-1.15,2.12-1.1,2.96.05.83.42,1.58,1.14,2.29.64.63,1.31,1.03,2.05,1.21.78.19,1.54.19,2.35.01.84-.19,1.85-.63,2.99-1.32.59-.35,1.16-.74,1.7-1.17-.5-.05-1.01-.15-1.52-.29-1.51-.41-2.84-1.19-3.96-2.3-1.86-1.86-2.77-4.13-2.71-6.77.06-2.61,1.18-5.03,3.34-7.19,2.22-2.22,4.72-3.37,7.43-3.41,2.71-.05,5.11.95,7.12,2.95,1.44,1.44,2.39,3.17,2.81,5.14.42,1.98.22,4.01-.59,6.06-.8,2.01-2.45,4.25-5.05,6.84-2.65,2.64-5.09,4.49-7.27,5.51-1.71.79-3.39,1.19-5.02,1.19ZM111.39,195.78c-.82,1.31-1.18,2.62-1.09,3.97.11,1.64.85,3.12,2.26,4.53,1.35,1.34,2.83,2.13,4.53,2.41,1.69.27,3.51-.03,5.4-.91,1.97-.91,4.22-2.63,6.7-5.11s3.92-4.44,4.6-6.17c.67-1.7.84-3.3.49-4.91-.34-1.61-1.08-2.97-2.27-4.15-1.63-1.63-3.47-2.41-5.68-2.37-2.2.04-4.18.96-6.06,2.83-1.81,1.81-2.71,3.71-2.76,5.83-.05,2.1.65,3.84,2.13,5.32.88.88,1.89,1.47,3.08,1.79,1.18.32,2.35.36,3.46.1l3.13-.71-2.17,2.36c-.22.24-.39.42-.51.54-1.08,1.08-2.29,2.02-3.59,2.8-1.32.79-2.52,1.31-3.57,1.55-1.1.25-2.19.24-3.26-.02-1.1-.27-2.1-.85-2.99-1.74-1.06-1.06-1.64-2.27-1.72-3.58-.06-1.07.26-2.22.96-3.44l-1.09-.91ZM125.53,198.79c-1.7,0-3.21-.64-4.49-1.92s-1.99-2.94-1.95-4.78c.03-1.83.79-3.5,2.26-4.97,1.6-1.6,3.41-2.46,5.37-2.56,1.99-.09,3.67.51,4.97,1.81,1.26,1.26,1.86,2.85,1.77,4.73-.09,1.83-.94,3.57-2.54,5.16-1.6,1.59-3.31,2.44-5.1,2.51h0c-.1,0-.19,0-.29,0ZM127.12,186.54c-.1,0-.2,0-.31,0-1.47.07-2.8.72-4.06,1.98-1.1,1.1-1.65,2.28-1.67,3.6-.02,1.31.43,2.4,1.37,3.34.95.95,2.02,1.38,3.28,1.33h0c1.27-.05,2.55-.7,3.78-1.93,1.25-1.25,1.89-2.51,1.96-3.86.06-1.31-.32-2.36-1.19-3.22-.83-.83-1.87-1.24-3.16-1.24Z" fill="#fff"/><path d="M110.17,191.93l-9.01-9,3.89-3.89,9.01,9-3.89,3.89ZM103.97,182.94l6.19,6.19,1.08-1.08-6.19-6.19-1.08,1.08Z" fill="#fff"/><path d="M161.65,252.03c-.07,0-.14,0-.2,0-2.65-.05-5.09-1.17-7.25-3.34-2.17-2.16-3.29-4.61-3.34-7.25-.05-2.66.92-5,2.87-6.95,1.46-1.46,3.09-2.32,4.85-2.57,1.05-.15,2.11-.07,3.16.23-.14-.78-.15-1.54-.03-2.27.24-1.39.92-2.66,2.04-3.78,1.66-1.66,3.69-2.47,6.01-2.41,2.31.06,4.45,1.07,6.38,2.99s2.95,4.11,3.01,6.45c.06,2.36-.76,4.4-2.41,6.06-1.08,1.08-2.33,1.74-3.71,1.98-.75.13-1.53.12-2.33-.03.3,1.13.36,2.26.18,3.35-.29,1.75-1.14,3.33-2.53,4.72-1.86,1.86-4.11,2.81-6.69,2.81ZM159.63,233.82c-.26,0-.52.02-.78.06-1.34.19-2.56.85-3.72,2.01-1.57,1.57-2.32,3.37-2.29,5.51.04,2.15.94,4.07,2.75,5.88,1.82,1.81,3.74,2.72,5.89,2.76,2.13.05,3.91-.69,5.45-2.22,1.1-1.1,1.75-2.29,1.97-3.64.22-1.34-.04-2.7-.78-4.16l-1.28-2.52,2.58,1.17c1.18.54,2.28.72,3.26.56.98-.17,1.85-.63,2.64-1.43,1.28-1.28,1.88-2.78,1.83-4.61-.04-1.84-.84-3.51-2.42-5.09-1.58-1.58-3.22-2.37-5.03-2.41-1.77-.04-3.27.55-4.55,1.82-.83.83-1.31,1.71-1.48,2.7-.17.98.03,2.09.59,3.3l1.34,2.88-2.74-1.6c-1.1-.64-2.16-.96-3.23-.96ZM161.06,248.76h-.04c-1.79-.01-3.4-.71-4.77-2.08-.88-.88-1.5-1.92-1.84-3.09-.35-1.21-.34-2.42.05-3.61.37-1.14.97-2.13,1.79-2.94,1.34-1.34,2.93-2.02,4.73-2.03h.02c1.79,0,3.39.68,4.73,2.03s2.08,3,2.1,4.83c.02,1.84-.68,3.47-2.06,4.85-1.35,1.35-2.94,2.03-4.72,2.03ZM161.01,237h-.01c-1.27,0-2.36.48-3.33,1.45-.6.6-1.03,1.3-1.3,2.15-.26.81-.27,1.6-.03,2.43.25.87.69,1.6,1.34,2.25,1,1,2.1,1.49,3.37,1.49h0c1.25,0,2.36-.47,3.35-1.45,1-1,1.49-2.12,1.47-3.43-.01-1.31-.51-2.44-1.52-3.45s-2.06-1.45-3.33-1.45ZM170.41,238.23h-.05c-1.47-.01-2.8-.59-3.94-1.73-1.17-1.17-1.76-2.51-1.78-3.99-.01-1.49.56-2.82,1.71-3.96,1.04-1.04,2.35-1.55,3.82-1.53,1.49.02,2.82.61,3.95,1.73s1.7,2.45,1.71,3.96c.01,1.52-.54,2.84-1.64,3.94-1.05,1.05-2.32,1.58-3.78,1.58ZM170.09,229c-.93,0-1.69.31-2.32.94-.76.76-1.13,1.59-1.12,2.54,0,.95.4,1.81,1.19,2.6.77.77,1.6,1.14,2.55,1.15h.03c.93,0,1.71-.33,2.38-1,.72-.72,1.06-1.54,1.06-2.52,0-.98-.37-1.82-1.12-2.57-.76-.76-1.6-1.14-2.57-1.15-.02,0-.04,0-.06,0Z" fill="#fff"/><path d="M152.63,234.35l-9.01-9,3.89-3.89,9.01,9-3.89,3.89ZM146.44,225.36l6.19,6.19,1.08-1.08-6.19-6.19-1.08,1.08Z" fill="#fff"/><path d="M196.49,289.56l-3.92-3.91.73-.7c1.66-1.6,3.98-3.27,6.87-4.95,2.89-1.68,6.01-3.03,9.27-4.02,2.44-.74,4.76-1.26,6.93-1.55l-9.09-9.08,3.78-3.78,14.45,14.43-2.91,2.9h-.39c-2.55.09-5.59.63-9.02,1.6-3.44.98-6.7,2.31-9.69,3.97-2.11,1.15-4.24,2.65-6.32,4.47l-.7.61ZM195.43,285.69l1.16,1.16c1.96-1.64,3.96-3.02,5.96-4.11,3.12-1.73,6.53-3.12,10.11-4.14,3.41-.97,6.47-1.52,9.1-1.65l.95-.94-11.64-11.62-.97.97,10.72,10.71-2.19.14c-2.59.17-5.49.73-8.6,1.68-3.11.94-6.09,2.23-8.85,3.83-2.34,1.36-4.27,2.69-5.74,3.98Z" fill="#fff"/><path d="M195.01,276l-9.01-9,3.89-3.89,9.01,9-3.89,3.89ZM188.81,267l6.19,6.19,1.08-1.08-6.19-6.19-1.08,1.08Z" fill="#fff"/><path d="M245.21,335.79c-.72,0-1.44-.09-2.14-.26-1.7-.42-3.24-1.3-4.58-2.64-2.27-2.26-3.3-4.99-3.06-8.09.24-3.09,2.14-6.38,5.83-10.07,4.04-4.04,7.83-6.26,11.25-6.61,3.1-.31,5.85.71,8.19,3.04,1.75,1.75,2.71,3.72,2.85,5.86.14,2.14-.56,4.22-2.07,6.17l-.64.83-4.1-3.5.46-.73c.64-1.02,1-1.91,1.03-2.56.03-1.08-.34-2-1.13-2.78-.64-.64-1.35-1.01-2.18-1.13-1.16-.18-2.44.01-3.8.58-.89.37-1.89,1-2.98,1.89.6.06,1.19.18,1.75.37,1.45.47,2.71,1.24,3.76,2.29,1.84,1.84,2.74,4.11,2.68,6.75-.06,2.62-1.16,5.02-3.26,7.12-1.37,1.37-2.96,2.36-4.73,2.95-1.06.35-2.11.53-3.15.53ZM253.61,310.06c-.29,0-.58.02-.88.05-2.96.3-6.34,2.34-10.05,6.04-3.29,3.29-5.06,6.25-5.26,8.81-.19,2.53.62,4.67,2.48,6.53,1.07,1.07,2.3,1.78,3.64,2.11,1.36.33,2.73.26,4.19-.23,1.48-.49,2.81-1.32,3.95-2.46,1.75-1.75,2.63-3.63,2.68-5.76.05-2.11-.64-3.84-2.1-5.3-.83-.83-1.83-1.43-2.97-1.8-1.13-.37-2.37-.41-3.7-.14l-3.31.69,2.41-2.37c2.15-2.1,4-3.47,5.67-4.16,1.7-.71,3.34-.95,4.87-.71,1.24.19,2.35.76,3.28,1.69,1.18,1.17,1.75,2.61,1.71,4.26-.04.85-.33,1.77-.9,2.81l1.18,1.01c.8-1.3,1.15-2.6,1.06-3.97-.11-1.67-.85-3.17-2.27-4.59-1.69-1.69-3.56-2.52-5.7-2.52ZM244.77,332.55c-1.69,0-3.13-.58-4.28-1.73-.85-.84-1.42-1.9-1.7-3.14-.29-1.24-.19-2.54.3-3.86.46-1.27,1.18-2.4,2.13-3.35,1.48-1.48,3.17-2.25,5.01-2.27,1.86-.03,3.46.62,4.77,1.93,1.33,1.32,1.96,2.92,1.89,4.74-.07,1.79-.9,3.5-2.47,5.06-1.62,1.62-3.37,2.49-5.21,2.6-.15,0-.3.01-.44.01ZM246.34,320.19s-.05,0-.08,0c-1.32.02-2.51.57-3.63,1.69-.75.74-1.31,1.63-1.67,2.62-.35.96-.43,1.86-.23,2.73.2.88.58,1.59,1.17,2.18.84.84,1.89,1.22,3.2,1.14,1.35-.08,2.64-.74,3.92-2.02,1.22-1.22,1.84-2.44,1.89-3.74.05-1.26-.38-2.33-1.31-3.26-.91-.91-1.97-1.35-3.25-1.35Z" fill="#fff"/><path d="M236.66,318.29l-9.01-9,3.89-3.89,9.01,9-3.89,3.89ZM230.46,309.29l6.19,6.19,1.08-1.08-6.19-6.19-1.08,1.08Z" fill="#fff"/><path d="M289.33,378.87c-2.72,0-5.17-1.07-7.3-3.2-2-2-3.09-4.24-3.24-6.66-.15-2.43.63-4.7,2.32-6.75l.64-.78,4.3,3.62-.55.75c-.93,1.26-1.37,2.45-1.32,3.55.05,1.09.47,2.02,1.29,2.83.99.99,2.18,1.45,3.63,1.38,1.48-.06,2.84-.73,4.15-2.04,1.23-1.23,1.84-2.49,1.86-3.84.02-1.34-.5-2.52-1.6-3.61-.68-.68-1.42-1.12-2.26-1.36-.85-.24-1.65-.27-2.44-.09l-.62.14-3.05-3.96,13.85-9.45,11.31,11.29-3.77,3.77-8.17-8.16-4.02,2.67c1.31.51,2.45,1.25,3.42,2.21h0c1.95,1.94,2.93,4.29,2.92,6.98-.01,2.69-1.08,5.11-3.18,7.21-1.98,1.98-4.31,3.13-6.92,3.42-.42.05-.84.07-1.25.07ZM282.05,364.33c-.95,1.43-1.37,2.93-1.27,4.56.12,1.95.99,3.71,2.66,5.38,2.03,2.03,4.29,2.86,6.92,2.56,2.19-.24,4.06-1.17,5.73-2.85s2.59-3.64,2.6-5.81c0-2.17-.76-3.99-2.33-5.57h0c-1.19-1.19-2.68-1.93-4.54-2.26l-2.44-.43,9.24-6.15,7.91,7.9.96-.96-8.73-8.72-10.75,7.33,1.01,1.32c.9-.11,1.83-.03,2.76.23,1.17.32,2.22.95,3.14,1.87,1.47,1.47,2.21,3.17,2.18,5.05-.03,1.87-.85,3.62-2.44,5.21s-3.5,2.54-5.47,2.62c-2,.09-3.73-.58-5.12-1.97-1.17-1.16-1.79-2.56-1.87-4.14-.06-1.32.33-2.68,1.18-4.05l-1.33-1.12Z" fill="#fff"/><path d="M280.61,361.48l-9.01-9,3.89-3.89,9.01,9-3.89,3.89ZM274.41,352.48l6.19,6.19,1.08-1.08-6.19-6.19-1.08,1.08Z" fill="#fff"/><path d="M326.4,419.85l-3.88-3.88,4.82-4.82-8.74-8.73,3.19-3.19,23.07-4,3.09,3.09-13.06,13.04,2.72,2.72-3.67,3.67-2.72-2.72-4.82,4.82ZM325.33,415.98l1.07,1.07,4.82-4.82,2.72,2.72.86-.86-2.72-2.72,13.06-13.04-.95-.95-21.43,3.72-1.34,1.34,8.74,8.73-4.82,4.82ZM331.02,410.3l-8.36-8.35,20.39-3.67-12.03,12.02ZM326.76,403.23l4.26,4.26,6.14-6.13-10.4,1.87Z" fill="#fff"/><path d="M320,401.37l-9.01-9,3.89-3.89,9.01,9-3.89,3.89ZM313.8,392.38l6.19,6.19,1.08-1.08-6.19-6.19-1.08,1.08Z" fill="#fff"/><path d="M374.67,464.63c-.09,0-.18,0-.27,0-2.76-.07-5.24-1.18-7.38-3.32-1.94-1.94-2.99-4.17-3.11-6.63-.13-2.46.65-4.74,2.32-6.77l.61-.74,4.31,3.29-.51.77c-.99,1.5-1.47,2.8-1.42,3.88.05,1.05.47,1.96,1.28,2.76.97.97,2.1,1.45,3.43,1.45h.02c1.35,0,2.49-.49,3.5-1.5.95-.95,1.41-2,1.41-3.21,0-1.22-.47-2.27-1.43-3.23-.41-.4-1.02-.85-1.82-1.31l-1.27-.74,4.39-3.4.61.76c.12.15.22.26.3.34.92.92,1.96,1.49,3.17,1.75,1.07.22,1.99-.1,2.9-1.01.72-.71,1.06-1.52,1.04-2.45-.01-.95-.4-1.79-1.19-2.58-.78-.78-1.65-1.18-2.64-1.21-1.01-.03-2.14.4-3.34,1.29l-.82.6-3.19-4.56.82-.57c2.15-1.48,4.35-2.14,6.56-1.96,2.22.18,4.23,1.16,5.99,2.92,1.21,1.2,2.07,2.6,2.57,4.14.51,1.57.58,3.12.21,4.6-.37,1.48-1.08,2.75-2.12,3.79-1.01,1-2.21,1.66-3.58,1.95-.71.15-1.45.18-2.21.1.33,1.04.43,2.1.28,3.17-.24,1.74-1.09,3.35-2.54,4.8-1.89,1.89-4.19,2.84-6.86,2.84ZM367.19,449.93c-.96,1.43-1.39,2.96-1.3,4.64.1,1.98.93,3.73,2.53,5.33,1.79,1.79,3.76,2.68,6.02,2.74,2.24.03,4.1-.68,5.67-2.26,1.15-1.15,1.8-2.35,1.98-3.67.18-1.3-.13-2.55-.92-3.82l-1.54-2.47,2.73,1.01c1.15.43,2.24.54,3.23.33,1-.21,1.84-.67,2.58-1.41.79-.79,1.32-1.73,1.6-2.87.28-1.13.22-2.28-.17-3.5-.4-1.24-1.11-2.36-2.09-3.35-1.44-1.43-2.99-2.2-4.74-2.34-1.48-.12-2.94.24-4.43,1.08l.88,1.26c1.28-.77,2.51-1.13,3.73-1.11,1.5.04,2.84.64,3.99,1.79,1.16,1.15,1.75,2.49,1.78,3.95.02,1.48-.52,2.79-1.62,3.89-1.39,1.39-2.98,1.91-4.72,1.55-1.48-.31-2.81-1.01-3.95-2.07l-.62.48c.39.28.73.56,1,.84,1.33,1.33,2.01,2.89,2.02,4.63,0,1.75-.66,3.3-1.99,4.63-1.38,1.38-3.03,2.08-4.9,2.08-1.88.04-3.51-.68-4.86-2.03-1.16-1.15-1.78-2.52-1.86-4.07-.06-1.29.36-2.73,1.25-4.28l-1.29-.98Z" fill="#fff"/><path d="M365.66,447.15l-9.01-9,3.89-3.89,9.01,9-3.89,3.89ZM359.47,438.15l6.19,6.19,1.08-1.08-6.19-6.19-1.08,1.08Z" fill="#fff"/><path d="M415.66,509.18l-14.7-14.69.66-.7c.66-.71,1.45-1.26,2.33-1.65,1.34-.61,2.9-.99,4.63-1.13,1.68-.14,3.85-.07,6.47.19,3.88.38,6.73.44,8.46.18,1.6-.25,2.8-.76,3.58-1.54.79-.79,1.16-1.7,1.14-2.81-.02-1.12-.49-2.12-1.44-3.07-2.02-2.01-4.41-2.04-6.58.1l-.78.77-3.59-4.41.76-.63c2.26-1.88,4.62-2.76,7-2.6,2.37.16,4.62,1.29,6.71,3.37,2.11,2.11,3.21,4.42,3.27,6.87.06,2.47-.81,4.62-2.59,6.4-.9.9-1.98,1.6-3.2,2.1-1.2.49-2.69.79-4.42.89-1.67.1-4.19,0-7.5-.27-2.69-.23-4.46-.34-5.28-.32h0c-.1,0-.2,0-.29.01l9.17,9.16-3.78,3.78ZM403.79,494.51l11.87,11.86.97-.97-10.43-10.42,1.73-.41c.79-.19,1.66-.3,2.59-.32h0c.91-.03,2.71.08,5.51.33,3.21.27,5.64.36,7.21.27,1.51-.09,2.79-.34,3.79-.75.98-.4,1.83-.96,2.54-1.66,1.4-1.4,2.05-3.01,2-4.94-.05-1.95-.93-3.75-2.69-5.51-1.73-1.73-3.56-2.67-5.43-2.79-1.62-.1-3.21.4-4.82,1.54l.99,1.21c1.23-.96,2.55-1.45,3.93-1.45,1.7,0,3.25.7,4.63,2.08,1.31,1.31,1.99,2.8,2.02,4.43.03,1.65-.55,3.08-1.72,4.25-1.08,1.08-2.66,1.79-4.68,2.1-1.92.3-4.85.24-8.96-.16-2.49-.25-4.55-.31-6.11-.18-1.5.12-2.84.45-3.98.96-.35.15-.67.34-.97.56Z" fill="#fff"/><path d="M406.66,488.1l-9.01-9,3.89-3.89,9.01,9-3.89,3.89ZM400.46,479.11l6.19,6.19,1.08-1.08-6.19-6.19-1.08,1.08Z" fill="#fff"/><path d="M450.7,544.18l-3.88-3.88,14.99-14.97c-.67-.11-1.37-.26-2.11-.45-1.58-.41-2.95-.88-4.05-1.38l-1.3-.6,3.85-3.84.59.21c1.93.7,3.85,1.1,5.71,1.21h0c1.82.1,3.34-.05,4.52-.44l.59-.2,2.73,2.73-21.64,21.61ZM449.63,540.3l1.07,1.07,18.83-18.8-.47-.47c-1.31.34-2.87.47-4.66.37h0c-1.85-.1-3.76-.48-5.67-1.11l-.89.89c.71.25,1.5.49,2.37.72,1.45.38,2.74.58,3.82.61l2.32.05-16.7,16.69Z" fill="#fff"/><path d="M445.38,526.78l-9.01-9,3.89-3.89,9.01,9-3.89,3.89ZM439.19,517.79l6.19,6.19,1.08-1.08-6.19-6.19-1.08,1.08Z" fill="#fff"/><path d="M925.93,1016.04c-.3,0-.6-.02-.9-.04-1.99-.2-3.82-1.12-5.46-2.76-2.16-2.16-3.09-4.67-2.77-7.47.38-3.27,2.5-6.79,6.48-10.76,2.45-2.45,4.72-4.2,6.75-5.2,2.11-1.04,4.15-1.47,6.09-1.27,1.98.2,3.81,1.13,5.43,2.75,1.19,1.19,2.01,2.51,2.44,3.91.43,1.4.48,2.88.16,4.39h0c-.31,1.45-.94,2.98-1.86,4.54-.92,1.55-2.42,3.36-4.46,5.41-2.43,2.43-4.69,4.17-6.71,5.18-1.78.89-3.52,1.33-5.19,1.33ZM935.2,990.47c-1.35,0-2.79.37-4.28,1.11-1.83.91-3.93,2.53-6.22,4.82-3.6,3.6-5.59,6.82-5.91,9.59-.25,2.2.47,4.11,2.2,5.84,1.32,1.32,2.71,2.03,4.25,2.18,1.56.15,3.24-.21,5-1.09,1.83-.91,3.92-2.53,6.19-4.8,1.93-1.93,3.33-3.61,4.16-5.01.81-1.38,1.36-2.7,1.63-3.94h0c.25-1.19.22-2.31-.12-3.4-.33-1.09-.98-2.12-1.94-3.08-1.31-1.31-2.69-2.02-4.23-2.18-.24-.02-.48-.04-.72-.04ZM925.62,1012.82c-1.59,0-2.94-.54-4.01-1.62-1.37-1.37-1.88-3.18-1.5-5.37.36-2.09,2.23-4.81,5.72-8.29,3.49-3.48,6.3-5.38,8.61-5.79,1.98-.34,3.67.18,5.04,1.55,1.39,1.39,1.91,3.2,1.54,5.39-.35,2.09-2.23,4.8-5.73,8.3-3.48,3.48-6.19,5.34-8.29,5.71h0c-.48.08-.94.12-1.37.12ZM935.56,993.63c-.25,0-.51.02-.78.07-1.86.34-4.4,2.1-7.55,5.24-3.92,3.91-4.97,6.09-5.17,7.22-.27,1.54.04,2.73.95,3.63.9.9,2.09,1.21,3.64.94h0c1.14-.2,3.32-1.25,7.23-5.15,3.93-3.92,4.98-6.1,5.17-7.23.26-1.54-.06-2.73-.98-3.65-.72-.72-1.54-1.07-2.51-1.07Z" fill="#fff"/><path d="M907.72,1000.7l-3.88-3.88,14.99-14.97c-.67-.11-1.37-.26-2.11-.45-1.59-.41-2.95-.88-4.05-1.38l-1.3-.6,3.85-3.84.59.21c1.93.69,3.85,1.1,5.71,1.21h0c1.83.1,3.35-.05,4.52-.44l.59-.2,2.73,2.73-21.64,21.61ZM906.65,996.83l1.07,1.07,18.82-18.8-.47-.47c-1.3.34-2.87.47-4.66.36h0c-1.85-.1-3.76-.48-5.67-1.11l-.89.89c.71.25,1.5.49,2.37.72,1.45.38,2.74.58,3.82.61l2.32.06-16.7,16.68Z" fill="#fff"/><path d="M877.03,966.67c-.52,0-1.03-.04-1.54-.12-2.1-.34-4-1.34-5.62-2.96-1.74-1.74-2.7-3.7-2.84-5.81-.14-2.11.57-4.18,2.1-6.16l.63-.81,4.09,3.39-.52.75c-.78,1.13-1.15,2.12-1.1,2.96.05.83.42,1.58,1.14,2.29.64.63,1.31,1.03,2.05,1.21.77.19,1.56.19,2.35.01.84-.19,1.85-.63,2.99-1.32.59-.35,1.16-.75,1.7-1.17-.5-.05-1.01-.15-1.52-.29-1.51-.41-2.84-1.19-3.96-2.3-1.86-1.86-2.77-4.13-2.71-6.77.06-2.61,1.19-5.03,3.34-7.19,2.22-2.22,4.72-3.37,7.43-3.41,2.68-.07,5.11.94,7.12,2.95,1.44,1.44,2.39,3.17,2.8,5.14.42,1.98.22,4.01-.59,6.06-.8,2.01-2.45,4.25-5.05,6.84s-5.09,4.49-7.27,5.5c-1.71.79-3.39,1.19-5.01,1.19ZM870.11,953.68c-.82,1.31-1.18,2.62-1.09,3.97.11,1.64.85,3.12,2.26,4.53s2.83,2.13,4.53,2.41c1.69.28,3.51-.03,5.4-.91,1.97-.91,4.22-2.63,6.7-5.11s3.92-4.44,4.6-6.17c.67-1.67.83-3.32.49-4.91h0c-.34-1.61-1.08-2.97-2.26-4.15-1.63-1.63-3.47-2.41-5.68-2.37-2.2.04-4.18.96-6.05,2.83-1.81,1.81-2.71,3.71-2.76,5.83-.05,2.1.65,3.84,2.13,5.31.87.87,1.9,1.47,3.08,1.79,1.18.32,2.34.35,3.46.1l3.12-.71-2.17,2.35c-.22.24-.39.42-.51.54-1.08,1.08-2.28,2.02-3.59,2.8-1.34.8-2.51,1.31-3.57,1.55-1.09.25-2.19.24-3.26-.02-1.1-.27-2.1-.85-2.99-1.74-1.06-1.06-1.64-2.27-1.72-3.58-.06-1.07.26-2.22.96-3.44l-1.09-.91ZM884.25,956.68c-1.7,0-3.21-.64-4.49-1.92s-1.99-2.94-1.96-4.78c.03-1.83.79-3.51,2.26-4.97,1.6-1.6,3.41-2.46,5.37-2.56,2-.1,3.67.51,4.97,1.81,1.26,1.26,1.86,2.85,1.77,4.72-.09,1.84-.95,3.57-2.54,5.16-1.6,1.59-3.31,2.44-5.1,2.51h0c-.1,0-.19,0-.29,0ZM885.84,944.44c-.1,0-.2,0-.31,0-1.47.07-2.8.72-4.06,1.98-1.1,1.1-1.65,2.28-1.67,3.6-.02,1.3.43,2.4,1.37,3.34s2.01,1.39,3.28,1.33h0c1.29-.05,2.53-.69,3.78-1.93,1.25-1.25,1.89-2.51,1.96-3.86.06-1.31-.32-2.36-1.19-3.22-.83-.83-1.87-1.24-3.16-1.24Z" fill="#fff"/><path d="M835.49,925.13c-.07,0-.14,0-.2,0-2.65-.05-5.09-1.17-7.25-3.34-2.17-2.16-3.29-4.61-3.34-7.25-.05-2.66.92-5,2.87-6.95,1.46-1.46,3.09-2.32,4.85-2.57,1.05-.15,2.11-.07,3.16.23-.14-.78-.15-1.54-.03-2.27.24-1.39.92-2.66,2.04-3.78,1.66-1.66,3.68-2.45,6.01-2.41,2.31.06,4.45,1.07,6.38,3,1.94,1.94,2.95,4.11,3.01,6.45.06,2.36-.76,4.4-2.42,6.06-1.08,1.08-2.33,1.74-3.71,1.98-.75.13-1.53.12-2.33-.03.3,1.13.36,2.26.18,3.35-.29,1.75-1.14,3.33-2.53,4.72-1.86,1.86-4.11,2.81-6.69,2.81ZM833.47,906.93c-.26,0-.52.02-.78.06-1.34.19-2.56.85-3.72,2.01-1.57,1.57-2.32,3.38-2.29,5.51.04,2.15.94,4.07,2.75,5.88,1.82,1.81,3.74,2.72,5.89,2.76,2.13.03,3.91-.69,5.45-2.22,1.1-1.1,1.75-2.29,1.97-3.64.22-1.34-.03-2.7-.78-4.16l-1.29-2.53,2.58,1.17c1.18.54,2.28.72,3.26.56.98-.17,1.85-.63,2.64-1.43,1.28-1.28,1.88-2.78,1.83-4.61-.04-1.84-.84-3.51-2.42-5.1-1.58-1.58-3.22-2.37-5.03-2.41-1.79-.04-3.27.55-4.55,1.82-.83.83-1.31,1.71-1.48,2.7-.17.98.03,2.09.59,3.3l1.34,2.88-2.74-1.61c-1.1-.64-2.16-.96-3.23-.96ZM834.9,921.86h-.04c-1.79-.01-3.4-.71-4.76-2.08-.88-.87-1.49-1.92-1.84-3.09-.35-1.21-.34-2.43.05-3.61.37-1.14.97-2.13,1.79-2.94,1.34-1.34,2.93-2.02,4.73-2.03h.02c1.79,0,3.38.68,4.73,2.03,1.38,1.37,2.08,3,2.1,4.83.02,1.84-.68,3.47-2.06,4.85s-2.94,2.04-4.72,2.04ZM834.87,919.87h.03c1.25,0,2.34-.48,3.32-1.45s1.49-2.12,1.47-3.43c-.01-1.31-.51-2.44-1.52-3.45-.97-.97-2.06-1.45-3.33-1.45h-.02c-1.27,0-2.36.48-3.33,1.45-.59.59-1.03,1.32-1.3,2.15-.26.81-.27,1.6-.03,2.44.25.87.69,1.6,1.34,2.24,1,1,2.1,1.49,3.37,1.5h0ZM844.25,911.33h-.05c-1.47-.01-2.8-.59-3.94-1.73s-1.76-2.51-1.78-3.99c-.01-1.49.56-2.82,1.71-3.96,1.01-1.01,2.27-1.53,3.73-1.53.03,0,.06,0,.09,0,1.49.02,2.82.61,3.95,1.73s1.7,2.45,1.71,3.96c.01,1.51-.54,2.84-1.64,3.94s-2.32,1.58-3.78,1.58ZM843.92,902.1c-.93,0-1.69.31-2.32.95-.76.76-1.13,1.59-1.12,2.54,0,.95.4,1.81,1.19,2.6s1.6,1.14,2.55,1.15c.94,0,1.73-.32,2.41-1,.72-.72,1.06-1.54,1.05-2.52,0-.98-.37-1.82-1.12-2.57-.76-.76-1.6-1.14-2.57-1.15-.02,0-.04,0-.06,0Z" fill="#fff"/><path d="M786.72,879.15l-3.92-3.91.73-.7c1.66-1.6,3.98-3.27,6.87-4.95,2.89-1.68,6.01-3.03,9.27-4.02,2.44-.74,4.76-1.26,6.93-1.55l-9.09-9.08,3.78-3.78,14.45,14.43-2.91,2.9h-.39c-2.55.09-5.59.63-9.02,1.6-3.43.98-6.69,2.31-9.69,3.97-2.11,1.15-4.23,2.65-6.32,4.46l-.7.61ZM785.66,875.28l1.16,1.16c1.97-1.64,3.97-3.02,5.96-4.11,3.13-1.73,6.53-3.12,10.11-4.14,3.41-.97,6.47-1.52,9.1-1.65l.95-.94-11.64-11.62-.97.97,10.72,10.71-2.19.14c-2.6.17-5.49.73-8.6,1.68-3.11.94-6.09,2.23-8.85,3.84-2.34,1.36-4.27,2.69-5.74,3.98Z" fill="#fff"/><path d="M750.75,840.78c-.72,0-1.44-.09-2.14-.26-1.7-.42-3.24-1.3-4.58-2.64-2.27-2.26-3.3-4.99-3.06-8.09.24-3.09,2.14-6.38,5.83-10.07,4.04-4.04,7.83-6.26,11.25-6.62,3.09-.32,5.85.71,8.19,3.05,1.75,1.75,2.71,3.72,2.85,5.86.14,2.14-.56,4.22-2.07,6.17l-.64.83-4.1-3.5.46-.73c.64-1.02,1-1.91,1.03-2.56.03-1.08-.34-2-1.12-2.78-.64-.64-1.35-1.01-2.18-1.13-1.16-.19-2.44.01-3.8.58-.89.37-1.89,1-2.98,1.89.6.06,1.19.18,1.75.37,1.45.47,2.71,1.24,3.76,2.29,1.84,1.84,2.74,4.11,2.68,6.75-.06,2.62-1.16,5.02-3.26,7.12-1.37,1.37-2.96,2.36-4.73,2.95-1.06.35-2.11.53-3.15.53ZM759.15,815.05c-.29,0-.58.02-.88.05-2.96.3-6.34,2.34-10.05,6.04-3.29,3.29-5.06,6.25-5.26,8.81-.19,2.53.62,4.67,2.48,6.53,1.07,1.07,2.3,1.78,3.64,2.11,1.34.33,2.75.25,4.19-.23,1.48-.49,2.8-1.32,3.95-2.46,1.75-1.75,2.63-3.63,2.68-5.76.05-2.11-.64-3.84-2.1-5.3-.83-.83-1.83-1.43-2.97-1.8-1.13-.36-2.37-.41-3.7-.14l-3.31.69,2.41-2.37c2.15-2.1,4-3.47,5.67-4.16,1.7-.71,3.34-.95,4.87-.71,1.24.19,2.35.76,3.28,1.69,1.18,1.18,1.75,2.61,1.71,4.26-.04.85-.33,1.77-.9,2.81l1.18,1.01c.8-1.3,1.15-2.6,1.06-3.97-.11-1.67-.85-3.17-2.27-4.59-1.69-1.69-3.56-2.52-5.7-2.52ZM750.31,837.54c-1.69,0-3.13-.58-4.28-1.73-.85-.84-1.42-1.9-1.7-3.14-.29-1.24-.19-2.54.3-3.86.47-1.27,1.18-2.4,2.13-3.35,1.48-1.48,3.17-2.25,5.01-2.28.04,0,.07,0,.11,0,1.81,0,3.38.65,4.66,1.93,1.33,1.33,1.96,2.92,1.89,4.74-.07,1.79-.9,3.5-2.47,5.06-1.62,1.62-3.37,2.49-5.21,2.6h0c-.15,0-.3.01-.44.01ZM751.88,825.18s-.05,0-.08,0c-1.32.02-2.51.57-3.63,1.69-.74.74-1.31,1.63-1.67,2.62-.35.96-.43,1.86-.23,2.73.2.88.58,1.59,1.17,2.18.84.84,1.89,1.21,3.2,1.14h0c1.34-.08,2.65-.75,3.92-2.02,1.22-1.22,1.84-2.44,1.89-3.74.05-1.27-.38-2.33-1.31-3.26-.91-.91-1.97-1.35-3.25-1.35Z" fill="#fff"/><path d="M708.89,797.97c-2.72,0-5.17-1.07-7.3-3.2-2-2-3.09-4.24-3.24-6.66-.15-2.43.63-4.7,2.32-6.75l.64-.78,4.3,3.62-.55.75c-.93,1.26-1.37,2.45-1.32,3.55.05,1.09.47,2.02,1.29,2.83.99.99,2.17,1.45,3.63,1.39,1.48-.06,2.84-.73,4.15-2.04,1.23-1.23,1.84-2.49,1.86-3.84.02-1.34-.5-2.52-1.6-3.61-.68-.68-1.42-1.12-2.26-1.36-.85-.24-1.65-.27-2.44-.09l-.62.14-3.05-3.96,13.85-9.45,11.31,11.29-3.77,3.77-8.17-8.16-4.02,2.67c1.31.51,2.45,1.25,3.42,2.21h0c1.95,1.94,2.93,4.29,2.92,6.98-.01,2.69-1.08,5.11-3.18,7.21-1.98,1.98-4.3,3.13-6.92,3.42-.42.05-.84.07-1.25.07ZM701.61,783.43c-.95,1.43-1.37,2.93-1.27,4.56.12,1.95.99,3.71,2.66,5.38,2.03,2.03,4.29,2.87,6.92,2.56,2.19-.24,4.06-1.17,5.73-2.85,1.74-1.73,2.59-3.64,2.6-5.81,0-2.17-.76-3.99-2.33-5.57h0c-1.19-1.19-2.68-1.93-4.54-2.26l-2.44-.43,9.24-6.15,7.91,7.9.96-.96-8.73-8.72-10.75,7.33,1.01,1.31c.9-.11,1.83-.03,2.77.23,1.16.32,2.22.95,3.14,1.87,1.47,1.47,2.21,3.17,2.18,5.05-.03,1.87-.85,3.62-2.44,5.21s-3.5,2.54-5.47,2.62c-2.01.09-3.73-.58-5.12-1.97-1.17-1.17-1.8-2.56-1.87-4.14-.06-1.32.33-2.67,1.18-4.05l-1.33-1.12Z" fill="#fff"/><path d="M664.07,757.16l-3.88-3.88,4.82-4.82-8.74-8.73,3.19-3.19,23.07-4,3.09,3.09-13.06,13.04,2.72,2.72-3.67,3.67-2.72-2.72-4.82,4.82ZM663,753.28l1.07,1.07,4.82-4.82,2.72,2.72.86-.86-2.72-2.72,13.06-13.04-.95-.95-21.43,3.71-1.34,1.34,8.74,8.73-4.82,4.82ZM668.69,747.6l-8.36-8.35,20.39-3.67-12.03,12.02ZM664.43,740.54l4.26,4.26,6.14-6.13-10.4,1.87Z" fill="#fff"/><path d="M624.87,714.55c-.09,0-.18,0-.27,0-2.76-.07-5.24-1.18-7.38-3.32-1.94-1.94-2.99-4.17-3.11-6.63-.13-2.46.65-4.74,2.32-6.77l.61-.74,4.31,3.29-.51.77c-.99,1.5-1.47,2.8-1.42,3.88.05,1.05.47,1.96,1.28,2.77.97.97,2.1,1.45,3.43,1.45h.02c1.35,0,2.49-.49,3.5-1.5.95-.95,1.41-2,1.41-3.21,0-1.22-.47-2.27-1.43-3.23-.4-.4-1.01-.85-1.82-1.31l-1.27-.74,4.38-3.39.61.76c.12.15.22.26.3.34.92.92,1.96,1.49,3.17,1.75,1.06.22,1.99-.09,2.9-1.01.72-.72,1.06-1.52,1.04-2.45-.01-.95-.41-1.79-1.19-2.58-.78-.78-1.65-1.18-2.64-1.2-1.02-.02-2.13.4-3.34,1.29l-.82.6-3.19-4.56.82-.57c2.14-1.48,4.36-2.14,6.56-1.97,2.22.18,4.23,1.16,5.99,2.92,1.21,1.2,2.07,2.6,2.57,4.14.51,1.57.58,3.12.21,4.6-.37,1.47-1.08,2.75-2.12,3.79-1.01,1.01-2.21,1.66-3.58,1.94-.71.15-1.46.18-2.21.1.33,1.04.43,2.1.28,3.17-.24,1.74-1.09,3.35-2.54,4.8-1.89,1.89-4.19,2.84-6.85,2.84ZM617.39,699.86c-.96,1.43-1.38,2.96-1.3,4.64.1,1.98.93,3.73,2.53,5.33,1.79,1.79,3.76,2.68,6.02,2.74,2.26.06,4.1-.68,5.67-2.26,1.14-1.14,1.8-2.37,1.98-3.67.18-1.3-.13-2.55-.92-3.82l-1.55-2.47,2.74,1.01c1.15.43,2.24.54,3.23.33,1-.21,1.84-.67,2.58-1.4.79-.79,1.32-1.73,1.6-2.87.28-1.13.23-2.28-.17-3.5-.4-1.24-1.1-2.37-2.09-3.35-1.44-1.43-2.99-2.2-4.74-2.34-1.49-.12-2.94.24-4.42,1.08l.88,1.26c1.28-.77,2.52-1.13,3.73-1.11,1.5.04,2.84.65,3.99,1.79,1.16,1.15,1.75,2.48,1.78,3.95.02,1.48-.52,2.79-1.62,3.89-1.37,1.37-3,1.91-4.71,1.55-1.48-.31-2.81-1.01-3.95-2.07l-.62.48c.39.28.73.56,1.01.84,1.33,1.33,2.01,2.89,2.02,4.63,0,1.74-.66,3.3-1.99,4.62-1.38,1.38-3.03,2.08-4.9,2.08h-.02c-1.86,0-3.49-.68-4.84-2.03-1.16-1.16-1.78-2.53-1.86-4.07-.06-1.31.35-2.72,1.25-4.28l-1.29-.98Z" fill="#fff"/><path d="M582.53,675.87l-14.7-14.69.66-.7c.66-.71,1.45-1.26,2.33-1.66,1.34-.61,2.9-.99,4.63-1.13,1.68-.13,3.85-.07,6.47.19,3.88.38,6.73.45,8.46.18,1.6-.25,2.8-.76,3.58-1.54s1.16-1.71,1.14-2.81c-.02-1.12-.49-2.12-1.44-3.06-2.02-2.01-4.41-2.04-6.58.1l-.78.77-3.59-4.41.76-.63c2.26-1.88,4.62-2.75,7-2.6,2.37.16,4.62,1.29,6.71,3.37,2.11,2.11,3.21,4.42,3.27,6.87.06,2.47-.81,4.62-2.59,6.4-.9.9-1.97,1.6-3.2,2.1-1.21.49-2.69.79-4.42.89-1.69.1-4.14.01-7.5-.27-2.69-.23-4.47-.34-5.28-.32h0c-.1,0-.2,0-.29.01l9.17,9.16-3.78,3.78ZM570.66,661.21l11.87,11.86.97-.97-10.43-10.42,1.73-.41c.79-.19,1.66-.3,2.59-.32.9-.02,2.71.08,5.51.33,3.21.27,5.64.36,7.22.27,1.51-.09,2.78-.34,3.79-.75.98-.4,1.83-.96,2.54-1.66,1.4-1.4,2.05-3.01,2.01-4.94-.05-1.95-.93-3.75-2.69-5.51s-3.56-2.67-5.43-2.79c-1.63-.11-3.21.4-4.82,1.54l.99,1.21c1.23-.96,2.55-1.45,3.94-1.45,1.7,0,3.25.7,4.63,2.08s1.99,2.8,2.02,4.43c.03,1.65-.55,3.08-1.72,4.25-1.08,1.08-2.66,1.79-4.68,2.1-1.92.29-4.85.24-8.96-.16-2.5-.25-4.55-.31-6.11-.18-1.5.12-2.84.45-3.98.96-.35.15-.67.34-.97.56Z" fill="#fff"/><path d="M535,628.39l-3.88-3.88,14.99-14.97c-.67-.11-1.37-.26-2.11-.45-1.59-.41-2.95-.88-4.05-1.38l-1.3-.6,3.85-3.84.59.21c1.93.69,3.85,1.1,5.71,1.21h0c1.83.1,3.34-.05,4.52-.44l.58-.2,2.74,2.73-21.64,21.61ZM533.93,624.51l1.07,1.07,18.83-18.8-.47-.47c-1.31.34-2.87.47-4.66.36h0c-1.85-.1-3.76-.48-5.67-1.11l-.89.89c.71.25,1.5.49,2.37.72,1.45.38,2.74.58,3.82.61l2.32.06-16.7,16.68Z" fill="#fff"/><path d="M497.08,587.65c-.3,0-.6-.01-.9-.04-1.99-.2-3.82-1.12-5.46-2.76-2.16-2.16-3.09-4.67-2.77-7.47.38-3.26,2.5-6.78,6.48-10.76,2.45-2.44,4.72-4.19,6.75-5.2,2.11-1.04,4.15-1.47,6.09-1.27,1.98.2,3.81,1.13,5.43,2.75,1.19,1.19,2.01,2.51,2.44,3.91.43,1.41.48,2.89.16,4.4h0c-.31,1.45-.94,2.98-1.86,4.54-.91,1.54-2.41,3.36-4.46,5.41-2.43,2.43-4.69,4.17-6.71,5.18-1.78.89-3.52,1.33-5.19,1.33ZM506.35,562.08c-1.35,0-2.79.37-4.28,1.11-1.84.91-3.93,2.53-6.23,4.82-3.6,3.6-5.59,6.83-5.91,9.59-.25,2.2.47,4.11,2.2,5.84,1.32,1.32,2.71,2.03,4.25,2.18,1.56.16,3.25-.21,5-1.09,1.83-.91,3.92-2.53,6.19-4.8,1.93-1.93,3.33-3.61,4.16-5.01.82-1.38,1.36-2.71,1.63-3.94h0c.25-1.19.22-2.31-.12-3.4-.33-1.09-.98-2.12-1.94-3.08-1.31-1.31-2.69-2.02-4.23-2.18-.24-.02-.48-.04-.72-.04ZM496.77,584.43c-1.59,0-2.94-.54-4.01-1.62-1.37-1.37-1.88-3.18-1.5-5.37.36-2.09,2.23-4.81,5.72-8.29,3.49-3.48,6.3-5.38,8.61-5.79,1.98-.34,3.67.18,5.04,1.55,1.39,1.39,1.91,3.2,1.53,5.39-.35,2.09-2.23,4.81-5.73,8.3-3.48,3.48-6.19,5.34-8.29,5.71h0c-.48.08-.93.12-1.37.12ZM506.71,565.24c-.25,0-.51.02-.78.07-1.86.34-4.4,2.1-7.55,5.24-3.92,3.91-4.97,6.09-5.17,7.22-.27,1.54.04,2.73.95,3.63.9.9,2.09,1.21,3.64.94h0c1.14-.2,3.32-1.25,7.23-5.15,3.93-3.92,4.98-6.1,5.17-7.23.26-1.54-.06-2.73-.98-3.65-.72-.72-1.55-1.07-2.52-1.07Z" fill="#fff"/><path d="M45.06,74.73L0,0l73.88,45.85-28.81,28.88ZM5.96,6.04l39.49,65.48,25.25-25.31L5.96,6.04Z" fill="#fff"/><path d="M1013.03,1019.98l-54.89-54.83-18.37,18.35-4.22-4.22,18.37-18.35-38-37.96-18.37,18.35-4.22-4.22,18.37-18.35-38-37.96-18.37,18.35-4.22-4.22,18.37-18.35-38-37.96-18.37,18.35-4.22-4.22,18.37-18.35-38-37.96-18.37,18.35-4.22-4.22,18.37-18.35-38-37.96-18.37,18.35-4.22-4.22,18.37-18.35-38-37.96-18.37,18.35-4.22-4.22,18.37-18.35-38-37.96-18.37,18.35-4.22-4.22,18.37-18.35-38-37.96-18.37,18.35-4.22-4.22,18.37-18.35-38-37.96-18.37,18.35-4.22-4.22,18.37-18.35-38-37.96-18.37,18.35-4.22-4.22,18.37-18.35-38-37.96-18.37,18.35-4.22-4.22,18.37-18.35-38-37.96-18.37,18.35-4.22-4.22,18.37-18.35-38-37.96-18.37,18.35-4.22-4.22,18.37-18.35-38-37.96-18.37,18.35-4.22-4.22,18.37-18.35-38-37.96-18.37,18.35-4.22-4.22,18.37-18.35-38-37.96-18.37,18.35-4.22-4.22,18.37-18.35-38-37.96-18.37,18.35-4.22-4.22,18.37-18.35-38-37.96-18.37,18.35-4.22-4.22,18.37-18.35-38-37.96-18.37,18.35-4.22-4.22,18.37-18.35-38-37.96-18.37,18.35-4.22-4.22,18.37-18.35-54.89-54.83,7.04-7.03,54.89,54.83,18.23-18.21,4.22,4.22-18.23,18.21,38,37.96,18.23-18.21,4.22,4.22-18.23,18.21,38,37.96,18.23-18.21,4.22,4.22-18.23,18.21,38,37.96,18.23-18.21,4.22,4.22-18.23,18.21,38,37.96,18.23-18.21,4.22,4.22-18.23,18.21,38,37.96,18.23-18.21,4.22,4.22-18.23,18.21,38,37.96,18.23-18.21,4.22,4.22-18.23,18.21,38,37.96,18.23-18.21,4.22,4.22-18.23,18.21,38,37.96,18.23-18.21,4.22,4.22-18.23,18.21,38,37.96,18.23-18.21,4.22,4.22-18.23,18.21,38,37.96,18.23-18.21,4.22,4.22-18.23,18.21,38,37.96,18.23-18.21,4.22,4.22-18.23,18.21,38,37.96,18.23-18.21,4.22,4.22-18.23,18.21,38,37.96,18.23-18.21,4.22,4.22-18.23,18.21,38,37.96,18.23-18.21,4.22,4.22-18.23,18.21,38,37.96,18.23-18.21,4.22,4.22-18.23,18.21,38,37.96,18.23-18.21,4.22,4.22-18.23,18.21,38,37.96,18.23-18.21,4.22,4.22-18.23,18.21,38,37.96,18.23-18.21,4.22,4.22-18.23,18.21,38,37.96,18.23-18.21,4.22,4.22-18.23,18.21,38,37.96,18.23-18.21,4.22,4.22-18.23,18.21,54.89,54.83-7.04,7.03ZM958.15,962.34l54.89,54.83,4.22-4.22-54.89-54.83,18.23-18.21-1.41-1.41-18.23,18.21-40.81-40.77,18.23-18.21-1.41-1.41-18.23,18.21-40.81-40.77,18.23-18.21-1.41-1.41-18.23,18.21-40.81-40.77,18.23-18.21-1.41-1.41-18.23,18.21-40.81-40.77,18.23-18.21-1.41-1.41-18.23,18.21-40.81-40.77,18.23-18.21-1.41-1.41-18.23,18.21-40.81-40.77,18.23-18.21-1.41-1.41-18.23,18.21-40.81-40.77,18.23-18.21-1.41-1.41-18.23,18.21-40.81-40.77,18.23-18.21-1.41-1.41-18.23,18.21-40.81-40.77,18.23-18.21-1.41-1.41-18.23,18.21-40.81-40.77,18.23-18.21-1.41-1.41-18.23,18.21-40.81-40.77,18.23-18.21-1.41-1.41-18.23,18.21-40.81-40.77,18.23-18.21-1.41-1.41-18.23,18.21-40.81-40.77,18.23-18.21-1.41-1.41-18.23,18.21-40.81-40.77,18.23-18.21-1.41-1.41-18.23,18.21-40.81-40.77,18.23-18.21-1.41-1.41-18.23,18.21-40.81-40.77,18.23-18.21-1.41-1.41-18.23,18.21-40.81-40.77,18.23-18.21-1.41-1.41-18.23,18.21-40.81-40.77,18.23-18.21-1.41-1.41-18.23,18.21-40.81-40.77,18.23-18.21-1.41-1.41-18.23,18.21-40.81-40.77,18.23-18.21-1.41-1.41-18.23,18.21-54.89-54.83-4.22,4.22,54.89,54.83-18.37,18.35,1.41,1.41,18.37-18.35,40.81,40.77-18.37,18.35,1.41,1.41,18.37-18.35,40.81,40.77-18.37,18.35,1.41,1.41,18.37-18.35,40.81,40.77-18.37,18.35,1.41,1.41,18.37-18.35,40.81,40.77-18.37,18.35,1.41,1.41,18.37-18.35,40.81,40.77-18.37,18.35,1.41,1.41,18.37-18.35,40.81,40.77-18.37,18.35,1.41,1.41,18.37-18.35,40.81,40.77-18.37,18.35,1.41,1.41,18.37-18.35,40.81,40.77-18.37,18.35,1.41,1.41,18.37-18.35,40.81,40.77-18.37,18.35,1.41,1.41,18.37-18.35,40.81,40.77-18.37,18.35,1.41,1.41,18.37-18.35,40.81,40.77-18.37,18.35,1.41,1.41,18.37-18.35,40.81,40.77-18.37,18.35,1.41,1.41,18.37-18.35,40.81,40.77-18.37,18.35,1.41,1.41,18.37-18.35,40.81,40.77-18.37,18.35,1.41,1.41,18.37-18.35,40.81,40.77-18.37,18.35,1.41,1.41,18.37-18.35,40.81,40.77-18.37,18.35,1.41,1.41,18.37-18.35,40.81,40.77-18.37,18.35,1.41,1.41,18.37-18.35,40.81,40.77-18.37,18.35,1.41,1.41,18.37-18.35,40.81,40.77-18.37,18.35,1.41,1.41,18.37-18.35,40.81,40.77-18.37,18.35,1.41,1.41,18.37-18.35Z" fill="#fff"/><path d="M1075,1075l-74.1-45.49,28.67-29.02,45.43,74.51ZM1004.08,1029.13l64.93,39.86-39.8-65.29-25.13,25.43Z" fill="#fff"/><path d="M135.27,189.38c-.38-1.79-1.23-3.34-2.54-4.65-1.81-1.81-3.95-2.7-6.4-2.66-2.45.04-4.7,1.08-6.74,3.12-1.98,1.98-3,4.15-3.05,6.51-.06,2.36.75,4.37,2.42,6.04,1,1,2.17,1.68,3.52,2.05,1.35.37,2.66.4,3.94.11-.21.23-.37.4-.48.51-1.03,1.03-2.16,1.91-3.39,2.65-1.24.74-2.33,1.22-3.28,1.43-.95.22-1.88.21-2.8-.01-.92-.22-1.76-.72-2.52-1.48-.89-.89-1.37-1.87-1.43-2.94-.06-1.07.36-2.27,1.28-3.58l-2.6-2.16c-1.38,1.78-2.01,3.61-1.89,5.48.12,1.87.97,3.59,2.55,5.17,1.48,1.48,3.18,2.38,5.08,2.68,1.9.31,3.89-.02,5.98-.99,2.08-.97,4.41-2.73,6.99-5.31s4.08-4.64,4.82-6.51c.74-1.87.92-3.7.54-5.48ZM125.78,197.79c-1.54.06-2.88-.48-4.03-1.62-1.14-1.13-1.69-2.49-1.66-4.06.03-1.57.68-3,1.97-4.28,1.43-1.43,3-2.18,4.71-2.27,1.71-.08,3.12.43,4.22,1.52s1.56,2.39,1.48,3.97c-.08,1.59-.83,3.09-2.25,4.51s-2.9,2.16-4.44,2.22Z" fill="#4d4d4d"/><polygon points="52.73 133.15 60.33 140.75 62.82 138.26 55.22 130.67 52.73 133.15" fill="#4d4d4d"/><path d="M79.39,136.83c-1.96-.11-3.96-.53-5.99-1.26l-2.39,2.39c1.05.49,2.35.93,3.88,1.32,1.53.4,2.88.61,4.05.64l-15.76,15.75,2.47,2.47,20.23-20.21-1.59-1.59c-1.3.44-2.93.6-4.89.49Z" fill="#4d4d4d"/><path d="M101.12,158.22c.29-1.35.24-2.65-.14-3.9-.38-1.25-1.11-2.41-2.19-3.49-1.47-1.46-3.08-2.29-4.83-2.46-1.75-.18-3.6.21-5.55,1.17-1.94.96-4.11,2.63-6.49,5.01-3.78,3.78-5.85,7.17-6.2,10.17-.28,2.5.55,4.72,2.49,6.66,1.48,1.47,3.09,2.3,4.85,2.47,1.76.17,3.61-.22,5.55-1.19,1.94-.97,4.09-2.63,6.45-4.99,2-2,3.43-3.73,4.31-5.21.87-1.48,1.46-2.89,1.75-4.24ZM84.76,170.56c-1.87.32-3.38-.08-4.51-1.21s-1.54-2.64-1.22-4.5c.32-1.87,2.13-4.45,5.44-7.76,3.31-3.3,6-5.14,8.08-5.52,1.64-.28,3.03.14,4.16,1.28,1.15,1.15,1.57,2.66,1.26,4.52-.32,1.86-2.13,4.45-5.45,7.76s-5.88,5.11-7.76,5.43Z" fill="#4d4d4d"/><polygon points="102.56 182.94 110.17 190.53 112.65 188.04 105.05 180.45 102.56 182.94" fill="#4d4d4d"/><path d="M169.01,239.57c1.37.62,2.65.83,3.83.63,1.18-.2,2.24-.77,3.17-1.7,1.47-1.46,2.17-3.24,2.12-5.33-.05-2.09-.96-4.02-2.71-5.77s-3.65-2.65-5.7-2.7c-2.05-.05-3.81.65-5.28,2.11-.97.97-1.56,2.05-1.76,3.24-.2,1.19.02,2.48.67,3.89-1.55-.91-3.1-1.25-4.65-1.03-1.55.22-2.98.98-4.29,2.29-1.76,1.76-2.62,3.83-2.58,6.23.04,2.39,1.06,4.58,3.04,6.57,1.99,1.99,4.18,3,6.57,3.05,2.39.05,4.45-.79,6.17-2.51,1.25-1.24,2-2.64,2.25-4.18.25-1.54-.04-3.13-.87-4.77ZM167.06,229.24c.84-.84,1.88-1.25,3.11-1.24,1.23.02,2.31.5,3.26,1.44s1.41,2.02,1.42,3.27c0,1.24-.44,2.32-1.35,3.23s-1.91,1.3-3.12,1.29c-1.21,0-2.29-.49-3.24-1.44s-1.48-2.08-1.48-3.3c0-1.22.46-2.3,1.42-3.25ZM161.03,247.76c-1.53,0-2.89-.6-4.07-1.78-.76-.76-1.29-1.65-1.59-2.67-.3-1.02-.28-2.03.04-3.02.33-.99.84-1.84,1.55-2.55,1.15-1.15,2.5-1.73,4.03-1.74,1.53,0,2.88.57,4.05,1.74s1.79,2.57,1.81,4.14c.01,1.57-.58,2.95-1.77,4.14-1.17,1.17-2.52,1.75-4.05,1.74Z" fill="#4d4d4d"/><polygon points="145.03 225.36 152.63 232.95 155.12 230.46 147.52 222.87 145.03 225.36" fill="#4d4d4d"/><path d="M208.68,265.35l9.87,9.86c-2.68.17-5.63.75-8.82,1.72-3.2.97-6.22,2.28-9.06,3.93-2.84,1.65-5.07,3.25-6.68,4.81l2.54,2.54c2.14-1.87,4.31-3.4,6.49-4.59,3.08-1.7,6.38-3.05,9.9-4.06,3.52-1,6.61-1.54,9.26-1.63l1.92-1.92-13.04-13.03-2.38,2.38Z" fill="#4d4d4d"/><path d="M943.18,999.37c.29-1.35.24-2.65-.14-3.9-.38-1.25-1.11-2.41-2.19-3.49-1.47-1.46-3.08-2.29-4.83-2.46-1.75-.18-3.6.21-5.55,1.17-1.94.96-4.11,2.63-6.49,5.01-3.78,3.78-5.85,7.17-6.2,10.17-.28,2.5.55,4.72,2.49,6.66,1.48,1.47,3.09,2.3,4.85,2.47,1.76.17,3.61-.22,5.55-1.19,1.94-.97,4.09-2.63,6.45-4.99,2-2,3.43-3.73,4.31-5.21.87-1.48,1.46-2.89,1.75-4.24ZM926.83,1011.72c-1.87.32-3.38-.08-4.51-1.21s-1.54-2.64-1.22-4.5c.32-1.87,2.13-4.45,5.44-7.76,3.31-3.3,6-5.14,8.08-5.52,1.64-.28,3.03.14,4.16,1.28,1.15,1.15,1.57,2.66,1.26,4.52-.32,1.86-2.13,4.45-5.45,7.76-3.3,3.3-5.88,5.11-7.76,5.43Z" fill="#4d4d4d"/><polygon points="437.78 517.79 445.38 525.38 447.87 522.89 440.27 515.3 437.78 517.79" fill="#4d4d4d"/><path d="M464.44,521.47c-1.96-.11-3.96-.53-5.99-1.26l-2.39,2.39c1.05.49,2.35.93,3.88,1.32,1.53.4,2.88.61,4.05.64l-15.76,15.75,2.47,2.47,20.23-20.21-1.59-1.59c-1.3.44-2.93.6-4.89.49Z" fill="#4d4d4d"/><polygon points="399.06 479.11 406.66 486.7 409.14 484.21 401.54 476.62 399.06 479.11" fill="#4d4d4d"/><path d="M410.54,495.23c.87-.02,2.66.08,5.39.32,3.28.27,5.73.36,7.36.27,1.63-.1,2.99-.37,4.1-.82,1.11-.45,2.07-1.08,2.87-1.88,1.59-1.58,2.35-3.47,2.3-5.67-.05-2.2-1.05-4.26-2.98-6.19s-3.94-2.94-6.07-3.08c-2.13-.14-4.23.65-6.3,2.37l2.28,2.8c1.27-1.25,2.63-1.88,4.05-1.88s2.74.59,3.93,1.78c1.13,1.13,1.7,2.38,1.73,3.75.03,1.37-.45,2.55-1.43,3.53s-2.31,1.54-4.13,1.82c-1.82.28-4.72.22-8.71-.17-2.57-.26-4.66-.32-6.29-.19-1.63.13-3.06.48-4.31,1.05-.76.34-1.43.81-2.01,1.43l13.32,13.3,2.38-2.38-9.88-9.87c.72-.17,1.52-.27,2.38-.3Z" fill="#4d4d4d"/><polygon points="358.06 438.15 365.66 445.75 368.15 443.26 360.55 435.67 358.06 438.15" fill="#4d4d4d"/><path d="M382.02,452.36c1.34.49,2.6.62,3.78.37,1.18-.25,2.21-.81,3.08-1.68.92-.92,1.54-2.03,1.86-3.33.33-1.3.26-2.65-.19-4.05-.45-1.4-1.23-2.64-2.33-3.74-1.59-1.59-3.38-2.47-5.37-2.63-1.98-.16-3.96.44-5.92,1.79l2.03,2.91c1.39-1.03,2.71-1.52,3.96-1.48,1.25.04,2.35.54,3.31,1.5.97.97,1.47,2.06,1.48,3.27.02,1.21-.43,2.27-1.33,3.17-1.15,1.14-2.41,1.57-3.81,1.28-1.39-.29-2.62-.97-3.67-2.02-.1-.1-.22-.24-.37-.43l-2.45,1.89c.88.51,1.55,1,2.02,1.47,1.15,1.14,1.72,2.46,1.72,3.93,0,1.48-.56,2.78-1.7,3.92-1.19,1.19-2.59,1.79-4.2,1.79-1.61,0-2.99-.57-4.16-1.74-.98-.98-1.5-2.12-1.57-3.42-.06-1.3.46-2.79,1.58-4.48l-2.8-2.14c-1.51,1.84-2.21,3.87-2.1,6.09.11,2.22,1.06,4.21,2.82,5.98,1.96,1.96,4.19,2.97,6.7,3.03,2.51.06,4.64-.79,6.4-2.55,1.3-1.3,2.05-2.71,2.26-4.24.21-1.52-.15-3.02-1.07-4.48Z" fill="#4d4d4d"/><polygon points="312.4 392.38 320 399.97 322.49 397.48 314.88 389.89 312.4 392.38" fill="#4d4d4d"/><path d="M346.55,398.32l-2.02-2.02-22.25,3.86-2.27,2.27,8.74,8.73-4.82,4.82,2.47,2.47,4.82-4.82,2.72,2.72,2.27-2.27-2.72-2.72,13.06-13.04ZM331.02,408.89l-6.31-6.3,15.39-2.77-9.09,9.08Z" fill="#4d4d4d"/><polygon points="273.01 352.48 280.61 360.07 283.09 357.59 275.49 349.99 273.01 352.48" fill="#4d4d4d"/><path d="M297.06,361.9c-1.33-1.33-3.02-2.17-5.07-2.54l6.5-4.32,8.04,8.03,2.36-2.36-10.02-10.01-12.3,8.39,2.02,2.62c.94-.21,1.92-.18,2.92.1,1,.28,1.9.82,2.7,1.61,1.28,1.28,1.91,2.73,1.89,4.33-.02,1.61-.74,3.11-2.15,4.52-1.48,1.48-3.09,2.26-4.81,2.33-1.72.07-3.18-.49-4.37-1.67-.99-.99-1.52-2.15-1.58-3.49-.06-1.34.44-2.73,1.51-4.19l-2.82-2.38c-1.53,1.86-2.23,3.88-2.1,6.06.13,2.18,1.12,4.19,2.95,6.02,2.24,2.23,4.81,3.18,7.74,2.84,2.39-.27,4.5-1.31,6.32-3.13,1.92-1.91,2.88-4.08,2.89-6.51,0-2.43-.87-4.52-2.63-6.27Z" fill="#4d4d4d"/><polygon points="229.06 309.29 236.66 316.88 239.14 314.4 231.54 306.81 229.06 309.29" fill="#4d4d4d"/><path d="M252.97,319.15c-.94-.94-2.07-1.62-3.37-2.05-1.3-.42-2.7-.48-4.21-.16,2.03-2,3.82-3.31,5.36-3.95,1.54-.64,2.98-.86,4.33-.65,1.04.16,1.95.63,2.74,1.41.98.98,1.45,2.16,1.42,3.53-.04.84-.43,1.86-1.18,3.05l2.65,2.27c1.37-1.77,1.99-3.6,1.86-5.5-.12-1.9-.98-3.64-2.56-5.22-2.13-2.12-4.59-3.04-7.38-2.76-3.21.33-6.76,2.44-10.65,6.33-3.48,3.48-5.33,6.62-5.55,9.44-.22,2.81.71,5.25,2.77,7.31,1.21,1.21,2.58,2,4.11,2.38,1.53.38,3.11.29,4.74-.25,1.63-.54,3.08-1.44,4.34-2.7,1.92-1.92,2.91-4.07,2.97-6.44.05-2.37-.74-4.38-2.39-6.03ZM245.15,331.55c-1.59.09-2.91-.38-3.96-1.43-.71-.71-1.19-1.6-1.44-2.66-.24-1.06-.16-2.16.26-3.3.42-1.14,1.05-2.13,1.9-2.99,1.3-1.3,2.74-1.96,4.32-1.98,1.58-.02,2.93.52,4.05,1.64s1.66,2.46,1.6,4c-.06,1.54-.79,3.01-2.18,4.4s-2.97,2.21-4.56,2.31Z" fill="#4d4d4d"/><polygon points="187.41 267 195.01 274.59 197.5 272.11 189.9 264.52 187.41 267" fill="#4d4d4d"/><polygon points="1029.39 1002.09 1002.49 1029.32 1072 1071.99 1029.39 1002.09" fill="#4d4d4d"/><polygon points="2.98 3.02 45.26 73.13 72.29 46.03 2.98 3.02" fill="#4d4d4d"/><polygon points="982 939.91 979.19 937.1 960.96 955.31 921.55 915.94 939.78 897.74 936.97 894.93 918.74 913.13 879.33 873.77 897.56 855.56 894.74 852.75 876.52 870.96 837.11 831.59 855.34 813.39 852.52 810.57 834.3 828.78 794.89 789.42 813.12 771.21 810.3 768.4 792.07 786.6 752.67 747.24 770.89 729.03 768.08 726.22 749.85 744.43 710.45 705.07 728.67 686.86 725.86 684.05 707.63 702.25 668.23 662.89 686.45 644.68 683.64 641.87 665.41 660.08 626 620.71 644.23 602.51 641.41 599.7 623.19 617.9 583.78 578.54 602.01 560.33 599.19 557.52 580.97 575.73 541.56 536.36 559.79 518.16 556.97 515.34 538.75 533.55 499.34 494.19 517.57 475.98 514.75 473.17 496.52 491.37 457.12 452.01 475.34 433.8 472.53 430.99 454.3 449.2 414.9 409.83 433.12 391.63 430.31 388.82 412.08 407.02 372.67 367.66 390.9 349.45 388.09 346.64 369.86 364.85 330.45 325.48 348.68 307.28 345.86 304.47 327.64 322.67 288.23 283.31 306.46 265.1 303.64 262.29 285.42 280.5 246.01 241.13 264.24 222.93 261.42 220.11 243.2 238.32 203.79 198.96 222.02 180.75 219.2 177.94 200.97 196.14 161.57 156.78 179.79 138.57 176.98 135.76 158.75 153.97 119.35 114.6 137.57 96.4 134.76 93.59 116.53 111.79 61.64 56.96 56.01 62.59 110.9 117.42 92.53 135.76 95.35 138.57 113.72 120.23 153.12 159.59 134.76 177.94 137.57 180.75 155.94 162.4 195.34 201.77 176.98 220.11 179.79 222.93 198.16 204.58 237.57 243.94 219.2 262.29 222.01 265.1 240.38 246.76 279.79 286.12 261.42 304.47 264.24 307.28 282.6 288.93 322.01 328.3 303.64 346.64 306.46 349.45 324.82 331.11 364.23 370.47 345.86 388.82 348.68 391.63 367.05 373.28 406.45 412.65 388.09 430.99 390.9 433.81 409.27 415.46 448.67 454.82 430.31 473.17 433.12 475.98 451.49 457.63 490.89 497 472.53 515.35 475.34 518.16 493.71 499.81 533.12 539.17 514.75 557.52 517.56 560.33 535.93 541.99 575.34 581.35 556.97 599.7 559.79 602.51 578.15 584.16 617.56 623.53 599.19 641.87 602.01 644.68 620.37 626.34 659.78 665.7 641.41 684.05 644.23 686.86 662.6 668.51 702 707.88 683.64 726.22 686.45 729.04 704.82 710.69 744.22 750.05 725.86 768.4 728.67 771.21 747.04 752.86 786.44 792.23 768.08 810.58 770.89 813.39 789.26 795.04 828.67 834.4 810.3 852.75 813.11 855.56 831.48 837.22 870.89 876.58 852.52 894.93 855.34 897.74 873.7 879.39 913.11 918.76 894.74 937.1 897.56 939.91 915.92 921.57 955.33 960.93 936.96 979.28 939.78 982.09 958.15 963.74 1013.03 1018.57 1018.66 1012.95 963.78 958.12 982 939.91" fill="#4d4d4d"/><path d="M514.33,570.99c.29-1.35.24-2.65-.14-3.9-.38-1.25-1.11-2.41-2.19-3.49-1.47-1.46-3.08-2.29-4.83-2.46-1.75-.18-3.6.21-5.55,1.17-1.94.96-4.11,2.63-6.49,5.01-3.78,3.78-5.85,7.17-6.2,10.17-.28,2.5.55,4.72,2.49,6.66,1.48,1.47,3.09,2.3,4.85,2.47,1.76.17,3.61-.22,5.55-1.19,1.94-.97,4.09-2.63,6.45-4.99,2-2,3.43-3.73,4.31-5.21.87-1.48,1.46-2.89,1.75-4.24ZM497.98,583.33c-1.87.32-3.38-.08-4.51-1.21s-1.54-2.64-1.22-4.5c.32-1.87,2.13-4.45,5.44-7.76,3.31-3.3,6-5.14,8.08-5.52,1.64-.28,3.03.14,4.16,1.28s1.57,2.66,1.26,4.52c-.32,1.86-2.13,4.45-5.45,7.76-3.3,3.3-5.88,5.11-7.76,5.43Z" fill="#4d4d4d"/><path d="M548.74,605.67c-1.96-.11-3.96-.53-5.99-1.26l-2.39,2.39c1.05.49,2.35.93,3.88,1.32,1.53.4,2.88.61,4.05.64l-15.76,15.75,2.47,2.47,20.23-20.21-1.59-1.59c-1.3.44-2.93.6-4.89.49Z" fill="#4d4d4d"/><path d="M577.41,661.93c.87-.02,2.66.08,5.39.32,3.28.27,5.73.36,7.36.27,1.63-.1,2.99-.37,4.1-.82,1.11-.45,2.07-1.08,2.87-1.88,1.59-1.58,2.35-3.47,2.3-5.67-.05-2.2-1.05-4.26-2.98-6.19s-3.94-2.94-6.07-3.08c-2.13-.14-4.23.65-6.3,2.37l2.28,2.8c1.27-1.25,2.63-1.88,4.05-1.88,1.43,0,2.74.59,3.93,1.78,1.13,1.13,1.7,2.38,1.73,3.75.03,1.37-.45,2.55-1.43,3.53-.93.93-2.31,1.54-4.13,1.82-1.82.28-4.72.22-8.71-.17-2.57-.26-4.66-.32-6.29-.19-1.63.13-3.06.48-4.31,1.05-.76.34-1.43.81-2.01,1.43l13.32,13.3,2.38-2.38-9.88-9.87c.72-.17,1.52-.27,2.38-.3Z" fill="#4d4d4d"/><path d="M632.21,702.29c1.34.49,2.6.62,3.78.37,1.18-.25,2.21-.81,3.08-1.68.92-.92,1.54-2.03,1.86-3.33.33-1.3.26-2.65-.19-4.05-.45-1.4-1.23-2.64-2.33-3.74-1.59-1.59-3.38-2.47-5.37-2.63-1.98-.16-3.96.44-5.92,1.79l2.03,2.91c1.39-1.03,2.71-1.52,3.96-1.48,1.25.04,2.35.54,3.31,1.5.97.97,1.47,2.06,1.48,3.27.02,1.21-.43,2.27-1.33,3.17-1.15,1.14-2.41,1.57-3.81,1.28-1.39-.29-2.62-.97-3.67-2.02-.1-.1-.22-.24-.37-.43l-2.45,1.89c.88.51,1.55,1,2.02,1.47,1.15,1.14,1.72,2.46,1.72,3.93,0,1.48-.56,2.78-1.7,3.92-1.19,1.19-2.59,1.79-4.2,1.79-1.61,0-2.99-.57-4.16-1.74-.98-.98-1.5-2.12-1.57-3.42-.06-1.3.46-2.79,1.58-4.48l-2.8-2.14c-1.51,1.84-2.21,3.87-2.1,6.09.11,2.22,1.06,4.21,2.82,5.98,1.96,1.96,4.19,2.97,6.7,3.03,2.51.06,4.64-.79,6.4-2.55,1.3-1.3,2.05-2.71,2.26-4.24.21-1.52-.15-3.02-1.07-4.48Z" fill="#4d4d4d"/><path d="M684.22,735.63l-2.02-2.02-22.25,3.86-2.27,2.27,8.74,8.73-4.82,4.82,2.47,2.47,4.82-4.82,2.72,2.72,2.27-2.27-2.72-2.72,13.06-13.04ZM668.69,746.2l-6.31-6.3,15.39-2.77-9.09,9.08Z" fill="#4d4d4d"/><path d="M716.62,781c-1.33-1.33-3.02-2.17-5.07-2.54l6.5-4.32,8.04,8.03,2.36-2.36-10.02-10.01-12.3,8.39,2.02,2.62c.94-.21,1.92-.18,2.92.1,1,.28,1.9.82,2.7,1.61,1.28,1.28,1.91,2.73,1.89,4.33-.02,1.61-.74,3.11-2.15,4.52-1.48,1.48-3.09,2.26-4.81,2.33-1.72.07-3.18-.49-4.37-1.67-.99-.99-1.52-2.15-1.58-3.49-.06-1.34.44-2.73,1.51-4.19l-2.82-2.38c-1.53,1.86-2.23,3.88-2.1,6.06.13,2.18,1.12,4.19,2.95,6.02,2.24,2.23,4.81,3.18,7.74,2.84,2.39-.27,4.5-1.31,6.32-3.13,1.92-1.91,2.88-4.08,2.89-6.51,0-2.43-.87-4.52-2.63-6.27Z" fill="#4d4d4d"/><path d="M758.51,824.14c-.94-.94-2.07-1.62-3.37-2.05-1.3-.42-2.7-.48-4.21-.16,2.03-2,3.82-3.31,5.36-3.95,1.54-.64,2.98-.86,4.33-.65,1.04.16,1.95.63,2.74,1.41.98.98,1.45,2.16,1.42,3.53-.04.84-.43,1.86-1.18,3.05l2.65,2.27c1.37-1.77,1.99-3.6,1.86-5.5-.12-1.9-.98-3.64-2.56-5.22-2.13-2.12-4.59-3.04-7.38-2.76-3.21.33-6.76,2.44-10.65,6.33-3.48,3.48-5.33,6.62-5.55,9.44-.22,2.81.71,5.25,2.77,7.31,1.21,1.21,2.58,2,4.11,2.38,1.53.38,3.11.29,4.74-.25,1.63-.54,3.08-1.44,4.34-2.7,1.92-1.92,2.91-4.07,2.97-6.44.05-2.37-.74-4.38-2.39-6.03ZM750.69,836.54c-1.59.09-2.91-.38-3.96-1.43-.71-.71-1.19-1.6-1.44-2.66-.24-1.06-.16-2.16.26-3.3.42-1.14,1.05-2.13,1.9-2.99,1.3-1.3,2.74-1.96,4.32-1.98,1.58-.02,2.93.52,4.05,1.64,1.13,1.13,1.66,2.46,1.6,4-.06,1.54-.79,3.01-2.18,4.4-1.45,1.45-2.97,2.21-4.56,2.31Z" fill="#4d4d4d"/><path d="M798.91,854.94l9.87,9.86c-2.68.17-5.63.75-8.82,1.72-3.2.97-6.22,2.28-9.06,3.93-2.84,1.65-5.07,3.25-6.68,4.81l2.54,2.54c2.14-1.87,4.31-3.4,6.49-4.59,3.08-1.7,6.38-3.05,9.9-4.06,3.52-1,6.61-1.54,9.26-1.63l1.92-1.92-13.04-13.03-2.38,2.38Z" fill="#4d4d4d"/><path d="M842.85,912.67c1.37.62,2.65.83,3.83.63,1.18-.2,2.24-.77,3.17-1.7,1.47-1.46,2.17-3.24,2.12-5.33-.05-2.09-.96-4.02-2.71-5.77-1.75-1.75-3.65-2.65-5.7-2.7-2.05-.05-3.81.65-5.28,2.11-.97.97-1.56,2.05-1.76,3.24-.2,1.19.02,2.48.67,3.89-1.55-.91-3.1-1.25-4.65-1.03-1.55.22-2.98.98-4.29,2.29-1.76,1.76-2.62,3.83-2.58,6.23.04,2.39,1.06,4.58,3.04,6.57,1.99,1.99,4.18,3,6.57,3.05,2.39.05,4.45-.79,6.17-2.51,1.25-1.24,2-2.64,2.25-4.18.25-1.54-.04-3.13-.87-4.77ZM840.9,902.35c.84-.84,1.88-1.25,3.11-1.24,1.23.02,2.31.5,3.26,1.44s1.41,2.02,1.42,3.27c0,1.24-.44,2.32-1.35,3.23s-1.91,1.3-3.12,1.29c-1.21,0-2.29-.49-3.24-1.44-.98-.98-1.48-2.08-1.48-3.3,0-1.22.46-2.3,1.42-3.25ZM834.86,920.87c-1.53,0-2.89-.6-4.07-1.78-.76-.76-1.29-1.65-1.59-2.67-.3-1.02-.28-2.03.04-3.02.33-.99.84-1.84,1.55-2.55,1.15-1.15,2.5-1.73,4.03-1.74,1.53,0,2.88.57,4.05,1.74s1.79,2.57,1.81,4.14c.01,1.57-.58,2.95-1.77,4.14s-2.52,1.75-4.05,1.74Z" fill="#4d4d4d"/><path d="M893.98,947.28c-.38-1.79-1.23-3.34-2.54-4.65-1.81-1.81-3.95-2.7-6.4-2.66-2.45.04-4.7,1.08-6.74,3.12-1.98,1.98-3,4.15-3.05,6.51-.06,2.36.75,4.37,2.42,6.04,1,1,2.17,1.68,3.52,2.05,1.35.37,2.66.4,3.94.11-.21.23-.37.4-.48.51-1.03,1.03-2.16,1.91-3.39,2.65-1.24.74-2.33,1.22-3.28,1.43-.95.22-1.88.21-2.8-.01-.92-.22-1.76-.72-2.52-1.48-.89-.89-1.37-1.87-1.43-2.94-.06-1.07.36-2.27,1.28-3.58l-2.6-2.16c-1.38,1.78-2.01,3.61-1.89,5.48.12,1.87.97,3.59,2.55,5.17,1.48,1.48,3.18,2.38,5.08,2.68,1.9.31,3.89-.02,5.98-.99,2.08-.97,4.41-2.73,6.99-5.31,2.47-2.47,4.08-4.64,4.82-6.51.74-1.87.92-3.7.54-5.48ZM884.49,955.69c-1.54.06-2.88-.48-4.03-1.62s-1.69-2.49-1.66-4.06c.03-1.57.68-3,1.97-4.28,1.43-1.43,3-2.18,4.71-2.27,1.71-.08,3.12.43,4.22,1.52,1.06,1.06,1.56,2.39,1.48,3.97-.08,1.59-.83,3.09-2.25,4.51-1.42,1.42-2.9,2.16-4.44,2.22Z" fill="#4d4d4d"/><path d="M921.46,977.99c-1.96-.11-3.96-.53-5.99-1.26l-2.39,2.39c1.05.49,2.35.93,3.88,1.32,1.53.4,2.88.61,4.05.64l-15.76,15.75,2.47,2.47,20.23-20.21-1.59-1.59c-1.3.44-2.93.6-4.89.49Z" fill="#4d4d4d"/><path d="M880.57,661.08c-3.85-3.85-8.47-5.77-13.86-5.77-11.55,0-19.25,10.39-23.1,31.18-11.55,44.66-32.34,83.54-62.38,116.65-30.03,33.11-67.38,57.36-112.05,72.76-30.8,10.01-86.63,15.01-167.49,15.01-61.61,0-92.41-.77-92.41-2.31l220.63-359.2c147.85-241.77,221.78-364.2,221.78-367.28,0-5.39-4.62-11.93-13.86-19.63h-289.93c-193.29,0-290.7.77-292.24,2.31-3.08,3.08-5.78,5.39-8.09,6.93-.77,0-1.54,5-2.31,15.01-.77,10.01-2.31,23.1-4.62,39.27s-4.24,31.57-5.78,46.2l-10.4,98.17c8.47,10.78,15.79,16.17,21.95,16.17,3.85,0,6.93-.38,9.24-1.15,3.08-1.54,6.55-8.85,10.4-21.94,3.85-13.09,8.47-26.95,13.86-41.58,5.39-14.63,18.1-31.18,38.12-49.66,20.02-18.48,46.2-33.88,78.55-46.2,39.27-15.4,98.57-23.1,177.89-23.1h53.14l-220.63,359.2c-98.57,158.62-159.79,258.71-183.66,300.29-23.87,41.58-35.81,66.6-35.81,75.07,0,2.31,3.85,7.31,11.55,15.01h321.12c214.08,0,321.89-.77,323.43-2.31l8.09-8.08c2.31-2.31,8.86-42.73,19.64-121.27,10.78-78.54,16.17-120.89,16.17-127.05-.77-4.62-3.08-8.85-6.93-12.7ZM324.96,195.63c-7.7,5.39-15.02,10.78-21.95,16.17-6.93,5.39-11.94,9.62-15.02,12.7-3.08,3.08-5.39,4.62-6.93,4.62s-2.31-1.54-2.31-4.62c.77-2.31,1.54-6.16,2.31-11.55.77-5.39,1.54-9.24,2.31-11.55v-18.48h62.38l-20.79,12.7ZM301.86,890.92c-39.27,0-58.91-.77-58.91-2.31,5.39-7.7,78.16-125.51,218.32-353.42,140.15-227.91,211-343.41,212.54-346.49,1.54-3.85,22.33-5.77,62.38-5.77,36.96,0,55.45.77,55.45,2.31l-214.85,354.58-216.01,351.11h-58.91ZM814.73,890.92h-38.12l-35.81-2.31,20.79-12.7c12.32-8.47,25.8-19.63,40.43-33.49l23.1-23.1c0,6.16-3.47,30.03-10.4,71.61Z" fill="#006837" stroke="#fff" stroke-miterlimit="10" stroke-width="1.89"/><g opacity=".5"><path d="M324.96,195.63l20.79-12.7h-62.38v18.48c-.77,2.31-1.54,6.16-2.31,11.55-.77,5.39-1.54,9.24-2.31,11.55,0,3.08.77,4.62,2.31,4.62s3.85-1.54,6.93-4.62,8.09-7.31,15.02-12.7,14.25-10.78,21.95-16.17Z" fill="#006837" stroke="#006837" stroke-miterlimit="10" stroke-width="1.89"/><path d="M791.63,185.23c0-1.54-18.48-2.31-55.45-2.31-40.04,0-60.84,1.92-62.38,5.77-1.54,3.08-72.39,118.58-212.54,346.49-140.15,227.91-212.93,345.72-218.32,353.42,0,1.54,19.64,2.31,58.91,2.31h58.91l216.01-351.11,214.85-354.58Z" fill="#006837" stroke="#006837" stroke-miterlimit="10" stroke-width="1.89"/><path d="M814.73,890.92c6.93-41.58,10.4-65.45,10.4-71.61l-23.1,23.1c-14.63,13.86-28.11,25.02-40.43,33.49l-20.79,12.7,35.81,2.31h38.12Z" fill="#006837" stroke="#006837" stroke-miterlimit="10" stroke-width="1.89"/></g></g><g id="Layer_3"><path d="M441.29,950.69v83.92h-19.38v-83.92h19.38Z" stroke="#fff" stroke-miterlimit="10" stroke-width="2"/><path d="M456.26,978.5h18.12v6.67c5.54-7.05,12.08-8.18,17.36-8.18,4.91,0,11.32.88,16.11,5.66,5.29,5.28,5.66,11.95,5.66,16.48v35.48h-18.12v-28.81c0-3.65-.13-8.3-3.02-11.2-1.38-1.38-3.65-2.52-6.92-2.52-3.77,0-6.17,1.51-7.55,3.02-3.02,3.02-3.52,7.05-3.52,10.7v28.81h-18.12v-56.12Z" stroke="#fff" stroke-miterlimit="10" stroke-width="2"/><path d="M545.51,993.1v41.52h-18.12v-41.52h-6.29v-14.6h6.29v-18.12h18.12v18.12h11.2v14.6h-11.2Z" stroke="#fff" stroke-miterlimit="10" stroke-width="2"/><path d="M620.63,1009.71h-41.9c0,3.02,1.13,7.05,3.4,9.56,2.77,3.02,6.54,3.52,9.31,3.52s5.41-.5,7.3-1.64c.25-.13,2.39-1.51,3.9-4.66l17.11,1.76c-2.52,7.93-7.55,12.08-10.82,14.09-5.41,3.27-11.45,4.15-17.74,4.15-8.43,0-15.85-1.51-22.4-8.05-4.91-4.91-8.43-12.33-8.43-21.64,0-8.05,2.89-16.36,8.56-22.15,6.79-6.79,15.22-8.05,21.52-8.05s15.35,1.13,22.27,8.43c6.67,7.05,7.93,15.85,7.93,22.77v1.89ZM603.9,998.88c-.13-.5-1.01-4.03-3.65-6.54-2.01-1.89-4.91-3.15-8.56-3.15-4.66,0-7.42,1.89-9.19,3.65-1.38,1.51-2.64,3.52-3.15,6.04h24.54Z" stroke="#fff" stroke-miterlimit="10" stroke-width="2"/><path d="M673.2,978.5h18.12v52.72c0,7.93-.38,16.86-6.92,23.91-6.92,7.42-17.49,8.3-23.65,8.3-7.42,0-16.36-1.13-23.4-7.17-3.52-3.02-7.17-7.8-8.43-14.85h19.75c.75,2.89,2.52,4.53,4.03,5.54,2.14,1.38,5.16,1.89,7.8,1.89,5.16,0,7.8-1.89,9.06-3.02,3.52-3.4,3.65-9.31,3.65-11.7v-6.42c-2.14,3.52-6.42,8.43-16.73,8.43-8.68,0-15.35-2.77-20.51-7.93-4.53-4.66-8.18-11.45-8.18-21.14s3.52-17.49,8.3-22.4c3.4-3.52,9.94-8.05,20.38-8.05s14.72,5.41,16.73,8.43v-6.54ZM650.68,995.99c-2.77,2.64-4.28,7.05-4.28,10.44,0,3.65,1.38,7.42,3.9,10.07,2.52,2.64,5.91,4.03,10.19,4.03,4.78,0,7.93-1.89,9.81-3.65,2.77-2.64,4.4-6.54,4.4-10.7,0-4.4-1.89-8.05-4.28-10.32-2.64-2.39-6.54-3.52-9.81-3.52-4.03,0-7.68,1.51-9.94,3.65Z" stroke="#fff" stroke-miterlimit="10" stroke-width="2"/><path d="M761.48,1009.71h-41.9c0,3.02,1.13,7.05,3.4,9.56,2.77,3.02,6.54,3.52,9.31,3.52s5.41-.5,7.3-1.64c.25-.13,2.39-1.51,3.9-4.66l17.11,1.76c-2.52,7.93-7.55,12.08-10.82,14.09-5.41,3.27-11.45,4.15-17.74,4.15-8.43,0-15.85-1.51-22.4-8.05-4.91-4.91-8.43-12.33-8.43-21.64,0-8.05,2.89-16.36,8.56-22.15,6.79-6.79,15.22-8.05,21.52-8.05s15.35,1.13,22.27,8.43c6.67,7.05,7.93,15.85,7.93,22.77v1.89ZM744.75,998.88c-.13-.5-1.01-4.03-3.65-6.54-2.01-1.89-4.91-3.15-8.56-3.15-4.66,0-7.42,1.89-9.19,3.65-1.38,1.51-2.64,3.52-3.15,6.04h24.54Z" stroke="#fff" stroke-miterlimit="10" stroke-width="2"/><path d="M771.38,978.5h18.12v8.81c1.64-3.15,4.15-6.04,7.05-7.8,3.02-1.89,6.17-2.39,9.69-2.39,2.26,0,3.9.25,5.91.88l-1.01,16.99c-2.39-1.26-5.03-2.01-8.18-2.01-3.9,0-6.79,1.38-9.06,3.77-4.03,4.28-4.4,10.32-4.4,15.1v22.77h-18.12v-56.12Z" stroke="#fff" stroke-miterlimit="10" stroke-width="2"/><path d="M851.77,992.84c-2.77-1.64-6.42-3.15-9.94-3.15-1.89,0-4.03.5-5.16,1.64-.63.63-1.13,1.64-1.13,2.52,0,1.26.88,2.01,1.76,2.52,1.26.75,3.15,1.13,5.41,1.89l4.78,1.51c3.15,1.01,6.42,2.26,9.31,4.91,3.27,3.02,4.4,6.42,4.4,10.7,0,7.42-3.27,12.21-5.79,14.72-5.54,5.54-12.33,6.42-18.24,6.42-7.55,0-15.73-1.64-23.03-8.05l7.68-12.21c1.76,1.51,4.28,3.27,6.17,4.15,2.52,1.26,5.16,1.76,7.55,1.76,1.13,0,4.03,0,5.66-1.26,1.13-.88,1.89-2.26,1.89-3.65,0-1.01-.38-2.27-2.01-3.27-1.26-.75-2.89-1.26-5.54-2.01l-4.53-1.38c-3.27-1.01-6.67-2.77-9.06-5.16-2.64-2.77-4.03-5.91-4.03-10.19,0-5.41,2.14-9.94,5.41-12.96,5.03-4.66,11.83-5.66,16.99-5.66,8.3,0,14.09,2.14,18.62,4.78l-7.17,11.45Z" stroke="#fff" stroke-miterlimit="10" stroke-width="2"/><path d="M266.54,990.43c8.81,1.89,13.71,8.43,13.71,17.99,0,14.85-12.08,25.04-28.56,25.04h-47.06l10.32-83.92h37.62c13.46,0,21.52,3.9,25.67,12.33,1.38,3.02,2.14,6.42,2.14,9.06,0,9.94-5.03,16.73-13.97,18.75l.13.75ZM237.98,999.36l-1.76,14.47h2.01c8.93,0,12.83-2.26,12.83-8.68,0-4.03-2.39-5.79-7.93-5.79h-5.16ZM241.63,969.67l-1.51,12.08h2.64c6.54,0,9.44-1.89,9.44-6.54,0-3.77-2.27-5.54-6.29-5.54h-4.28Z" fill="#c1272d" stroke="#000" stroke-linejoin="round" stroke-width="3.52"/><path d="M323.86,974.7l-7.17,58.76h-29.07l7.17-58.76h29.07ZM328.13,953.19c0,7.93-7.3,14.22-16.86,14.22-8.93,0-15.98-5.91-15.98-13.46s7.68-14.47,16.61-14.47,16.23,6.42,16.23,13.71Z" fill="#c1272d" stroke="#000" stroke-linejoin="round" stroke-width="3.52"/><path d="M403.44,974.7l-6.54,52.97c-1.64,13.84-4.78,20.51-12.21,26.05-7.17,5.54-16.99,8.56-27.81,8.56-8.18,0-18.62-2.01-26.8-5.16-.88-.25-2.14-.75-3.77-1.51l7.8-19.12c7.42,4.53,12.58,6.29,18.87,6.29s11.58-2.77,13.97-7.17c1.38-2.77,1.89-4.53,3.52-12.58l-.88-.25c-3.77,8.18-8.43,11.07-17.11,11.07-13.97,0-24.28-11.83-24.28-27.81,0-18.62,12.71-33.34,28.81-33.34,8.81,0,14.34,3.65,17.36,11.95l.88-.25-.25-3.4-.12-4.28-.13-2.01h28.69ZM372.24,1004.27c0-4.78-2.89-8.3-6.92-8.3-4.66,0-8.43,4.15-8.43,9.18,0,4.66,3.02,7.8,7.17,7.8,4.78,0,8.18-3.65,8.18-8.68Z" fill="#c1272d" stroke="#000" stroke-linejoin="round" stroke-width="3.52"/><path d="M275.01,34.82c10,0,15.12,2.61,18.49,5.44,5.55,4.68,7.18,10.87,7.18,16.31,0,7.07-2.83,13.27-8.48,17.07-1.85,1.31-4.46,2.5-7.94,3.15l22.62,30.56h-17.62l-19.36-29.15h-1.74v29.15h-14.14V34.82h20.99ZM268.16,68.2h4.02c2.72,0,13.92-.33,13.92-10.98s-11.09-10.88-13.7-10.88h-4.24v21.86Z" fill="#c1272d"/><path d="M324.48,60.26v26.64c0,2.5.22,5.87,2.83,8.27,1.63,1.41,4.24,2.39,6.74,2.39s5.11-.98,6.74-2.39c2.61-2.39,2.83-5.76,2.83-8.27v-26.64h13.27v28.82c0,4.24-.54,9.9-5.76,14.46-4.35,3.81-11.31,5.33-17.07,5.33s-12.72-1.52-17.07-5.33c-5.22-4.57-5.76-10.22-5.76-14.46v-28.82h13.27Z" fill="#c1272d"/><path d="M403.67,28.07h13.27v79.28h-13.27v-6.09c-4.78,6.85-11.09,7.61-14.46,7.61-14.46,0-24.03-11.31-24.03-25.12s9.46-25.01,23.38-25.01c3.59,0,10.66.65,15.12,7.61V28.07ZM378.87,83.75c0,7.5,5.44,13.38,13.05,13.38s13.05-5.87,13.05-13.38-5.44-13.27-13.05-13.27-13.05,5.76-13.05,13.27Z" fill="#c1272d"/><path d="M444.79,100.28l-22.4-40.02h15.44l14.57,26.75,13.05-26.75h15.01l-37.95,71.99h-15.01l17.29-31.97Z" fill="#c1272d"/><path d="M521.67,34.82l19.36,48.72,19.36-48.72h15.44l-30.67,72.54h-8.48l-30.45-72.54h15.44Z" fill="#c1272d"/><path d="M619.8,94.19c-1.41,3.48-6.74,14.68-23.16,14.68-7.61,0-13.38-2.17-18.05-6.63-5.22-4.89-7.39-10.98-7.39-18.38,0-9.35,3.81-15.12,7.18-18.49,5.55-5.44,12.07-6.63,17.73-6.63,9.57,0,15.12,3.81,18.38,7.72,5,5.98,5.66,13.38,5.66,18.49v1.09h-35.24c0,2.83.76,5.87,2.28,7.94,1.41,1.96,4.35,4.46,9.46,4.46s8.81-2.39,10.98-6.2l12.18,1.96ZM607.62,77.56c-1.09-6.42-6.31-9.46-11.2-9.46s-10,3.15-11.09,9.46h22.29Z" fill="#c1272d"/><path d="M642.34,28.07v79.28h-13.27V28.07h13.27Z" fill="#c1272d"/><path d="M667.86,71.57v35.78h-13.27v-35.78h-5.22v-11.31h5.22v-16.1h13.27v16.1h9.13v11.31h-9.13Z" fill="#c1272d"/><path d="M682.53,28.07h13.27v38.28c2.5-3.48,6.96-7.61,14.57-7.61,4.13,0,10.22,1.2,13.92,5.76,3.26,4.02,3.7,8.7,3.7,13.27v29.58h-13.27v-25.67c0-2.61-.11-6.74-2.5-9.24-2.07-2.17-4.89-2.39-6.2-2.39-3.48,0-6.2,1.2-8.16,4.13-1.96,3.04-2.07,6.42-2.07,9.13v24.03h-13.27V28.07Z" fill="#c1272d"/><path d="M751.96,60.26v26.64c0,2.5.22,5.87,2.83,8.27,1.63,1.41,4.24,2.39,6.74,2.39s5.11-.98,6.74-2.39c2.61-2.39,2.83-5.76,2.83-8.27v-26.64h13.27v28.82c0,4.24-.54,9.9-5.76,14.46-4.35,3.81-11.31,5.33-17.07,5.33s-12.72-1.52-17.07-5.33c-5.22-4.57-5.76-10.22-5.76-14.46v-28.82h13.27Z" fill="#c1272d"/><path d="M801.63,32.42c4.35,0,7.94,3.59,7.94,7.94s-3.59,7.94-7.94,7.94-7.94-3.59-7.94-7.94,3.59-7.94,7.94-7.94ZM808.27,60.26v47.09h-13.27v-47.09h13.27Z" fill="#c1272d"/><path d="M844.13,71.47c-3.15-2.94-6.31-3.15-7.72-3.15-3.15,0-5.11,1.52-5.11,3.81,0,1.2.54,3.04,4.24,4.24l3.15.98c3.7,1.2,9.24,3.04,11.96,6.74,1.41,1.96,2.39,4.79,2.39,7.83,0,4.24-1.41,8.48-5.22,11.96-3.81,3.48-8.37,5-14.14,5-9.79,0-15.33-4.68-18.27-7.83l6.96-8.05c2.61,3.04,6.52,5.44,10.44,5.44,3.7,0,6.53-1.85,6.53-5.11,0-2.94-2.39-4.13-4.13-4.78l-3.04-1.09c-3.37-1.2-7.29-2.72-10.11-5.65-2.17-2.28-3.59-5.22-3.59-9.03,0-4.57,2.17-8.37,4.89-10.66,3.7-2.94,8.48-3.37,12.29-3.37,3.48,0,9.03.44,15.01,5l-6.52,7.72Z" fill="#c1272d"/><path d="M869.5,33.4l12.18,1.41-15.33,28.82-8.37-.98,11.53-29.25Z" fill="#c1272d"/></g></svg>