<?xml version="1.0" encoding="UTF-8"?><svg xmlns="http://www.w3.org/2000/svg" viewBox="0 0 1087.25 1088.78"><g id="Layer_4"><path d="M369.34,193.03l-102.74,102.74-20.84-20.83,102.74-102.74c5.73-5.73,15.04-5.74,20.79-.05.02.02.03.03.05.05,5.74,5.74,5.74,15.09,0,20.83Z" fill="#f1f2f2"/><path d="M411.82,214.68c5.74,5.74,5.74,15.08,0,20.82l-102.74,102.74-20.83-20.83,102.74-102.74c5.74-5.75,15.09-5.75,20.83,0Z" fill="#f1f2f2"/><path d="M304.82,426.33c-20.78-11.3-39.79-25.51-56.5-42.23L56.09,191.88c-4.13-4.13-6.4-9.6-6.4-15.44v-.03c0-5.77,2.24-11.22,6.29-15.33h0c3.96-4,9.37-6.22,15.25-6.25,6.09-.02,12,2.4,16.21,6.61l190.24,190.24c5.53,5.53,11.39,10.84,17.42,15.79,0,0,.02.02.03.02,1.75,1.44,3.4,2.76,5.04,4.03,10.21,7.92,21.14,15.07,32.5,21.25l132.65,72.13c10.82,5.88,20.81,13.16,29.72,21.63l523.2,497.56s.05.05.08.08c.22.21.44.43.67.66,15.83,15.83,15.82,41.61-.02,57.45-7.82,7.82-18.2,12.04-29.24,11.9-11.05-.14-21.33-4.62-28.94-12.62l-490.79-516.08c-12.18-12.81-26.24-23.58-41.76-32.02l-123.42-67.11Z" fill="#f1f2f2"/><path d="M256.11,221.28l-32,32-20.83-20.84,102.74-102.74c5.74-5.74,15.08-5.74,20.83,0,2.78,2.79,4.32,6.48,4.32,10.42s-1.54,7.63-4.32,10.41l-70.74,70.74Z" fill="#f1f2f2"/><path d="M241.88,65.57l-102.74,102.74-20.83-20.83,102.74-102.74c2.79-2.79,6.48-4.32,10.42-4.32,3.93,0,7.63,1.53,10.41,4.32h0c2.78,2.78,4.31,6.48,4.31,10.41s-1.53,7.63-4.31,10.42Z" fill="#f1f2f2"/><path d="M284.36,108.06l-68.49,68.49-34.25,34.25-20.83-20.84,102.74-102.74c5.73-5.73,15.04-5.74,20.78-.04l.05.05c2.79,2.78,4.32,6.48,4.32,10.41s-1.53,7.63-4.32,10.42Z" fill="#f1f2f2"/><path d="M199.39,23.08l-105.94,105.94c-6.95-3.15-14.58-4.84-22.32-4.82-14.09.05-27.21,5.5-36.94,15.35-9.76,9.88-15.13,22.97-15.13,36.83v.06c0,14,5.46,27.17,15.36,37.08l192.23,192.23c18.79,18.79,40.17,34.76,63.52,47.47l123.42,67.11c12.72,6.92,24.23,15.75,34.2,26.24l490.79,516.07c13.35,14.04,31.37,21.9,50.74,22.15,19.38.24,37.59-7.17,51.28-20.86,13.89-13.9,20.85-32.14,20.85-50.4,0-18.24-6.94-36.48-20.82-50.36-.44-.44-.89-.88-1.34-1.31l-523.16-497.52c-10.84-10.32-23.02-19.18-36.19-26.35l-132.65-72.13c-4.81-2.61-9.52-5.43-14.12-8.42l100.29-100.29c8.83-8.84,13.26-20.46,13.26-32.07,0-11.61-4.42-23.23-13.26-32.07-8.15-8.15-18.64-12.52-29.32-13.17-.64-10.65-5-21.11-13.09-29.24-.02-.03-.05-.05-.08-.08-8.14-8.13-18.62-12.52-29.29-13.17-.66-11.08-5.28-21.4-13.2-29.31-4.07-4.07-8.73-7.2-13.7-9.4-4.98-2.2-10.27-3.45-15.61-3.77-.64-10.64-5-21.11-13.1-29.24-.02-.03-.05-.05-.08-.08-8.14-8.15-18.63-12.52-29.31-13.17-.64-10.68-5.02-21.17-13.17-29.32-4.28-4.28-9.27-7.6-14.71-9.85-5.44-2.25-11.31-3.43-17.36-3.43-12.12,0-23.5,4.72-32.07,13.28ZM295.1,367.47s.02.02.03.02c1.75,1.44,3.4,2.76,5.04,4.03,10.21,7.92,21.14,15.07,32.5,21.25l132.65,72.13c10.82,5.88,20.82,13.16,29.72,21.63l523.2,497.56s.05.05.08.08c.22.21.44.43.67.66,15.83,15.83,15.82,41.61-.02,57.45-7.82,7.82-18.2,12.04-29.24,11.9-11.05-.14-21.33-4.62-28.95-12.62l-490.79-516.08c-12.18-12.81-26.24-23.58-41.76-32.02l-123.42-67.11c-20.78-11.3-39.79-25.51-56.5-42.23L56.09,191.88c-4.13-4.13-6.4-9.6-6.4-15.44v-.03c0-5.77,2.24-11.22,6.29-15.33h0c3.96-4,9.37-6.22,15.25-6.25,6.09-.02,12,2.4,16.21,6.61l190.24,190.24c5.53,5.53,11.39,10.84,17.42,15.79ZM411.82,214.68c5.74,5.74,5.74,15.08,0,20.82l-102.74,102.74-20.83-20.83,102.74-102.74c5.74-5.75,15.09-5.75,20.83,0ZM369.29,172.15s.03.03.05.05c5.74,5.74,5.74,15.09,0,20.83l-102.74,102.74-20.84-20.83,102.74-102.74c5.73-5.73,15.04-5.74,20.79-.05ZM326.85,129.71c2.78,2.79,4.32,6.48,4.32,10.42,0,3.93-1.54,7.63-4.32,10.41l-70.74,70.74-32,32-20.83-20.84,102.74-102.74c5.74-5.74,15.08-5.74,20.83,0ZM284.32,87.18l.05.05c2.79,2.78,4.32,6.48,4.32,10.41s-1.53,7.63-4.32,10.42l-68.49,68.49-34.25,34.25-20.83-20.84,102.74-102.74c5.73-5.73,15.04-5.74,20.78-.04ZM241.87,44.74h0c2.78,2.78,4.31,6.48,4.31,10.41,0,3.93-1.53,7.63-4.31,10.42l-102.74,102.74-20.83-20.83,102.74-102.74c2.79-2.79,6.48-4.32,10.42-4.32,3.93,0,7.63,1.53,10.41,4.32Z" fill="#034872"/><path d="M411.82,214.68c5.74,5.74,5.74,15.08,0,20.82l-102.74,102.74-20.83-20.83,102.74-102.74c5.74-5.75,15.09-5.75,20.83,0Z" fill="#7fbfae"/><path d="M326.85,129.71c2.78,2.79,4.32,6.48,4.32,10.42,0,3.93-1.54,7.63-4.32,10.41l-70.74,70.74-32,32-20.83-20.84,102.74-102.74c5.74-5.74,15.08-5.74,20.83,0Z" fill="#7fbfae"/><path d="M231.46,40.42c3.93,0,7.63,1.53,10.41,4.32h0c2.78,2.78,4.31,6.48,4.31,10.41,0,3.93-1.53,7.63-4.31,10.42l-102.74,102.74-20.83-20.83,102.74-102.74c2.79-2.79,6.48-4.32,10.42-4.32Z" fill="#7fbfae"/></g><g id="Layer_1"><path d="M68.42,169.35l-3.88-3.88,14.99-14.97c-.67-.11-1.37-.26-2.11-.45-1.59-.41-2.95-.88-4.05-1.38l-1.3-.6,3.85-3.84.59.21c1.93.7,3.86,1.1,5.71,1.21h0c1.82.1,3.35-.05,4.52-.44l.59-.2,2.73,2.73-21.64,21.61ZM67.35,165.47l1.07,1.07,18.83-18.8-.47-.47c-1.31.34-2.87.46-4.66.37h0c-1.85-.1-3.76-.48-5.67-1.11l-.89.89c.71.25,1.5.49,2.37.72,1.45.38,2.74.58,3.82.61l2.32.05-16.7,16.69Z" fill="#fff"/><path d="M86.63,184.68c-.3,0-.6-.01-.9-.04-1.99-.2-3.82-1.12-5.46-2.76-2.16-2.16-3.09-4.67-2.77-7.47.38-3.26,2.5-6.78,6.48-10.76,2.45-2.45,4.72-4.2,6.75-5.2,2.1-1.04,4.15-1.47,6.09-1.27,1.98.2,3.81,1.13,5.43,2.75,1.19,1.19,2.01,2.51,2.44,3.91.43,1.41.48,2.89.16,4.4-.31,1.45-.94,2.98-1.86,4.54-.91,1.54-2.41,3.36-4.46,5.41-2.43,2.43-4.69,4.17-6.71,5.18-1.78.88-3.52,1.33-5.19,1.33ZM95.9,159.11c-1.35,0-2.79.37-4.28,1.11-1.84.91-3.93,2.53-6.23,4.82-3.6,3.6-5.59,6.83-5.91,9.59-.25,2.2.47,4.11,2.2,5.84,1.32,1.32,2.71,2.03,4.25,2.18,1.56.15,3.25-.21,5-1.09,1.83-.91,3.92-2.53,6.19-4.8,1.93-1.93,3.33-3.61,4.16-5.01.82-1.38,1.36-2.71,1.63-3.94.25-1.18.21-2.32-.12-3.4-.33-1.09-.98-2.12-1.94-3.08-1.31-1.31-2.69-2.02-4.23-2.18-.24-.02-.48-.04-.72-.04ZM86.32,181.46c-1.59,0-2.94-.54-4.01-1.61-1.37-1.37-1.88-3.18-1.5-5.37.36-2.09,2.23-4.81,5.72-8.29,3.49-3.48,6.3-5.38,8.61-5.79,1.98-.34,3.67.18,5.04,1.55,1.39,1.39,1.91,3.2,1.53,5.39-.35,2.09-2.23,4.81-5.73,8.3-3.48,3.48-6.19,5.34-8.29,5.71-.48.08-.94.12-1.38.12ZM96.26,162.28c-.25,0-.51.02-.78.07-1.86.34-4.4,2.1-7.55,5.24-3.92,3.91-4.97,6.09-5.17,7.22-.27,1.54.04,2.73.95,3.63s2.09,1.21,3.64.94c1.14-.2,3.32-1.25,7.23-5.15,3.93-3.92,4.98-6.1,5.17-7.23.26-1.54-.06-2.74-.98-3.66-.72-.72-1.55-1.07-2.52-1.07Z" fill="#fff"/><path d="M63.1,151.95l-9.01-9,3.89-3.89,9.01,9-3.89,3.89ZM56.9,142.96l6.19,6.19,1.08-1.08-6.19-6.19-1.08,1.08Z" fill="#fff"/><path d="M121.08,218.58c-.52,0-1.03-.04-1.54-.12-2.1-.34-3.99-1.34-5.62-2.96-1.74-1.74-2.7-3.7-2.84-5.81-.14-2.11.57-4.18,2.1-6.16l.63-.81,4.09,3.4-.52.75c-.78,1.12-1.15,2.12-1.1,2.96.05.83.42,1.58,1.14,2.29.64.63,1.31,1.03,2.05,1.21.78.19,1.54.19,2.35.01.84-.19,1.85-.63,2.99-1.32.59-.35,1.16-.74,1.7-1.17-.5-.05-1.01-.15-1.52-.29-1.51-.41-2.84-1.19-3.96-2.3-1.86-1.86-2.77-4.13-2.71-6.77.06-2.61,1.18-5.03,3.34-7.19,2.22-2.22,4.72-3.37,7.43-3.41,2.71-.05,5.11.95,7.12,2.95,1.44,1.44,2.39,3.17,2.81,5.14.42,1.98.22,4.01-.59,6.06-.8,2.01-2.45,4.25-5.05,6.84-2.65,2.64-5.09,4.49-7.27,5.51-1.71.79-3.39,1.19-5.02,1.19ZM114.16,205.59c-.82,1.31-1.18,2.62-1.09,3.97.11,1.64.85,3.12,2.26,4.53,1.35,1.34,2.83,2.13,4.53,2.41,1.69.27,3.51-.03,5.4-.91,1.97-.91,4.22-2.63,6.7-5.11s3.92-4.44,4.6-6.17c.67-1.7.84-3.3.49-4.91-.34-1.61-1.08-2.97-2.27-4.15-1.63-1.63-3.47-2.41-5.68-2.37-2.2.04-4.18.96-6.06,2.83-1.81,1.81-2.71,3.71-2.76,5.83-.05,2.1.65,3.84,2.13,5.32.88.88,1.89,1.47,3.08,1.79,1.18.32,2.35.36,3.46.1l3.13-.71-2.17,2.36c-.22.24-.39.42-.51.54-1.08,1.08-2.29,2.02-3.59,2.8-1.32.79-2.52,1.31-3.57,1.55-1.1.25-2.19.24-3.26-.02-1.1-.27-2.1-.85-2.99-1.74-1.06-1.06-1.64-2.27-1.72-3.58-.06-1.07.26-2.22.96-3.44l-1.09-.91ZM128.3,208.59c-1.7,0-3.21-.64-4.49-1.92s-1.99-2.94-1.95-4.78c.03-1.83.79-3.5,2.26-4.97,1.6-1.6,3.41-2.46,5.37-2.56,1.99-.09,3.67.51,4.97,1.81,1.26,1.26,1.86,2.85,1.77,4.73-.09,1.83-.94,3.57-2.54,5.16-1.6,1.59-3.31,2.44-5.1,2.51h0c-.1,0-.19,0-.29,0ZM129.89,196.35c-.1,0-.2,0-.31,0-1.47.07-2.8.72-4.06,1.98-1.1,1.1-1.65,2.28-1.67,3.6-.02,1.31.43,2.4,1.37,3.34.95.95,2.02,1.38,3.28,1.33h0c1.27-.05,2.55-.7,3.78-1.93,1.25-1.25,1.89-2.51,1.96-3.86.06-1.31-.32-2.36-1.19-3.22-.83-.83-1.87-1.24-3.16-1.24Z" fill="#fff"/><path d="M112.93,201.74l-9.01-9,3.89-3.89,9.01,9-3.89,3.89ZM106.74,192.74l6.19,6.19,1.08-1.08-6.19-6.19-1.08,1.08Z" fill="#fff"/><path d="M164.42,261.83c-.07,0-.14,0-.2,0-2.65-.05-5.09-1.17-7.25-3.34-2.17-2.16-3.29-4.61-3.34-7.25-.05-2.66.92-5,2.87-6.95,1.46-1.46,3.09-2.32,4.85-2.57,1.05-.15,2.11-.07,3.16.23-.14-.78-.15-1.54-.03-2.27.24-1.39.92-2.66,2.04-3.78,1.66-1.66,3.69-2.47,6.01-2.41,2.31.06,4.45,1.07,6.38,2.99s2.95,4.11,3.01,6.45c.06,2.36-.76,4.4-2.41,6.06-1.08,1.08-2.33,1.74-3.71,1.98-.75.13-1.53.12-2.33-.03.3,1.13.36,2.26.18,3.35-.29,1.75-1.14,3.33-2.53,4.72-1.86,1.86-4.11,2.81-6.69,2.81ZM162.4,243.62c-.26,0-.52.02-.78.06-1.34.19-2.56.85-3.72,2.01-1.57,1.57-2.32,3.37-2.29,5.51.04,2.15.94,4.07,2.75,5.88,1.82,1.81,3.74,2.72,5.89,2.76,2.13.05,3.91-.69,5.45-2.22,1.1-1.1,1.75-2.29,1.97-3.64.22-1.34-.04-2.7-.78-4.16l-1.28-2.52,2.58,1.17c1.18.54,2.28.72,3.26.56.98-.17,1.85-.63,2.64-1.43,1.28-1.28,1.88-2.78,1.83-4.61-.04-1.84-.84-3.51-2.42-5.09-1.58-1.58-3.22-2.37-5.03-2.41-1.77-.04-3.27.55-4.55,1.82-.83.83-1.31,1.71-1.48,2.7-.17.98.03,2.09.59,3.3l1.34,2.88-2.74-1.6c-1.1-.64-2.16-.96-3.23-.96ZM163.83,258.56h-.04c-1.79-.01-3.4-.71-4.77-2.08-.88-.88-1.5-1.92-1.84-3.09-.35-1.21-.34-2.42.05-3.61.37-1.14.97-2.13,1.79-2.94,1.34-1.34,2.93-2.02,4.73-2.03h.02c1.79,0,3.39.68,4.73,2.03s2.08,3,2.1,4.83c.02,1.84-.68,3.47-2.06,4.85-1.35,1.35-2.94,2.03-4.72,2.03ZM163.78,246.8h-.01c-1.27,0-2.36.48-3.33,1.45-.6.6-1.03,1.3-1.3,2.15-.26.81-.27,1.6-.03,2.43.25.87.69,1.6,1.34,2.25,1,1,2.1,1.49,3.37,1.49h0c1.25,0,2.36-.47,3.35-1.45,1-1,1.49-2.12,1.47-3.43-.01-1.31-.51-2.44-1.52-3.45s-2.06-1.45-3.33-1.45ZM173.18,248.03h-.05c-1.47-.01-2.8-.59-3.94-1.73-1.17-1.17-1.76-2.51-1.78-3.99-.01-1.49.56-2.82,1.71-3.96,1.04-1.04,2.35-1.55,3.82-1.53,1.49.02,2.82.61,3.95,1.73s1.7,2.45,1.71,3.96c.01,1.52-.54,2.84-1.64,3.94-1.05,1.05-2.32,1.58-3.78,1.58ZM172.86,238.8c-.93,0-1.69.31-2.32.94-.76.76-1.13,1.59-1.12,2.54,0,.95.4,1.81,1.19,2.6.77.77,1.6,1.14,2.55,1.15h.03c.93,0,1.71-.33,2.38-1,.72-.72,1.06-1.54,1.06-2.52,0-.98-.37-1.82-1.12-2.57-.76-.76-1.6-1.14-2.57-1.15-.02,0-.04,0-.06,0Z" fill="#fff"/><path d="M155.4,244.16l-9.01-9,3.89-3.89,9.01,9-3.89,3.89ZM149.2,235.16l6.19,6.19,1.08-1.08-6.19-6.19-1.08,1.08Z" fill="#fff"/><path d="M199.25,299.36l-3.92-3.91.73-.7c1.66-1.6,3.98-3.27,6.87-4.95,2.89-1.68,6.01-3.03,9.27-4.02,2.44-.74,4.76-1.26,6.93-1.55l-9.09-9.08,3.78-3.78,14.45,14.43-2.91,2.9h-.39c-2.55.09-5.59.63-9.02,1.6-3.44.98-6.7,2.31-9.69,3.97-2.11,1.15-4.24,2.65-6.32,4.47l-.7.61ZM198.2,295.49l1.16,1.16c1.96-1.64,3.96-3.02,5.96-4.11,3.12-1.73,6.53-3.12,10.11-4.14,3.41-.97,6.47-1.52,9.1-1.65l.95-.94-11.64-11.62-.97.97,10.72,10.71-2.19.14c-2.59.17-5.49.73-8.6,1.68-3.11.94-6.09,2.23-8.85,3.83-2.34,1.36-4.27,2.69-5.74,3.98Z" fill="#fff"/><path d="M197.78,285.8l-9.01-9,3.89-3.89,9.01,9-3.89,3.89ZM191.58,276.8l6.19,6.19,1.08-1.08-6.19-6.19-1.08,1.08Z" fill="#fff"/><path d="M247.98,345.59c-.72,0-1.44-.09-2.14-.26-1.7-.42-3.24-1.3-4.58-2.64-2.27-2.26-3.3-4.99-3.06-8.09.24-3.09,2.14-6.38,5.83-10.07,4.04-4.04,7.83-6.26,11.25-6.61,3.1-.31,5.85.71,8.19,3.04,1.75,1.75,2.71,3.72,2.85,5.86.14,2.14-.56,4.22-2.07,6.17l-.64.83-4.1-3.5.46-.73c.64-1.02,1-1.91,1.03-2.56.03-1.08-.34-2-1.13-2.78-.64-.64-1.35-1.01-2.18-1.13-1.16-.18-2.44.01-3.8.58-.89.37-1.89,1-2.98,1.89.6.06,1.19.18,1.75.37,1.45.47,2.71,1.24,3.76,2.29,1.84,1.84,2.74,4.11,2.68,6.75-.06,2.62-1.16,5.02-3.26,7.12-1.37,1.37-2.96,2.36-4.73,2.95-1.06.35-2.11.53-3.15.53ZM256.38,319.86c-.29,0-.58.02-.88.05-2.96.3-6.34,2.34-10.05,6.04-3.29,3.29-5.06,6.25-5.26,8.81-.19,2.53.62,4.67,2.48,6.53,1.07,1.07,2.3,1.78,3.64,2.11,1.36.33,2.73.26,4.19-.23,1.48-.49,2.81-1.32,3.95-2.46,1.75-1.75,2.63-3.63,2.68-5.76.05-2.11-.64-3.84-2.1-5.3-.83-.83-1.83-1.43-2.97-1.8-1.13-.37-2.37-.41-3.7-.14l-3.31.69,2.41-2.37c2.15-2.1,4-3.47,5.67-4.16,1.7-.71,3.34-.95,4.87-.71,1.24.19,2.35.76,3.28,1.69,1.18,1.17,1.75,2.61,1.71,4.26-.04.85-.33,1.77-.9,2.81l1.18,1.01c.8-1.3,1.15-2.6,1.06-3.97-.11-1.67-.85-3.17-2.27-4.59-1.69-1.69-3.56-2.52-5.7-2.52ZM247.54,342.35c-1.69,0-3.13-.58-4.28-1.73-.85-.84-1.42-1.9-1.7-3.14-.29-1.24-.19-2.54.3-3.86.46-1.27,1.18-2.4,2.13-3.35,1.48-1.48,3.17-2.25,5.01-2.27,1.86-.03,3.46.62,4.77,1.93,1.33,1.32,1.96,2.92,1.89,4.74-.07,1.79-.9,3.5-2.47,5.06-1.62,1.62-3.37,2.49-5.21,2.6-.15,0-.3.01-.44.01ZM249.11,329.99s-.05,0-.08,0c-1.32.02-2.51.57-3.63,1.69-.75.74-1.31,1.63-1.67,2.62-.35.96-.43,1.86-.23,2.73.2.88.58,1.59,1.17,2.18.84.84,1.89,1.22,3.2,1.14,1.35-.08,2.64-.74,3.92-2.02,1.22-1.22,1.84-2.44,1.89-3.74.05-1.26-.38-2.33-1.31-3.26-.91-.91-1.97-1.35-3.25-1.35Z" fill="#fff"/><path d="M239.42,328.09l-9.01-9,3.89-3.89,9.01,9-3.89,3.89ZM233.23,319.09l6.19,6.19,1.08-1.08-6.19-6.19-1.08,1.08Z" fill="#fff"/><path d="M292.1,388.67c-2.72,0-5.17-1.07-7.3-3.2-2-2-3.09-4.24-3.24-6.66-.15-2.43.63-4.7,2.32-6.75l.64-.78,4.3,3.62-.55.75c-.93,1.26-1.37,2.45-1.32,3.55.05,1.09.47,2.02,1.29,2.83.99.99,2.18,1.45,3.63,1.38,1.48-.06,2.84-.73,4.15-2.04,1.23-1.23,1.84-2.49,1.86-3.84.02-1.34-.5-2.52-1.6-3.61-.68-.68-1.42-1.12-2.26-1.36-.85-.24-1.65-.27-2.44-.09l-.62.14-3.05-3.96,13.85-9.45,11.31,11.29-3.77,3.77-8.17-8.16-4.02,2.67c1.31.51,2.45,1.25,3.42,2.21h0c1.95,1.94,2.93,4.29,2.92,6.98-.01,2.69-1.08,5.11-3.18,7.21-1.98,1.98-4.31,3.13-6.92,3.42-.42.05-.84.07-1.25.07ZM284.82,374.13c-.95,1.43-1.37,2.93-1.27,4.56.12,1.95.99,3.71,2.66,5.38,2.03,2.03,4.29,2.86,6.92,2.56,2.19-.24,4.06-1.17,5.73-2.85s2.59-3.64,2.6-5.81c0-2.17-.76-3.99-2.33-5.57h0c-1.19-1.19-2.68-1.93-4.54-2.26l-2.44-.43,9.24-6.15,7.91,7.9.96-.96-8.73-8.72-10.75,7.33,1.01,1.32c.9-.11,1.83-.03,2.76.23,1.17.32,2.22.95,3.14,1.87,1.47,1.47,2.21,3.17,2.18,5.05-.03,1.87-.85,3.62-2.44,5.21s-3.5,2.54-5.47,2.62c-2,.09-3.73-.58-5.12-1.97-1.17-1.16-1.79-2.56-1.87-4.14-.06-1.32.33-2.68,1.18-4.05l-1.33-1.12Z" fill="#fff"/><path d="M283.37,371.28l-9.01-9,3.89-3.89,9.01,9-3.89,3.89ZM277.18,362.28l6.19,6.19,1.08-1.08-6.19-6.19-1.08,1.08Z" fill="#fff"/><path d="M329.17,429.66l-3.88-3.88,4.82-4.82-8.74-8.73,3.19-3.19,23.07-4,3.09,3.09-13.06,13.04,2.72,2.72-3.67,3.67-2.72-2.72-4.82,4.82ZM328.1,425.78l1.07,1.07,4.82-4.82,2.72,2.72.86-.86-2.72-2.72,13.06-13.04-.95-.95-21.43,3.72-1.34,1.34,8.74,8.73-4.82,4.82ZM333.79,420.1l-8.36-8.35,20.39-3.67-12.03,12.02ZM329.53,413.03l4.26,4.26,6.14-6.13-10.4,1.87Z" fill="#fff"/><path d="M322.76,411.18l-9.01-9,3.89-3.89,9.01,9-3.89,3.89ZM316.57,402.18l6.19,6.19,1.08-1.08-6.19-6.19-1.08,1.08Z" fill="#fff"/><path d="M377.43,474.43c-.09,0-.18,0-.27,0-2.76-.07-5.24-1.18-7.38-3.32-1.94-1.94-2.99-4.17-3.11-6.63-.13-2.46.65-4.74,2.32-6.77l.61-.74,4.31,3.29-.51.77c-.99,1.5-1.47,2.8-1.42,3.88.05,1.05.47,1.96,1.28,2.76.97.97,2.1,1.45,3.43,1.45h.02c1.35,0,2.49-.49,3.5-1.5.95-.95,1.41-2,1.41-3.21,0-1.22-.47-2.27-1.43-3.23-.41-.4-1.02-.85-1.82-1.31l-1.27-.74,4.39-3.4.61.76c.12.15.22.26.3.34.92.92,1.96,1.49,3.17,1.75,1.07.22,1.99-.1,2.9-1.01.72-.71,1.06-1.52,1.04-2.45-.01-.95-.4-1.79-1.19-2.58-.78-.78-1.65-1.18-2.64-1.21-1.01-.03-2.14.4-3.34,1.29l-.82.6-3.19-4.56.82-.57c2.15-1.48,4.35-2.14,6.56-1.96,2.22.18,4.23,1.16,5.99,2.92,1.21,1.2,2.07,2.6,2.57,4.14.51,1.57.58,3.12.21,4.6-.37,1.48-1.08,2.75-2.12,3.79-1.01,1-2.21,1.66-3.58,1.95-.71.15-1.45.18-2.21.1.33,1.04.43,2.1.28,3.17-.24,1.74-1.09,3.35-2.54,4.8-1.89,1.89-4.19,2.84-6.86,2.84ZM369.96,459.74c-.96,1.43-1.39,2.96-1.3,4.64.1,1.98.93,3.73,2.53,5.33,1.79,1.79,3.76,2.68,6.02,2.74,2.24.03,4.1-.68,5.67-2.26,1.15-1.15,1.8-2.35,1.98-3.67.18-1.3-.13-2.55-.92-3.82l-1.54-2.47,2.73,1.01c1.15.43,2.24.54,3.23.33,1-.21,1.84-.67,2.58-1.41.79-.79,1.32-1.73,1.6-2.87.28-1.13.22-2.28-.17-3.5-.4-1.24-1.11-2.36-2.09-3.35-1.44-1.43-2.99-2.2-4.74-2.34-1.48-.12-2.94.24-4.43,1.08l.88,1.26c1.28-.77,2.51-1.13,3.73-1.11,1.5.04,2.84.64,3.99,1.79,1.16,1.15,1.75,2.49,1.78,3.95.02,1.48-.52,2.79-1.62,3.89-1.39,1.39-2.98,1.91-4.72,1.55-1.48-.31-2.81-1.01-3.95-2.07l-.62.48c.39.28.73.56,1,.84,1.33,1.33,2.01,2.89,2.02,4.63,0,1.75-.66,3.3-1.99,4.63-1.38,1.38-3.03,2.08-4.9,2.08-1.88.04-3.51-.68-4.86-2.03-1.16-1.15-1.78-2.52-1.86-4.07-.06-1.29.36-2.73,1.25-4.28l-1.29-.98Z" fill="#fff"/><path d="M368.43,456.95l-9.01-9,3.89-3.89,9.01,9-3.89,3.89ZM362.23,447.96l6.19,6.19,1.08-1.08-6.19-6.19-1.08,1.08Z" fill="#fff"/><path d="M418.43,518.98l-14.7-14.69.66-.7c.66-.71,1.45-1.26,2.33-1.65,1.34-.61,2.9-.99,4.63-1.13,1.68-.14,3.85-.07,6.47.19,3.88.38,6.73.44,8.46.18,1.6-.25,2.8-.76,3.58-1.54.79-.79,1.16-1.7,1.14-2.81-.02-1.12-.49-2.12-1.44-3.07-2.02-2.01-4.41-2.04-6.58.1l-.78.77-3.59-4.41.76-.63c2.26-1.88,4.62-2.76,7-2.6,2.37.16,4.62,1.29,6.71,3.37,2.11,2.11,3.21,4.42,3.27,6.87.06,2.47-.81,4.62-2.59,6.4-.9.9-1.98,1.6-3.2,2.1-1.2.49-2.69.79-4.42.89-1.67.1-4.19,0-7.5-.27-2.69-.23-4.46-.34-5.28-.32h0c-.1,0-.2,0-.29.01l9.17,9.16-3.78,3.78ZM406.55,504.31l11.87,11.86.97-.97-10.43-10.42,1.73-.41c.79-.19,1.66-.3,2.59-.32h0c.91-.03,2.71.08,5.51.33,3.21.27,5.64.36,7.21.27,1.51-.09,2.79-.34,3.79-.75.98-.4,1.83-.96,2.54-1.66,1.4-1.4,2.05-3.01,2-4.94-.05-1.95-.93-3.75-2.69-5.51-1.73-1.73-3.56-2.67-5.43-2.79-1.62-.1-3.21.4-4.82,1.54l.99,1.21c1.23-.96,2.55-1.45,3.93-1.45,1.7,0,3.25.7,4.63,2.08,1.31,1.31,1.99,2.8,2.02,4.43.03,1.65-.55,3.08-1.72,4.25-1.08,1.08-2.66,1.79-4.68,2.1-1.92.3-4.85.24-8.96-.16-2.49-.25-4.55-.31-6.11-.18-1.5.12-2.84.45-3.98.96-.35.15-.67.34-.97.56Z" fill="#fff"/><path d="M409.42,497.91l-9.01-9,3.89-3.89,9.01,9-3.89,3.89ZM403.23,488.91l6.19,6.19,1.08-1.08-6.19-6.19-1.08,1.08Z" fill="#fff"/><path d="M453.47,553.98l-3.88-3.88,14.99-14.97c-.67-.11-1.37-.26-2.11-.45-1.58-.41-2.95-.88-4.05-1.38l-1.3-.6,3.85-3.84.59.21c1.93.7,3.85,1.1,5.71,1.21h0c1.82.1,3.34-.05,4.52-.44l.59-.2,2.73,2.73-21.64,21.61ZM452.4,550.11l1.07,1.07,18.83-18.8-.47-.47c-1.31.34-2.87.47-4.66.37h0c-1.85-.1-3.76-.48-5.67-1.11l-.89.89c.71.25,1.5.49,2.37.72,1.45.38,2.74.58,3.82.61l2.32.05-16.7,16.69Z" fill="#fff"/><path d="M448.15,536.59l-9.01-9,3.89-3.89,9.01,9-3.89,3.89ZM441.95,527.59l6.19,6.19,1.08-1.08-6.19-6.19-1.08,1.08Z" fill="#fff"/><path d="M928.7,1025.84c-.3,0-.6-.02-.9-.04-1.99-.2-3.82-1.12-5.46-2.76-2.16-2.16-3.09-4.67-2.77-7.47.38-3.27,2.5-6.79,6.48-10.76,2.45-2.45,4.72-4.2,6.75-5.2,2.11-1.04,4.15-1.47,6.09-1.27,1.98.2,3.81,1.13,5.43,2.75,1.19,1.19,2.01,2.51,2.44,3.91.43,1.4.48,2.88.16,4.39h0c-.31,1.45-.94,2.98-1.86,4.54-.92,1.55-2.42,3.36-4.46,5.41-2.43,2.43-4.69,4.17-6.71,5.18-1.78.89-3.52,1.33-5.19,1.33ZM937.97,1000.27c-1.35,0-2.79.37-4.28,1.11-1.83.91-3.93,2.53-6.22,4.82-3.6,3.6-5.59,6.82-5.91,9.59-.25,2.2.47,4.11,2.2,5.84,1.32,1.32,2.71,2.03,4.25,2.18,1.56.15,3.24-.21,5-1.09,1.83-.91,3.92-2.53,6.19-4.8,1.93-1.93,3.33-3.61,4.16-5.01.81-1.38,1.36-2.7,1.63-3.94h0c.25-1.19.22-2.31-.12-3.4-.33-1.09-.98-2.12-1.94-3.08-1.31-1.31-2.69-2.02-4.23-2.18-.24-.02-.48-.04-.72-.04ZM928.39,1022.62c-1.59,0-2.94-.54-4.01-1.62-1.37-1.37-1.88-3.18-1.5-5.37.36-2.09,2.23-4.81,5.72-8.29,3.49-3.48,6.3-5.38,8.61-5.79,1.98-.34,3.67.18,5.04,1.55,1.39,1.39,1.91,3.2,1.54,5.39-.35,2.09-2.23,4.8-5.73,8.3-3.48,3.48-6.19,5.34-8.29,5.71h0c-.48.08-.94.12-1.37.12ZM938.33,1003.43c-.25,0-.51.02-.78.07-1.86.34-4.4,2.1-7.55,5.24-3.92,3.91-4.97,6.09-5.17,7.22-.27,1.54.04,2.73.95,3.63.9.9,2.09,1.21,3.64.94h0c1.14-.2,3.32-1.25,7.23-5.15,3.93-3.92,4.98-6.1,5.17-7.23.26-1.54-.06-2.73-.98-3.65-.72-.72-1.54-1.07-2.51-1.07Z" fill="#fff"/><path d="M910.49,1010.51l-3.88-3.88,14.99-14.97c-.67-.11-1.37-.26-2.11-.45-1.59-.41-2.95-.88-4.05-1.38l-1.3-.6,3.85-3.84.59.21c1.93.69,3.85,1.1,5.71,1.21h0c1.83.1,3.35-.05,4.52-.44l.59-.2,2.73,2.73-21.64,21.61ZM909.42,1006.63l1.07,1.07,18.82-18.8-.47-.47c-1.3.34-2.87.47-4.66.36h0c-1.85-.1-3.76-.48-5.67-1.11l-.89.89c.71.25,1.5.49,2.37.72,1.45.38,2.74.58,3.82.61l2.32.06-16.7,16.68Z" fill="#fff"/><path d="M879.8,976.47c-.52,0-1.03-.04-1.54-.12-2.1-.34-4-1.34-5.62-2.96-1.74-1.74-2.7-3.7-2.84-5.81-.14-2.11.57-4.18,2.1-6.16l.63-.81,4.09,3.39-.52.75c-.78,1.13-1.15,2.12-1.1,2.96.05.83.42,1.58,1.14,2.29.64.63,1.31,1.03,2.05,1.21.77.19,1.56.19,2.35.01.84-.19,1.85-.63,2.99-1.32.59-.35,1.16-.75,1.7-1.17-.5-.05-1.01-.15-1.52-.29-1.51-.41-2.84-1.19-3.96-2.3-1.86-1.86-2.77-4.13-2.71-6.77.06-2.61,1.19-5.03,3.34-7.19,2.22-2.22,4.72-3.37,7.43-3.41,2.68-.07,5.11.94,7.12,2.95,1.44,1.44,2.39,3.17,2.8,5.14.42,1.98.22,4.01-.59,6.06-.8,2.01-2.45,4.25-5.05,6.84s-5.09,4.49-7.27,5.5c-1.71.79-3.39,1.19-5.01,1.19ZM872.87,963.48c-.82,1.31-1.18,2.62-1.09,3.97.11,1.64.85,3.12,2.26,4.53s2.83,2.13,4.53,2.41c1.69.28,3.51-.03,5.4-.91,1.97-.91,4.22-2.63,6.7-5.11s3.92-4.44,4.6-6.17c.67-1.67.83-3.32.49-4.91h0c-.34-1.61-1.08-2.97-2.26-4.15-1.63-1.63-3.47-2.41-5.68-2.37-2.2.04-4.18.96-6.05,2.83-1.81,1.81-2.71,3.71-2.76,5.83-.05,2.1.65,3.84,2.13,5.31.87.87,1.9,1.47,3.08,1.79,1.18.32,2.34.35,3.46.1l3.12-.71-2.17,2.35c-.22.24-.39.42-.51.54-1.08,1.08-2.28,2.02-3.59,2.8-1.34.8-2.51,1.31-3.57,1.55-1.09.25-2.19.24-3.26-.02-1.1-.27-2.1-.85-2.99-1.74-1.06-1.06-1.64-2.27-1.72-3.58-.06-1.07.26-2.22.96-3.44l-1.09-.91ZM887.02,966.49c-1.7,0-3.21-.64-4.49-1.92s-1.99-2.94-1.96-4.78c.03-1.83.79-3.51,2.26-4.97,1.6-1.6,3.41-2.46,5.37-2.56,2-.1,3.67.51,4.97,1.81,1.26,1.26,1.86,2.85,1.77,4.72-.09,1.84-.95,3.57-2.54,5.16-1.6,1.59-3.31,2.44-5.1,2.51h0c-.1,0-.19,0-.29,0ZM888.61,954.24c-.1,0-.2,0-.31,0-1.47.07-2.8.72-4.06,1.98-1.1,1.1-1.65,2.28-1.67,3.6-.02,1.3.43,2.4,1.37,3.34s2.01,1.39,3.28,1.33h0c1.29-.05,2.53-.69,3.78-1.93,1.25-1.25,1.89-2.51,1.96-3.86.06-1.31-.32-2.36-1.19-3.22-.83-.83-1.87-1.24-3.16-1.24Z" fill="#fff"/><path d="M838.25,934.93c-.07,0-.14,0-.2,0-2.65-.05-5.09-1.17-7.25-3.34-2.17-2.16-3.29-4.61-3.34-7.25-.05-2.66.92-5,2.87-6.95,1.46-1.46,3.09-2.32,4.85-2.57,1.05-.15,2.11-.07,3.16.23-.14-.78-.15-1.54-.03-2.27.24-1.39.92-2.66,2.04-3.78,1.66-1.66,3.68-2.45,6.01-2.41,2.31.06,4.45,1.07,6.38,3,1.94,1.94,2.95,4.11,3.01,6.45.06,2.36-.76,4.4-2.42,6.06-1.08,1.08-2.33,1.74-3.71,1.98-.75.13-1.53.12-2.33-.03.3,1.13.36,2.26.18,3.35-.29,1.75-1.14,3.33-2.53,4.72-1.86,1.86-4.11,2.81-6.69,2.81ZM836.24,916.73c-.26,0-.52.02-.78.06-1.34.19-2.56.85-3.72,2.01-1.57,1.57-2.32,3.38-2.29,5.51.04,2.15.94,4.07,2.75,5.88,1.82,1.81,3.74,2.72,5.89,2.76,2.13.03,3.91-.69,5.45-2.22,1.1-1.1,1.75-2.29,1.97-3.64.22-1.34-.03-2.7-.78-4.16l-1.29-2.53,2.58,1.17c1.18.54,2.28.72,3.26.56.98-.17,1.85-.63,2.64-1.43,1.28-1.28,1.88-2.78,1.83-4.61-.04-1.84-.84-3.51-2.42-5.1-1.58-1.58-3.22-2.37-5.03-2.41-1.79-.04-3.27.55-4.55,1.82-.83.83-1.31,1.71-1.48,2.7-.17.98.03,2.09.59,3.3l1.34,2.88-2.74-1.61c-1.1-.64-2.16-.96-3.23-.96ZM837.66,931.66h-.04c-1.79-.01-3.4-.71-4.76-2.08-.88-.87-1.49-1.92-1.84-3.09-.35-1.21-.34-2.43.05-3.61.37-1.14.97-2.13,1.79-2.94,1.34-1.34,2.93-2.02,4.73-2.03h.02c1.79,0,3.38.68,4.73,2.03,1.38,1.37,2.08,3,2.1,4.83.02,1.84-.68,3.47-2.06,4.85s-2.94,2.04-4.72,2.04ZM837.64,929.68h.03c1.25,0,2.34-.48,3.32-1.45s1.49-2.12,1.47-3.43c-.01-1.31-.51-2.44-1.52-3.45-.97-.97-2.06-1.45-3.33-1.45h-.02c-1.27,0-2.36.48-3.33,1.45-.59.59-1.03,1.32-1.3,2.15-.26.81-.27,1.6-.03,2.44.25.87.69,1.6,1.34,2.24,1,1,2.1,1.49,3.37,1.5h0ZM847.02,921.13h-.05c-1.47-.01-2.8-.59-3.94-1.73s-1.76-2.51-1.78-3.99c-.01-1.49.56-2.82,1.71-3.96,1.01-1.01,2.27-1.53,3.73-1.53.03,0,.06,0,.09,0,1.49.02,2.82.61,3.95,1.73s1.7,2.45,1.71,3.96c.01,1.51-.54,2.84-1.64,3.94s-2.32,1.58-3.78,1.58ZM846.69,911.91c-.93,0-1.69.31-2.32.95-.76.76-1.13,1.59-1.12,2.54,0,.95.4,1.81,1.19,2.6s1.6,1.14,2.55,1.15c.94,0,1.73-.32,2.41-1,.72-.72,1.06-1.54,1.05-2.52,0-.98-.37-1.82-1.12-2.57-.76-.76-1.6-1.14-2.57-1.15-.02,0-.04,0-.06,0Z" fill="#fff"/><path d="M789.48,888.95l-3.92-3.91.73-.7c1.66-1.6,3.98-3.27,6.87-4.95,2.89-1.68,6.01-3.03,9.27-4.02,2.44-.74,4.76-1.26,6.93-1.55l-9.09-9.08,3.78-3.78,14.45,14.43-2.91,2.9h-.39c-2.55.09-5.59.63-9.02,1.6-3.43.98-6.69,2.31-9.69,3.97-2.11,1.15-4.23,2.65-6.32,4.46l-.7.61ZM788.43,885.08l1.16,1.16c1.97-1.64,3.97-3.02,5.96-4.11,3.13-1.73,6.53-3.12,10.11-4.14,3.41-.97,6.47-1.52,9.1-1.65l.95-.94-11.64-11.62-.97.97,10.72,10.71-2.19.14c-2.6.17-5.49.73-8.6,1.68-3.11.94-6.09,2.23-8.85,3.84-2.34,1.36-4.27,2.69-5.74,3.98Z" fill="#fff"/><path d="M753.52,850.58c-.72,0-1.44-.09-2.14-.26-1.7-.42-3.24-1.3-4.58-2.64-2.27-2.26-3.3-4.99-3.06-8.09.24-3.09,2.14-6.38,5.83-10.07,4.04-4.04,7.83-6.26,11.25-6.62,3.09-.32,5.85.71,8.19,3.05,1.75,1.75,2.71,3.72,2.85,5.86.14,2.14-.56,4.22-2.07,6.17l-.64.83-4.1-3.5.46-.73c.64-1.02,1-1.91,1.03-2.56.03-1.08-.34-2-1.12-2.78-.64-.64-1.35-1.01-2.18-1.13-1.16-.19-2.44.01-3.8.58-.89.37-1.89,1-2.98,1.89.6.06,1.19.18,1.75.37,1.45.47,2.71,1.24,3.76,2.29,1.84,1.84,2.74,4.11,2.68,6.75-.06,2.62-1.16,5.02-3.26,7.12-1.37,1.37-2.96,2.36-4.73,2.95-1.06.35-2.11.53-3.15.53ZM761.91,824.85c-.29,0-.58.02-.88.05-2.96.3-6.34,2.34-10.05,6.04-3.29,3.29-5.06,6.25-5.26,8.81-.19,2.53.62,4.67,2.48,6.53,1.07,1.07,2.3,1.78,3.64,2.11,1.34.33,2.75.25,4.19-.23,1.48-.49,2.8-1.32,3.95-2.46,1.75-1.75,2.63-3.63,2.68-5.76.05-2.11-.64-3.84-2.1-5.3-.83-.83-1.83-1.43-2.97-1.8-1.13-.36-2.37-.41-3.7-.14l-3.31.69,2.41-2.37c2.15-2.1,4-3.47,5.67-4.16,1.7-.71,3.34-.95,4.87-.71,1.24.19,2.35.76,3.28,1.69,1.18,1.18,1.75,2.61,1.71,4.26-.04.85-.33,1.77-.9,2.81l1.18,1.01c.8-1.3,1.15-2.6,1.06-3.97-.11-1.67-.85-3.17-2.27-4.59-1.69-1.69-3.56-2.52-5.7-2.52ZM753.07,847.35c-1.69,0-3.13-.58-4.28-1.73-.85-.84-1.42-1.9-1.7-3.14-.29-1.24-.19-2.54.3-3.86.47-1.27,1.18-2.4,2.13-3.35,1.48-1.48,3.17-2.25,5.01-2.28.04,0,.07,0,.11,0,1.81,0,3.38.65,4.66,1.93,1.33,1.33,1.96,2.92,1.89,4.74-.07,1.79-.9,3.5-2.47,5.06-1.62,1.62-3.37,2.49-5.21,2.6h0c-.15,0-.3.01-.44.01ZM754.64,834.98s-.05,0-.08,0c-1.32.02-2.51.57-3.63,1.69-.74.74-1.31,1.63-1.67,2.62-.35.96-.43,1.86-.23,2.73.2.88.58,1.59,1.17,2.18.84.84,1.89,1.21,3.2,1.14h0c1.34-.08,2.65-.75,3.92-2.02,1.22-1.22,1.84-2.44,1.89-3.74.05-1.27-.38-2.33-1.31-3.26-.91-.91-1.97-1.35-3.25-1.35Z" fill="#fff"/><path d="M711.66,807.78c-2.72,0-5.17-1.07-7.3-3.2-2-2-3.09-4.24-3.24-6.66-.15-2.43.63-4.7,2.32-6.75l.64-.78,4.3,3.62-.55.75c-.93,1.26-1.37,2.45-1.32,3.55.05,1.09.47,2.02,1.29,2.83.99.99,2.17,1.45,3.63,1.39,1.48-.06,2.84-.73,4.15-2.04,1.23-1.23,1.84-2.49,1.86-3.84.02-1.34-.5-2.52-1.6-3.61-.68-.68-1.42-1.12-2.26-1.36-.85-.24-1.65-.27-2.44-.09l-.62.14-3.05-3.96,13.85-9.45,11.31,11.29-3.77,3.77-8.17-8.16-4.02,2.67c1.31.51,2.45,1.25,3.42,2.21h0c1.95,1.94,2.93,4.29,2.92,6.98-.01,2.69-1.08,5.11-3.18,7.21-1.98,1.98-4.3,3.13-6.92,3.42-.42.05-.84.07-1.25.07ZM704.37,793.23c-.95,1.43-1.37,2.93-1.27,4.56.12,1.95.99,3.71,2.66,5.38,2.03,2.03,4.29,2.87,6.92,2.56,2.19-.24,4.06-1.17,5.73-2.85,1.74-1.73,2.59-3.64,2.6-5.81,0-2.17-.76-3.99-2.33-5.57h0c-1.19-1.19-2.68-1.93-4.54-2.26l-2.44-.43,9.24-6.15,7.91,7.9.96-.96-8.73-8.72-10.75,7.33,1.01,1.31c.9-.11,1.83-.03,2.77.23,1.16.32,2.22.95,3.14,1.87,1.47,1.47,2.21,3.17,2.18,5.05-.03,1.87-.85,3.62-2.44,5.21s-3.5,2.54-5.47,2.62c-2.01.09-3.73-.58-5.12-1.97-1.17-1.17-1.8-2.56-1.87-4.14-.06-1.32.33-2.67,1.18-4.05l-1.33-1.12Z" fill="#fff"/><path d="M666.84,766.96l-3.88-3.88,4.82-4.82-8.74-8.73,3.19-3.19,23.07-4,3.09,3.09-13.06,13.04,2.72,2.72-3.67,3.67-2.72-2.72-4.82,4.82ZM665.77,763.08l1.07,1.07,4.82-4.82,2.72,2.72.86-.86-2.72-2.72,13.06-13.04-.95-.95-21.43,3.71-1.34,1.34,8.74,8.73-4.82,4.82ZM671.46,757.4l-8.36-8.35,20.39-3.67-12.03,12.02ZM667.2,750.34l4.26,4.26,6.14-6.13-10.4,1.87Z" fill="#fff"/><path d="M627.64,724.36c-.09,0-.18,0-.27,0-2.76-.07-5.24-1.18-7.38-3.32-1.94-1.94-2.99-4.17-3.11-6.63-.13-2.46.65-4.74,2.32-6.77l.61-.74,4.31,3.29-.51.77c-.99,1.5-1.47,2.8-1.42,3.88.05,1.05.47,1.96,1.28,2.77.97.97,2.1,1.45,3.43,1.45h.02c1.35,0,2.49-.49,3.5-1.5.95-.95,1.41-2,1.41-3.21,0-1.22-.47-2.27-1.43-3.23-.4-.4-1.01-.85-1.82-1.31l-1.27-.74,4.38-3.39.61.76c.12.15.22.26.3.34.92.92,1.96,1.49,3.17,1.75,1.06.22,1.99-.09,2.9-1.01.72-.72,1.06-1.52,1.04-2.45-.01-.95-.41-1.79-1.19-2.58-.78-.78-1.65-1.18-2.64-1.2-1.02-.02-2.13.4-3.34,1.29l-.82.6-3.19-4.56.82-.57c2.14-1.48,4.36-2.14,6.56-1.97,2.22.18,4.23,1.16,5.99,2.92,1.21,1.2,2.07,2.6,2.57,4.14.51,1.57.58,3.12.21,4.6-.37,1.47-1.08,2.75-2.12,3.79-1.01,1.01-2.21,1.66-3.58,1.94-.71.15-1.46.18-2.21.1.33,1.04.43,2.1.28,3.17-.24,1.74-1.09,3.35-2.54,4.8-1.89,1.89-4.19,2.84-6.85,2.84ZM620.15,709.66c-.96,1.43-1.38,2.96-1.3,4.64.1,1.98.93,3.73,2.53,5.33,1.79,1.79,3.76,2.68,6.02,2.74,2.26.06,4.1-.68,5.67-2.26,1.14-1.14,1.8-2.37,1.98-3.67.18-1.3-.13-2.55-.92-3.82l-1.55-2.47,2.74,1.01c1.15.43,2.24.54,3.23.33,1-.21,1.84-.67,2.58-1.4.79-.79,1.32-1.73,1.6-2.87.28-1.13.23-2.28-.17-3.5-.4-1.24-1.1-2.37-2.09-3.35-1.44-1.43-2.99-2.2-4.74-2.34-1.49-.12-2.94.24-4.42,1.08l.88,1.26c1.28-.77,2.52-1.13,3.73-1.11,1.5.04,2.84.65,3.99,1.79,1.16,1.15,1.75,2.48,1.78,3.95.02,1.48-.52,2.79-1.62,3.89-1.37,1.37-3,1.91-4.71,1.55-1.48-.31-2.81-1.01-3.95-2.07l-.62.48c.39.28.73.56,1.01.84,1.33,1.33,2.01,2.89,2.02,4.63,0,1.74-.66,3.3-1.99,4.62-1.38,1.38-3.03,2.08-4.9,2.08h-.02c-1.86,0-3.49-.68-4.84-2.03-1.16-1.16-1.78-2.53-1.86-4.07-.06-1.31.35-2.72,1.25-4.28l-1.29-.98Z" fill="#fff"/><path d="M585.3,685.68l-14.7-14.69.66-.7c.66-.71,1.45-1.26,2.33-1.66,1.34-.61,2.9-.99,4.63-1.13,1.68-.13,3.85-.07,6.47.19,3.88.38,6.73.45,8.46.18,1.6-.25,2.8-.76,3.58-1.54s1.16-1.71,1.14-2.81c-.02-1.12-.49-2.12-1.44-3.06-2.02-2.01-4.41-2.04-6.58.1l-.78.77-3.59-4.41.76-.63c2.26-1.88,4.62-2.75,7-2.6,2.37.16,4.62,1.29,6.71,3.37,2.11,2.11,3.21,4.42,3.27,6.87.06,2.47-.81,4.62-2.59,6.4-.9.9-1.97,1.6-3.2,2.1-1.21.49-2.69.79-4.42.89-1.69.1-4.14.01-7.5-.27-2.69-.23-4.47-.34-5.28-.32h0c-.1,0-.2,0-.29.01l9.17,9.16-3.78,3.78ZM573.43,671.01l11.87,11.86.97-.97-10.43-10.42,1.73-.41c.79-.19,1.66-.3,2.59-.32.9-.02,2.71.08,5.51.33,3.21.27,5.64.36,7.22.27,1.51-.09,2.78-.34,3.79-.75.98-.4,1.83-.96,2.54-1.66,1.4-1.4,2.05-3.01,2.01-4.94-.05-1.95-.93-3.75-2.69-5.51s-3.56-2.67-5.43-2.79c-1.63-.11-3.21.4-4.82,1.54l.99,1.21c1.23-.96,2.55-1.45,3.94-1.45,1.7,0,3.25.7,4.63,2.08s1.99,2.8,2.02,4.43c.03,1.65-.55,3.08-1.72,4.25-1.08,1.08-2.66,1.79-4.68,2.1-1.92.29-4.85.24-8.96-.16-2.5-.25-4.55-.31-6.11-.18-1.5.12-2.84.45-3.98.96-.35.15-.67.34-.97.56Z" fill="#fff"/><path d="M537.76,638.19l-3.88-3.88,14.99-14.97c-.67-.11-1.37-.26-2.11-.45-1.59-.41-2.95-.88-4.05-1.38l-1.3-.6,3.85-3.84.59.21c1.93.69,3.85,1.1,5.71,1.21h0c1.83.1,3.34-.05,4.52-.44l.58-.2,2.74,2.73-21.64,21.61ZM536.7,634.31l1.07,1.07,18.83-18.8-.47-.47c-1.31.34-2.87.47-4.66.36h0c-1.85-.1-3.76-.48-5.67-1.11l-.89.89c.71.25,1.5.49,2.37.72,1.45.38,2.74.58,3.82.61l2.32.06-16.7,16.68Z" fill="#fff"/><path d="M499.85,597.45c-.3,0-.6-.01-.9-.04-1.99-.2-3.82-1.12-5.46-2.76-2.16-2.16-3.09-4.67-2.77-7.47.38-3.26,2.5-6.78,6.48-10.76,2.45-2.44,4.72-4.19,6.75-5.2,2.11-1.04,4.15-1.47,6.09-1.27,1.98.2,3.81,1.13,5.43,2.75,1.19,1.19,2.01,2.51,2.44,3.91.43,1.41.48,2.89.16,4.4h0c-.31,1.45-.94,2.98-1.86,4.54-.91,1.54-2.41,3.36-4.46,5.41-2.43,2.43-4.69,4.17-6.71,5.18-1.78.89-3.52,1.33-5.19,1.33ZM509.12,571.88c-1.35,0-2.79.37-4.28,1.11-1.84.91-3.93,2.53-6.23,4.82-3.6,3.6-5.59,6.83-5.91,9.59-.25,2.2.47,4.11,2.2,5.84,1.32,1.32,2.71,2.03,4.25,2.18,1.56.16,3.25-.21,5-1.09,1.83-.91,3.92-2.53,6.19-4.8,1.93-1.93,3.33-3.61,4.16-5.01.82-1.38,1.36-2.71,1.63-3.94h0c.25-1.19.22-2.31-.12-3.4-.33-1.09-.98-2.12-1.94-3.08-1.31-1.31-2.69-2.02-4.23-2.18-.24-.02-.48-.04-.72-.04ZM499.54,594.23c-1.59,0-2.94-.54-4.01-1.62-1.37-1.37-1.88-3.18-1.5-5.37.36-2.09,2.23-4.81,5.72-8.29,3.49-3.48,6.3-5.38,8.61-5.79,1.98-.34,3.67.18,5.04,1.55,1.39,1.39,1.91,3.2,1.53,5.39-.35,2.09-2.23,4.81-5.73,8.3-3.48,3.48-6.19,5.34-8.29,5.71h0c-.48.08-.93.12-1.37.12ZM509.47,575.05c-.25,0-.51.02-.78.07-1.86.34-4.4,2.1-7.55,5.24-3.92,3.91-4.97,6.09-5.17,7.22-.27,1.54.04,2.73.95,3.63.9.9,2.09,1.21,3.64.94h0c1.14-.2,3.32-1.25,7.23-5.15,3.93-3.92,4.98-6.1,5.17-7.23.26-1.54-.06-2.73-.98-3.65-.72-.72-1.55-1.07-2.52-1.07Z" fill="#fff"/><path d="M47.83,84.53L2.77,9.8l73.88,45.85-28.81,28.88ZM8.73,15.84l39.49,65.48,25.25-25.31L8.73,15.84Z" fill="#fff"/><path d="M1015.8,1029.78l-54.89-54.83-18.37,18.35-4.22-4.22,18.37-18.35-38-37.96-18.37,18.35-4.22-4.22,18.37-18.35-38-37.96-18.37,18.35-4.22-4.22,18.37-18.35-38-37.96-18.37,18.35-4.22-4.22,18.37-18.35-38-37.96-18.37,18.35-4.22-4.22,18.37-18.35-38-37.96-18.37,18.35-4.22-4.22,18.37-18.35-38-37.96-18.37,18.35-4.22-4.22,18.37-18.35-38-37.96-18.37,18.35-4.22-4.22,18.37-18.35-38-37.96-18.37,18.35-4.22-4.22,18.37-18.35-38-37.96-18.37,18.35-4.22-4.22,18.37-18.35-38-37.96-18.37,18.35-4.22-4.22,18.37-18.35-38-37.96-18.37,18.35-4.22-4.22,18.37-18.35-38-37.96-18.37,18.35-4.22-4.22,18.37-18.35-38-37.96-18.37,18.35-4.22-4.22,18.37-18.35-38-37.96-18.37,18.35-4.22-4.22,18.37-18.35-38-37.96-18.37,18.35-4.22-4.22,18.37-18.35-38-37.96-18.37,18.35-4.22-4.22,18.37-18.35-38-37.96-18.37,18.35-4.22-4.22,18.37-18.35-38-37.96-18.37,18.35-4.22-4.22,18.37-18.35-38-37.96-18.37,18.35-4.22-4.22,18.37-18.35-38-37.96-18.37,18.35-4.22-4.22,18.37-18.35-54.89-54.83,7.04-7.03,54.89,54.83,18.23-18.21,4.22,4.22-18.23,18.21,38,37.96,18.23-18.21,4.22,4.22-18.23,18.21,38,37.96,18.23-18.21,4.22,4.22-18.23,18.21,38,37.96,18.23-18.21,4.22,4.22-18.23,18.21,38,37.96,18.23-18.21,4.22,4.22-18.23,18.21,38,37.96,18.23-18.21,4.22,4.22-18.23,18.21,38,37.96,18.23-18.21,4.22,4.22-18.23,18.21,38,37.96,18.23-18.21,4.22,4.22-18.23,18.21,38,37.96,18.23-18.21,4.22,4.22-18.23,18.21,38,37.96,18.23-18.21,4.22,4.22-18.23,18.21,38,37.96,18.23-18.21,4.22,4.22-18.23,18.21,38,37.96,18.23-18.21,4.22,4.22-18.23,18.21,38,37.96,18.23-18.21,4.22,4.22-18.23,18.21,38,37.96,18.23-18.21,4.22,4.22-18.23,18.21,38,37.96,18.23-18.21,4.22,4.22-18.23,18.21,38,37.96,18.23-18.21,4.22,4.22-18.23,18.21,38,37.96,18.23-18.21,4.22,4.22-18.23,18.21,38,37.96,18.23-18.21,4.22,4.22-18.23,18.21,38,37.96,18.23-18.21,4.22,4.22-18.23,18.21,38,37.96,18.23-18.21,4.22,4.22-18.23,18.21,38,37.96,18.23-18.21,4.22,4.22-18.23,18.21,54.89,54.83-7.04,7.03ZM960.91,972.14l54.89,54.83,4.22-4.22-54.89-54.83,18.23-18.21-1.41-1.41-18.23,18.21-40.81-40.77,18.23-18.21-1.41-1.41-18.23,18.21-40.81-40.77,18.23-18.21-1.41-1.41-18.23,18.21-40.81-40.77,18.23-18.21-1.41-1.41-18.23,18.21-40.81-40.77,18.23-18.21-1.41-1.41-18.23,18.21-40.81-40.77,18.23-18.21-1.41-1.41-18.23,18.21-40.81-40.77,18.23-18.21-1.41-1.41-18.23,18.21-40.81-40.77,18.23-18.21-1.41-1.41-18.23,18.21-40.81-40.77,18.23-18.21-1.41-1.41-18.23,18.21-40.81-40.77,18.23-18.21-1.41-1.41-18.23,18.21-40.81-40.77,18.23-18.21-1.41-1.41-18.23,18.21-40.81-40.77,18.23-18.21-1.41-1.41-18.23,18.21-40.81-40.77,18.23-18.21-1.41-1.41-18.23,18.21-40.81-40.77,18.23-18.21-1.41-1.41-18.23,18.21-40.81-40.77,18.23-18.21-1.41-1.41-18.23,18.21-40.81-40.77,18.23-18.21-1.41-1.41-18.23,18.21-40.81-40.77,18.23-18.21-1.41-1.41-18.23,18.21-40.81-40.77,18.23-18.21-1.41-1.41-18.23,18.21-40.81-40.77,18.23-18.21-1.41-1.41-18.23,18.21-40.81-40.77,18.23-18.21-1.41-1.41-18.23,18.21-40.81-40.77,18.23-18.21-1.41-1.41-18.23,18.21-54.89-54.83-4.22,4.22,54.89,54.83-18.37,18.35,1.41,1.41,18.37-18.35,40.81,40.77-18.37,18.35,1.41,1.41,18.37-18.35,40.81,40.77-18.37,18.35,1.41,1.41,18.37-18.35,40.81,40.77-18.37,18.35,1.41,1.41,18.37-18.35,40.81,40.77-18.37,18.35,1.41,1.41,18.37-18.35,40.81,40.77-18.37,18.35,1.41,1.41,18.37-18.35,40.81,40.77-18.37,18.35,1.41,1.41,18.37-18.35,40.81,40.77-18.37,18.35,1.41,1.41,18.37-18.35,40.81,40.77-18.37,18.35,1.41,1.41,18.37-18.35,40.81,40.77-18.37,18.35,1.41,1.41,18.37-18.35,40.81,40.77-18.37,18.35,1.41,1.41,18.37-18.35,40.81,40.77-18.37,18.35,1.41,1.41,18.37-18.35,40.81,40.77-18.37,18.35,1.41,1.41,18.37-18.35,40.81,40.77-18.37,18.35,1.41,1.41,18.37-18.35,40.81,40.77-18.37,18.35,1.41,1.41,18.37-18.35,40.81,40.77-18.37,18.35,1.41,1.41,18.37-18.35,40.81,40.77-18.37,18.35,1.41,1.41,18.37-18.35,40.81,40.77-18.37,18.35,1.41,1.41,18.37-18.35,40.81,40.77-18.37,18.35,1.41,1.41,18.37-18.35,40.81,40.77-18.37,18.35,1.41,1.41,18.37-18.35,40.81,40.77-18.37,18.35,1.41,1.41,18.37-18.35Z" fill="#fff"/><path d="M1077.77,1084.8l-74.1-45.49,28.67-29.02,45.43,74.51ZM1006.84,1038.93l64.93,39.86-39.8-65.29-25.13,25.43Z" fill="#fff"/><path d="M138.04,199.18c-.38-1.79-1.23-3.34-2.54-4.65-1.81-1.81-3.95-2.7-6.4-2.66-2.45.04-4.7,1.08-6.74,3.12-1.98,1.98-3,4.15-3.05,6.51-.06,2.36.75,4.37,2.42,6.04,1,1,2.17,1.68,3.52,2.05,1.35.37,2.66.4,3.94.11-.21.23-.37.4-.48.51-1.03,1.03-2.16,1.91-3.39,2.65-1.24.74-2.33,1.22-3.28,1.43-.95.22-1.88.21-2.8-.01-.92-.22-1.76-.72-2.52-1.48-.89-.89-1.37-1.87-1.43-2.94-.06-1.07.36-2.27,1.28-3.58l-2.6-2.16c-1.38,1.78-2.01,3.61-1.89,5.48.12,1.87.97,3.59,2.55,5.17,1.48,1.48,3.18,2.38,5.08,2.68,1.9.31,3.89-.02,5.98-.99,2.08-.97,4.41-2.73,6.99-5.31s4.08-4.64,4.82-6.51c.74-1.87.92-3.7.54-5.48ZM128.55,207.59c-1.54.06-2.88-.48-4.03-1.62-1.14-1.13-1.69-2.49-1.66-4.06.03-1.57.68-3,1.97-4.28,1.43-1.43,3-2.18,4.71-2.27,1.71-.08,3.12.43,4.22,1.52s1.56,2.39,1.48,3.97c-.08,1.59-.83,3.09-2.25,4.51s-2.9,2.16-4.44,2.22Z" fill="#4d4d4d"/><polygon points="55.5 142.96 63.1 150.55 65.59 148.06 57.98 140.47 55.5 142.96" fill="#4d4d4d"/><path d="M82.16,146.64c-1.96-.11-3.96-.53-5.99-1.26l-2.39,2.39c1.05.49,2.35.93,3.88,1.32,1.53.4,2.88.61,4.05.64l-15.76,15.75,2.47,2.47,20.23-20.21-1.59-1.59c-1.3.44-2.93.6-4.89.49Z" fill="#4d4d4d"/><path d="M103.88,168.02c.29-1.35.24-2.65-.14-3.9-.38-1.25-1.11-2.41-2.19-3.49-1.47-1.46-3.08-2.29-4.83-2.46-1.75-.18-3.6.21-5.55,1.17-1.94.96-4.11,2.63-6.49,5.01-3.78,3.78-5.85,7.17-6.2,10.17-.28,2.5.55,4.72,2.49,6.66,1.48,1.47,3.09,2.3,4.85,2.47,1.76.17,3.61-.22,5.55-1.19,1.94-.97,4.09-2.63,6.45-4.99,2-2,3.43-3.73,4.31-5.21.87-1.48,1.46-2.89,1.75-4.24ZM87.53,180.36c-1.87.32-3.38-.08-4.51-1.21s-1.54-2.64-1.22-4.5c.32-1.87,2.13-4.45,5.44-7.76,3.31-3.3,6-5.14,8.08-5.52,1.64-.28,3.03.14,4.16,1.28,1.15,1.15,1.57,2.66,1.26,4.52-.32,1.86-2.13,4.45-5.45,7.76s-5.88,5.11-7.76,5.43Z" fill="#4d4d4d"/><polygon points="105.33 192.74 112.93 200.33 115.42 197.85 107.82 190.25 105.33 192.74" fill="#4d4d4d"/><path d="M171.78,249.37c1.37.62,2.65.83,3.83.63,1.18-.2,2.24-.77,3.17-1.7,1.47-1.46,2.17-3.24,2.12-5.33-.05-2.09-.96-4.02-2.71-5.77s-3.65-2.65-5.7-2.7c-2.05-.05-3.81.65-5.28,2.11-.97.97-1.56,2.05-1.76,3.24-.2,1.19.02,2.48.67,3.89-1.55-.91-3.1-1.25-4.65-1.03-1.55.22-2.98.98-4.29,2.29-1.76,1.76-2.62,3.83-2.58,6.23.04,2.39,1.06,4.58,3.04,6.57,1.99,1.99,4.18,3,6.57,3.05,2.39.05,4.45-.79,6.17-2.51,1.25-1.24,2-2.64,2.25-4.18.25-1.54-.04-3.13-.87-4.77ZM169.83,239.04c.84-.84,1.88-1.25,3.11-1.24,1.23.02,2.31.5,3.26,1.44s1.41,2.02,1.42,3.27c0,1.24-.44,2.32-1.35,3.23s-1.91,1.3-3.12,1.29c-1.21,0-2.29-.49-3.24-1.44s-1.48-2.08-1.48-3.3c0-1.22.46-2.3,1.42-3.25ZM163.8,257.56c-1.53,0-2.89-.6-4.07-1.78-.76-.76-1.29-1.65-1.59-2.67-.3-1.02-.28-2.03.04-3.02.33-.99.84-1.84,1.55-2.55,1.15-1.15,2.5-1.73,4.03-1.74,1.53,0,2.88.57,4.05,1.74s1.79,2.57,1.81,4.14c.01,1.57-.58,2.95-1.77,4.14-1.17,1.17-2.52,1.75-4.05,1.74Z" fill="#4d4d4d"/><polygon points="147.8 235.16 155.4 242.75 157.89 240.27 150.29 232.67 147.8 235.16" fill="#4d4d4d"/><path d="M211.45,275.16l9.87,9.86c-2.68.17-5.63.75-8.82,1.72-3.2.97-6.22,2.28-9.06,3.93-2.84,1.65-5.07,3.25-6.68,4.81l2.54,2.54c2.14-1.87,4.31-3.4,6.49-4.59,3.08-1.7,6.38-3.05,9.9-4.06,3.52-1,6.61-1.54,9.26-1.63l1.92-1.92-13.04-13.03-2.38,2.38Z" fill="#4d4d4d"/><path d="M945.95,1009.18c.29-1.35.24-2.65-.14-3.9-.38-1.25-1.11-2.41-2.19-3.49-1.47-1.46-3.08-2.29-4.83-2.46-1.75-.18-3.6.21-5.55,1.17-1.94.96-4.11,2.63-6.49,5.01-3.78,3.78-5.85,7.17-6.2,10.17-.28,2.5.55,4.72,2.49,6.66,1.48,1.47,3.09,2.3,4.85,2.47,1.76.17,3.61-.22,5.55-1.19,1.94-.97,4.09-2.63,6.45-4.99,2-2,3.43-3.73,4.31-5.21.87-1.48,1.46-2.89,1.75-4.24ZM929.6,1021.52c-1.87.32-3.38-.08-4.51-1.21s-1.54-2.64-1.22-4.5c.32-1.87,2.13-4.45,5.44-7.76,3.31-3.3,6-5.14,8.08-5.52,1.64-.28,3.03.14,4.16,1.28,1.15,1.15,1.57,2.66,1.26,4.52-.32,1.86-2.13,4.45-5.45,7.76-3.3,3.3-5.88,5.11-7.76,5.43Z" fill="#4d4d4d"/><polygon points="440.55 527.59 448.15 535.18 450.63 532.7 443.03 525.1 440.55 527.59" fill="#4d4d4d"/><path d="M467.21,531.27c-1.96-.11-3.96-.53-5.99-1.26l-2.39,2.39c1.05.49,2.35.93,3.88,1.32,1.53.4,2.88.61,4.05.64l-15.76,15.75,2.47,2.47,20.23-20.21-1.59-1.59c-1.3.44-2.93.6-4.89.49Z" fill="#4d4d4d"/><polygon points="401.82 488.91 409.42 496.5 411.91 494.02 404.31 486.42 401.82 488.91" fill="#4d4d4d"/><path d="M413.31,505.03c.87-.02,2.66.08,5.39.32,3.28.27,5.73.36,7.36.27,1.63-.1,2.99-.37,4.1-.82,1.11-.45,2.07-1.08,2.87-1.88,1.59-1.58,2.35-3.47,2.3-5.67-.05-2.2-1.05-4.26-2.98-6.19s-3.94-2.94-6.07-3.08c-2.13-.14-4.23.65-6.3,2.37l2.28,2.8c1.27-1.25,2.63-1.88,4.05-1.88s2.74.59,3.93,1.78c1.13,1.13,1.7,2.38,1.73,3.75.03,1.37-.45,2.55-1.43,3.53s-2.31,1.54-4.13,1.82c-1.82.28-4.72.22-8.71-.17-2.57-.26-4.66-.32-6.29-.19-1.63.13-3.06.48-4.31,1.05-.76.34-1.43.81-2.01,1.43l13.32,13.3,2.38-2.38-9.88-9.87c.72-.17,1.52-.27,2.38-.3Z" fill="#4d4d4d"/><polygon points="360.83 447.96 368.43 455.55 370.92 453.06 363.31 445.47 360.83 447.96" fill="#4d4d4d"/><path d="M384.78,462.17c1.34.49,2.6.62,3.78.37,1.18-.25,2.21-.81,3.08-1.68.92-.92,1.54-2.03,1.86-3.33.33-1.3.26-2.65-.19-4.05-.45-1.4-1.23-2.64-2.33-3.74-1.59-1.59-3.38-2.47-5.37-2.63-1.98-.16-3.96.44-5.92,1.79l2.03,2.91c1.39-1.03,2.71-1.52,3.96-1.48,1.25.04,2.35.54,3.31,1.5.97.97,1.47,2.06,1.48,3.27.02,1.21-.43,2.27-1.33,3.17-1.15,1.14-2.41,1.57-3.81,1.28-1.39-.29-2.62-.97-3.67-2.02-.1-.1-.22-.24-.37-.43l-2.45,1.89c.88.51,1.55,1,2.02,1.47,1.15,1.14,1.72,2.46,1.72,3.93,0,1.48-.56,2.78-1.7,3.92-1.19,1.19-2.59,1.79-4.2,1.79-1.61,0-2.99-.57-4.16-1.74-.98-.98-1.5-2.12-1.57-3.42-.06-1.3.46-2.79,1.58-4.48l-2.8-2.14c-1.51,1.84-2.21,3.87-2.1,6.09.11,2.22,1.06,4.21,2.82,5.98,1.96,1.96,4.19,2.97,6.7,3.03,2.51.06,4.64-.79,6.4-2.55,1.3-1.3,2.05-2.71,2.26-4.24.21-1.52-.15-3.02-1.07-4.48Z" fill="#4d4d4d"/><polygon points="315.16 402.18 322.76 409.77 325.25 407.29 317.65 399.69 315.16 402.18" fill="#4d4d4d"/><path d="M349.32,408.12l-2.02-2.02-22.25,3.86-2.27,2.27,8.74,8.73-4.82,4.82,2.47,2.47,4.82-4.82,2.72,2.72,2.27-2.27-2.72-2.72,13.06-13.04ZM333.79,418.69l-6.31-6.3,15.39-2.77-9.09,9.08Z" fill="#4d4d4d"/><polygon points="275.77 362.28 283.37 369.87 285.86 367.39 278.26 359.8 275.77 362.28" fill="#4d4d4d"/><path d="M299.83,371.7c-1.33-1.33-3.02-2.17-5.07-2.54l6.5-4.32,8.04,8.03,2.36-2.36-10.02-10.01-12.3,8.39,2.02,2.62c.94-.21,1.92-.18,2.92.1,1,.28,1.9.82,2.7,1.61,1.28,1.28,1.91,2.73,1.89,4.33-.02,1.61-.74,3.11-2.15,4.52-1.48,1.48-3.09,2.26-4.81,2.33-1.72.07-3.18-.49-4.37-1.67-.99-.99-1.52-2.15-1.58-3.49-.06-1.34.44-2.73,1.51-4.19l-2.82-2.38c-1.53,1.86-2.23,3.88-2.1,6.06.13,2.18,1.12,4.19,2.95,6.02,2.24,2.23,4.81,3.18,7.74,2.84,2.39-.27,4.5-1.31,6.32-3.13,1.92-1.91,2.88-4.08,2.89-6.51,0-2.43-.87-4.52-2.63-6.27Z" fill="#4d4d4d"/><polygon points="231.82 319.09 239.42 326.69 241.91 324.2 234.31 316.61 231.82 319.09" fill="#4d4d4d"/><path d="M255.74,328.95c-.94-.94-2.07-1.62-3.37-2.05-1.3-.42-2.7-.48-4.21-.16,2.03-2,3.82-3.31,5.36-3.95,1.54-.64,2.98-.86,4.33-.65,1.04.16,1.95.63,2.74,1.41.98.98,1.45,2.16,1.42,3.53-.04.84-.43,1.86-1.18,3.05l2.65,2.27c1.37-1.77,1.99-3.6,1.86-5.5-.12-1.9-.98-3.64-2.56-5.22-2.13-2.12-4.59-3.04-7.38-2.76-3.21.33-6.76,2.44-10.65,6.33-3.48,3.48-5.33,6.62-5.55,9.44-.22,2.81.71,5.25,2.77,7.31,1.21,1.21,2.58,2,4.11,2.38,1.53.38,3.11.29,4.74-.25,1.63-.54,3.08-1.44,4.34-2.7,1.92-1.92,2.91-4.07,2.97-6.44.05-2.37-.74-4.38-2.39-6.03ZM247.92,341.35c-1.59.09-2.91-.38-3.96-1.43-.71-.71-1.19-1.6-1.44-2.66-.24-1.06-.16-2.16.26-3.3.42-1.14,1.05-2.13,1.9-2.99,1.3-1.3,2.74-1.96,4.32-1.98,1.58-.02,2.93.52,4.05,1.64s1.66,2.46,1.6,4c-.06,1.54-.79,3.01-2.18,4.4s-2.97,2.21-4.56,2.31Z" fill="#4d4d4d"/><polygon points="190.18 276.8 197.78 284.4 200.26 281.91 192.66 274.32 190.18 276.8" fill="#4d4d4d"/><polygon points="1032.15 1011.9 1005.26 1039.12 1074.77 1081.8 1032.15 1011.9" fill="#4d4d4d"/><polygon points="5.75 12.82 48.02 82.93 75.05 55.83 5.75 12.82" fill="#4d4d4d"/><polygon points="984.77 949.72 981.95 946.9 963.73 965.11 924.32 925.75 942.55 907.54 939.73 904.73 921.51 922.93 882.1 883.57 900.33 865.36 897.51 862.55 879.29 880.76 839.88 841.39 858.1 823.19 855.29 820.38 837.06 838.58 797.66 799.22 815.88 781.01 813.07 778.2 794.84 796.41 755.44 757.04 773.66 738.84 770.85 736.02 752.62 754.23 713.21 714.87 731.44 696.66 728.63 693.85 710.4 712.06 670.99 672.69 689.22 654.49 686.4 651.67 668.18 669.88 628.77 630.52 647 612.31 644.18 609.5 625.96 627.7 586.55 588.34 604.78 570.13 601.96 567.32 583.73 585.53 544.33 546.16 562.55 527.96 559.74 525.15 541.51 543.35 502.11 503.99 520.33 485.78 517.52 482.97 499.29 501.18 459.89 461.81 478.11 443.61 475.3 440.79 457.07 459 417.66 419.64 435.89 401.43 433.08 398.62 414.85 416.83 375.44 377.46 393.67 359.25 390.85 356.44 372.63 374.65 333.22 335.29 351.45 317.08 348.63 314.27 330.41 332.47 291 293.11 309.23 274.9 306.41 272.09 288.18 290.3 248.78 250.93 267 232.73 264.19 229.92 245.96 248.12 206.56 208.76 224.78 190.55 221.97 187.74 203.74 205.95 164.34 166.58 182.56 148.38 179.75 145.56 161.52 163.77 122.11 124.41 140.34 106.2 137.52 103.39 119.3 121.59 64.41 66.77 58.78 72.39 113.67 127.22 95.3 145.57 98.12 148.38 116.48 130.03 155.89 169.39 137.52 187.74 140.34 190.55 158.71 172.21 198.11 211.57 179.75 229.92 182.56 232.73 200.93 214.38 240.33 253.75 221.97 272.09 224.78 274.9 243.15 256.56 282.55 295.92 264.19 314.27 267 317.08 285.37 298.73 324.78 338.1 306.41 356.44 309.22 359.26 327.59 340.91 367 380.27 348.63 398.62 351.45 401.43 369.81 383.08 409.22 422.45 390.85 440.8 393.67 443.61 412.03 425.26 451.44 464.62 433.07 482.97 435.89 485.78 454.26 467.44 493.66 506.8 475.3 525.15 478.11 527.96 496.48 509.61 535.88 548.98 517.52 567.32 520.33 570.13 538.7 551.79 578.11 591.15 559.74 609.5 562.55 612.31 580.92 593.96 620.33 633.33 601.96 651.67 604.77 654.49 623.14 636.14 662.55 675.5 644.18 693.85 647 696.66 665.36 678.32 704.77 717.68 686.4 736.03 689.22 738.84 707.58 720.49 746.99 759.85 728.62 778.2 731.44 781.01 749.81 762.67 789.21 802.03 770.85 820.38 773.66 823.19 792.03 804.84 831.43 844.21 813.07 862.55 815.88 865.37 834.25 847.02 873.66 886.38 855.29 904.73 858.1 907.54 876.47 889.19 915.88 928.56 897.51 946.9 900.32 949.72 918.69 931.37 958.1 970.73 939.73 989.08 942.55 991.89 960.91 973.55 1015.8 1028.37 1021.43 1022.75 966.54 967.92 984.77 949.72" fill="#4d4d4d"/><path d="M517.1,580.79c.29-1.35.24-2.65-.14-3.9-.38-1.25-1.11-2.41-2.19-3.49-1.47-1.46-3.08-2.29-4.83-2.46-1.75-.18-3.6.21-5.55,1.17-1.94.96-4.11,2.63-6.49,5.01-3.78,3.78-5.85,7.17-6.2,10.17-.28,2.5.55,4.72,2.49,6.66,1.48,1.47,3.09,2.3,4.85,2.47,1.76.17,3.61-.22,5.55-1.19,1.94-.97,4.09-2.63,6.45-4.99,2-2,3.43-3.73,4.31-5.21.87-1.48,1.46-2.89,1.75-4.24ZM500.74,593.13c-1.87.32-3.38-.08-4.51-1.21s-1.54-2.64-1.22-4.5c.32-1.87,2.13-4.45,5.44-7.76,3.31-3.3,6-5.14,8.08-5.52,1.64-.28,3.03.14,4.16,1.28s1.57,2.66,1.26,4.52c-.32,1.86-2.13,4.45-5.45,7.76-3.3,3.3-5.88,5.11-7.76,5.43Z" fill="#4d4d4d"/><path d="M551.51,615.48c-1.96-.11-3.96-.53-5.99-1.26l-2.39,2.39c1.05.49,2.35.93,3.88,1.32,1.53.4,2.88.61,4.05.64l-15.76,15.75,2.47,2.47,20.23-20.21-1.59-1.59c-1.3.44-2.93.6-4.89.49Z" fill="#4d4d4d"/><path d="M580.18,671.73c.87-.02,2.66.08,5.39.32,3.28.27,5.73.36,7.36.27,1.63-.1,2.99-.37,4.1-.82,1.11-.45,2.07-1.08,2.87-1.88,1.59-1.58,2.35-3.47,2.3-5.67-.05-2.2-1.05-4.26-2.98-6.19s-3.94-2.94-6.07-3.08c-2.13-.14-4.23.65-6.3,2.37l2.28,2.8c1.27-1.25,2.63-1.88,4.05-1.88,1.43,0,2.74.59,3.93,1.78,1.13,1.13,1.7,2.38,1.73,3.75.03,1.37-.45,2.55-1.43,3.53-.93.93-2.31,1.54-4.13,1.82-1.82.28-4.72.22-8.71-.17-2.57-.26-4.66-.32-6.29-.19-1.63.13-3.06.48-4.31,1.05-.76.34-1.43.81-2.01,1.43l13.32,13.3,2.38-2.38-9.88-9.87c.72-.17,1.52-.27,2.38-.3Z" fill="#4d4d4d"/><path d="M634.98,712.09c1.34.49,2.6.62,3.78.37,1.18-.25,2.21-.81,3.08-1.68.92-.92,1.54-2.03,1.86-3.33.33-1.3.26-2.65-.19-4.05-.45-1.4-1.23-2.64-2.33-3.74-1.59-1.59-3.38-2.47-5.37-2.63-1.98-.16-3.96.44-5.92,1.79l2.03,2.91c1.39-1.03,2.71-1.52,3.96-1.48,1.25.04,2.35.54,3.31,1.5.97.97,1.47,2.06,1.48,3.27.02,1.21-.43,2.27-1.33,3.17-1.15,1.14-2.41,1.57-3.81,1.28-1.39-.29-2.62-.97-3.67-2.02-.1-.1-.22-.24-.37-.43l-2.45,1.89c.88.51,1.55,1,2.02,1.47,1.15,1.14,1.72,2.46,1.72,3.93,0,1.48-.56,2.78-1.7,3.92-1.19,1.19-2.59,1.79-4.2,1.79-1.61,0-2.99-.57-4.16-1.74-.98-.98-1.5-2.12-1.57-3.42-.06-1.3.46-2.79,1.58-4.48l-2.8-2.14c-1.51,1.84-2.21,3.87-2.1,6.09.11,2.22,1.06,4.21,2.82,5.98,1.96,1.96,4.19,2.97,6.7,3.03,2.51.06,4.64-.79,6.4-2.55,1.3-1.3,2.05-2.71,2.26-4.24.21-1.52-.15-3.02-1.07-4.48Z" fill="#4d4d4d"/><path d="M686.99,745.43l-2.02-2.02-22.25,3.86-2.27,2.27,8.74,8.73-4.82,4.82,2.47,2.47,4.82-4.82,2.72,2.72,2.27-2.27-2.72-2.72,13.06-13.04ZM671.46,756l-6.31-6.3,15.39-2.77-9.09,9.08Z" fill="#4d4d4d"/><path d="M719.38,790.8c-1.33-1.33-3.02-2.17-5.07-2.54l6.5-4.32,8.04,8.03,2.36-2.36-10.02-10.01-12.3,8.39,2.02,2.62c.94-.21,1.92-.18,2.92.1,1,.28,1.9.82,2.7,1.61,1.28,1.28,1.91,2.73,1.89,4.33-.02,1.61-.74,3.11-2.15,4.52-1.48,1.48-3.09,2.26-4.81,2.33-1.72.07-3.18-.49-4.37-1.67-.99-.99-1.52-2.15-1.58-3.49-.06-1.34.44-2.73,1.51-4.19l-2.82-2.38c-1.53,1.86-2.23,3.88-2.1,6.06.13,2.18,1.12,4.19,2.95,6.02,2.24,2.23,4.81,3.18,7.74,2.84,2.39-.27,4.5-1.31,6.32-3.13,1.92-1.91,2.88-4.08,2.89-6.51,0-2.43-.87-4.52-2.63-6.27Z" fill="#4d4d4d"/><path d="M761.28,833.94c-.94-.94-2.07-1.62-3.37-2.05-1.3-.42-2.7-.48-4.21-.16,2.03-2,3.82-3.31,5.36-3.95,1.54-.64,2.98-.86,4.33-.65,1.04.16,1.95.63,2.74,1.41.98.98,1.45,2.16,1.42,3.53-.04.84-.43,1.86-1.18,3.05l2.65,2.27c1.37-1.77,1.99-3.6,1.86-5.5-.12-1.9-.98-3.64-2.56-5.22-2.13-2.12-4.59-3.04-7.38-2.76-3.21.33-6.76,2.44-10.65,6.33-3.48,3.48-5.33,6.62-5.55,9.44-.22,2.81.71,5.25,2.77,7.31,1.21,1.21,2.58,2,4.11,2.38,1.53.38,3.11.29,4.74-.25,1.63-.54,3.08-1.44,4.34-2.7,1.92-1.92,2.91-4.07,2.97-6.44.05-2.37-.74-4.38-2.39-6.03ZM753.46,846.34c-1.59.09-2.91-.38-3.96-1.43-.71-.71-1.19-1.6-1.44-2.66-.24-1.06-.16-2.16.26-3.3.42-1.14,1.05-2.13,1.9-2.99,1.3-1.3,2.74-1.96,4.32-1.98,1.58-.02,2.93.52,4.05,1.64,1.13,1.13,1.66,2.46,1.6,4-.06,1.54-.79,3.01-2.18,4.4-1.45,1.45-2.97,2.21-4.56,2.31Z" fill="#4d4d4d"/><path d="M801.68,864.75l9.87,9.86c-2.68.17-5.63.75-8.82,1.72-3.2.97-6.22,2.28-9.06,3.93-2.84,1.65-5.07,3.25-6.68,4.81l2.54,2.54c2.14-1.87,4.31-3.4,6.49-4.59,3.08-1.7,6.38-3.05,9.9-4.06,3.52-1,6.61-1.54,9.26-1.63l1.92-1.92-13.04-13.03-2.38,2.38Z" fill="#4d4d4d"/><path d="M845.62,922.47c1.37.62,2.65.83,3.83.63,1.18-.2,2.24-.77,3.17-1.7,1.47-1.46,2.17-3.24,2.12-5.33-.05-2.09-.96-4.02-2.71-5.77-1.75-1.75-3.65-2.65-5.7-2.7-2.05-.05-3.81.65-5.28,2.11-.97.97-1.56,2.05-1.76,3.24-.2,1.19.02,2.48.67,3.89-1.55-.91-3.1-1.25-4.65-1.03-1.55.22-2.98.98-4.29,2.29-1.76,1.76-2.62,3.83-2.58,6.23.04,2.39,1.06,4.58,3.04,6.57,1.99,1.99,4.18,3,6.57,3.05,2.39.05,4.45-.79,6.17-2.51,1.25-1.24,2-2.64,2.25-4.18.25-1.54-.04-3.13-.87-4.77ZM843.66,912.15c.84-.84,1.88-1.25,3.11-1.24,1.23.02,2.31.5,3.26,1.44s1.41,2.02,1.42,3.27c0,1.24-.44,2.32-1.35,3.23s-1.91,1.3-3.12,1.29c-1.21,0-2.29-.49-3.24-1.44-.98-.98-1.48-2.08-1.48-3.3,0-1.22.46-2.3,1.42-3.25ZM837.63,930.67c-1.53,0-2.89-.6-4.07-1.78-.76-.76-1.29-1.65-1.59-2.67-.3-1.02-.28-2.03.04-3.02.33-.99.84-1.84,1.55-2.55,1.15-1.15,2.5-1.73,4.03-1.74,1.53,0,2.88.57,4.05,1.74s1.79,2.57,1.81,4.14c.01,1.57-.58,2.95-1.77,4.14s-2.52,1.75-4.05,1.74Z" fill="#4d4d4d"/><path d="M896.75,957.08c-.38-1.79-1.23-3.34-2.54-4.65-1.81-1.81-3.95-2.7-6.4-2.66-2.45.04-4.7,1.08-6.74,3.12-1.98,1.98-3,4.15-3.05,6.51-.06,2.36.75,4.37,2.42,6.04,1,1,2.17,1.68,3.52,2.05,1.35.37,2.66.4,3.94.11-.21.23-.37.4-.48.51-1.03,1.03-2.16,1.91-3.39,2.65-1.24.74-2.33,1.22-3.28,1.43-.95.22-1.88.21-2.8-.01-.92-.22-1.76-.72-2.52-1.48-.89-.89-1.37-1.87-1.43-2.94-.06-1.07.36-2.27,1.28-3.58l-2.6-2.16c-1.38,1.78-2.01,3.61-1.89,5.48.12,1.87.97,3.59,2.55,5.17,1.48,1.48,3.18,2.38,5.08,2.68,1.9.31,3.89-.02,5.98-.99,2.08-.97,4.41-2.73,6.99-5.31,2.47-2.47,4.08-4.64,4.82-6.51.74-1.87.92-3.7.54-5.48ZM887.26,965.49c-1.54.06-2.88-.48-4.03-1.62s-1.69-2.49-1.66-4.06c.03-1.57.68-3,1.97-4.28,1.43-1.43,3-2.18,4.71-2.27,1.71-.08,3.12.43,4.22,1.52,1.06,1.06,1.56,2.39,1.48,3.97-.08,1.59-.83,3.09-2.25,4.51-1.42,1.42-2.9,2.16-4.44,2.22Z" fill="#4d4d4d"/><path d="M924.23,987.79c-1.96-.11-3.96-.53-5.99-1.26l-2.39,2.39c1.05.49,2.35.93,3.88,1.32,1.53.4,2.88.61,4.05.64l-15.76,15.75,2.47,2.47,20.23-20.21-1.59-1.59c-1.3.44-2.93.6-4.89.49Z" fill="#4d4d4d"/><path d="M205.19,160.03h722.35v221.4l-104.38,104.38-344.39,344.39h344.39v-196.79l104.38-104.38v405.54H153v-221.4l30.58-30.58,73.8-73.8,344.39-344.39h-344.39v196.79l-104.38,104.38V160.03h52.19ZM823.16,338.21v-73.8h-73.8l-491.98,491.98v73.8h73.8l491.98-491.98h0Z" fill="#29abe2" stroke="#000" stroke-miterlimit="10" stroke-width="4"/></g><g id="Layer_3"><path d="M446.96,960.5v83.92h-16.36v-83.92h16.36Z" stroke="#fff" stroke-miterlimit="10" stroke-width="2"/><path d="M462.12,989.94h15.35v7.05c2.89-4.03,8.05-8.81,16.86-8.81,4.78,0,11.83,1.38,16.11,6.67,3.77,4.66,4.28,10.07,4.28,15.35v34.22h-15.35v-29.69c0-3.02-.13-7.8-2.89-10.7-2.39-2.52-5.66-2.77-7.17-2.77-4.03,0-7.17,1.38-9.44,4.78-2.27,3.52-2.39,7.42-2.39,10.57v27.81h-15.35v-54.48Z" stroke="#fff" stroke-miterlimit="10" stroke-width="2"/><path d="M543.46,1003.02v41.4h-15.35v-41.4h-6.04v-13.08h6.04v-18.62h15.35v18.62h10.57v13.08h-10.57Z" stroke="#fff" stroke-miterlimit="10" stroke-width="2"/><path d="M614.04,1029.2c-1.64,4.03-7.8,16.99-26.8,16.99-8.81,0-15.48-2.52-20.89-7.68-6.04-5.66-8.56-12.71-8.56-21.26,0-10.82,4.4-17.49,8.3-21.39,6.42-6.29,13.97-7.67,20.51-7.67,11.07,0,17.49,4.4,21.26,8.93,5.79,6.92,6.54,15.48,6.54,21.39v1.26h-40.77c0,3.27.88,6.79,2.64,9.18,1.64,2.26,5.03,5.16,10.95,5.16s10.19-2.77,12.71-7.17l14.09,2.26ZM599.95,1009.94c-1.26-7.42-7.3-10.95-12.96-10.95s-11.58,3.65-12.83,10.95h25.79Z" stroke="#fff" stroke-miterlimit="10" stroke-width="2"/><path d="M666.01,989.94h15.35v51.96c0,8.3-.75,16.99-7.55,23.78-3.78,3.77-10.32,7.67-21.52,7.67-10.57,0-16.86-3.15-20.38-6.29-4.28-3.65-7.55-10.07-8.81-16.23h16.61c.63,2.52,2.01,5.03,3.77,6.54,3.02,2.77,7.17,2.89,9.31,2.89,4.4,0,7.3-1.51,9.31-3.4,3.52-3.4,3.9-7.68,3.9-12.08v-7.68c-5.28,8.05-12.58,9.06-16.73,9.06-7.3,0-13.59-2.26-18.87-7.42-4.03-4.03-8.68-11.07-8.68-21.64,0-8.56,3.15-16.48,8.43-21.64,4.78-4.66,11.45-7.3,18.75-7.3,10.19,0,14.97,5.54,17.11,8.81v-7.05ZM642.48,1005.54c-2.52,2.26-4.91,5.91-4.91,11.58,0,4.78,1.76,8.3,4.03,10.7,3.27,3.52,7.42,4.78,11.07,4.78s7.55-1.38,10.19-3.78c3.15-2.89,4.91-7.3,4.91-11.7,0-5.16-2.26-8.68-4.4-10.95-3.02-3.15-6.54-4.4-10.7-4.4-4.91,0-8.3,2.01-10.19,3.77Z" stroke="#fff" stroke-miterlimit="10" stroke-width="2"/><path d="M747.64,1029.2c-1.64,4.03-7.8,16.99-26.8,16.99-8.81,0-15.48-2.52-20.89-7.68-6.04-5.66-8.56-12.71-8.56-21.26,0-10.82,4.4-17.49,8.3-21.39,6.42-6.29,13.97-7.67,20.51-7.67,11.07,0,17.49,4.4,21.26,8.93,5.79,6.92,6.54,15.48,6.54,21.39v1.26h-40.77c0,3.27.88,6.79,2.64,9.18,1.64,2.26,5.03,5.16,10.95,5.16s10.19-2.77,12.71-7.17l14.09,2.26ZM733.54,1009.94c-1.26-7.42-7.3-10.95-12.96-10.95s-11.58,3.65-12.83,10.95h25.79Z" stroke="#fff" stroke-miterlimit="10" stroke-width="2"/><path d="M758.25,989.94h15.35v8.18c2.39-4.66,5.66-6.92,6.79-7.55,2.39-1.51,5.41-2.39,9.06-2.39,2.64,0,4.78.63,6.54,1.26l-2.01,14.34c-2.01-1.38-4.03-2.01-7.17-2.01-2.89,0-7.17.63-10.19,4.4-2.89,3.65-3.02,8.3-3.02,12.08v26.17h-15.35v-54.48Z" stroke="#fff" stroke-miterlimit="10" stroke-width="2"/><path d="M831.11,1002.9c-3.65-3.4-7.3-3.65-8.93-3.65-3.65,0-5.91,1.76-5.91,4.4,0,1.38.63,3.52,4.91,4.91l3.65,1.13c4.28,1.38,10.7,3.52,13.84,7.8,1.64,2.27,2.77,5.54,2.77,9.06,0,4.91-1.64,9.81-6.04,13.84-4.4,4.03-9.69,5.79-16.36,5.79-11.32,0-17.74-5.41-21.14-9.06l8.05-9.31c3.02,3.52,7.55,6.29,12.08,6.29,4.28,0,7.55-2.14,7.55-5.91,0-3.4-2.77-4.78-4.78-5.54l-3.52-1.26c-3.9-1.38-8.43-3.15-11.7-6.54-2.52-2.64-4.15-6.04-4.15-10.44,0-5.29,2.52-9.69,5.66-12.33,4.28-3.4,9.81-3.9,14.22-3.9,4.03,0,10.44.5,17.36,5.79l-7.55,8.93Z" stroke="#fff" stroke-miterlimit="10" stroke-width="2"/><path d="M255.46,959.34h26.8c5.66,0,13.21.63,18.5,5.79,3.02,2.89,5.41,7.8,5.41,14.34,0,5.41-1.38,9.69-3.9,13.09-2.77,3.77-6.04,5.54-8.81,6.42,4.28,1.01,7.42,3.02,9.56,5.03,3.9,3.77,5.41,7.93,5.41,13.34,0,8.93-3.52,14.72-6.79,17.99-6.67,6.67-16.48,7.93-25.29,7.93h-31.2l10.32-83.92ZM266.41,1028.17h7.05c3.65,0,9.56-.38,12.58-3.15,1.13-1.01,3.02-3.4,3.02-8.05,0-1.76-.38-4.4-2.26-6.29-2.77-2.77-8.56-2.89-10.32-2.89h-7.55l-2.52,20.38ZM270.69,993.44h3.9c3.27,0,7.8-.38,10.69-3.15,1.89-1.76,2.89-4.78,2.89-7.55,0-3.4-1.51-5.28-2.64-6.29-2.39-1.89-5.79-2.01-8.56-2.01h-4.03l-2.26,19Z" fill="#ff5e1f" stroke="#000" stroke-linejoin="round" stroke-width="3.52"/><path d="M342.34,987.15l-6.92,56.12h-18.12l6.92-56.12h18.12ZM335.67,952.67c5.91,0,10.57,4.66,10.57,10.57s-4.66,10.57-10.57,10.57-10.57-4.66-10.57-10.57,4.66-10.57,10.57-10.57Z" fill="#ff5e1f" stroke="#000" stroke-linejoin="round" stroke-width="3.52"/><path d="M397.35,987.15h18.12l-7.05,56.37c-.88,6.54-2.52,14.47-8.43,20.38-7.42,7.42-17.99,8.18-24.54,8.18-7.55,0-15.6-1.26-21.77-7.05-3.9-3.77-6.92-9.31-7.8-15.35h19.38c.5,2.01,1.76,4.15,3.4,5.54,2.01,1.64,4.91,2.26,7.93,2.26,5.54,0,8.56-2.52,9.94-4.15,2.26-2.64,3.4-7.05,3.77-10.44l.76-6.04c-5.03,7.17-12.21,7.93-17.24,7.93-5.66,0-11.58-.63-17.36-6.67-3.9-4.03-7.55-10.44-7.55-20.38s3.4-18.37,9.19-24.28c5.41-5.54,11.95-8.18,20.13-8.18,3.9,0,11.83.5,18.5,8.68l.63-6.79ZM371.68,1004.64c-2.52,2.52-4.15,7.17-4.15,11.32,0,3.52,1.26,7.42,3.77,9.81,2.26,2.14,5.91,3.4,9.06,3.4,3.4,0,7.42-1.13,9.94-3.65,2.77-2.64,4.66-7.8,4.66-11.95,0-3.52-1.51-7.17-3.65-9.19-1.76-1.76-4.66-3.4-9.69-3.4s-8.18,1.89-9.94,3.65Z" fill="#ff5e1f" stroke="#000" stroke-linejoin="round" stroke-width="3.52"/><path d="M184.29,125.4h-15.37l-13.95-12.52V40.29h37.78c16.69,0,30.86,10.1,30.86,30.86,0,14.83-6.81,23.94-16.58,27.89l22.84,26.36h-21.3l-20.32-23.39h-3.95v23.39ZM184.29,66.76v8.79h5.27c3.84,0,4.94-2.42,4.94-4.5,0-2.64-1.76-4.28-4.83-4.28h-5.38Z" fill="#231f20"/><path d="M279.23,74.59v28.37c0,14.07-10.76,22.45-23.98,22.45s-24.06-8.38-24.06-22.45v-37.13h10.76l9.76,8.76v29.29c0,3.61,1.61,4.38,3.54,4.38s3.46-.77,3.46-4.38v-38.05h10.76l9.76,8.76Z" fill="#231f20"/><path d="M286,125.4v-50.81l9.76-8.76h16.14c17.99,0,30.6,11.76,30.6,29.75s-11.61,29.83-32.21,29.83h-24.29ZM309.9,106.88c7.76,0,12.07-4.3,12.07-11.22s-4.31-11.3-12.07-11.3h-3.38v22.52h3.38Z" fill="#231f20"/><path d="M379.33,65.83h11.22l6.07,8.76-18.22,27.37v23.45h-10.76l-9.76-8.76v-16.91l-16.76-25.21,6-8.69h11.38l10.38,15.68,10.45-15.68Z" fill="#231f20"/><path d="M472.58,125.4l-41.73-72.04,9-13.07h16.58l24.38,42.17,24.38-42.17h16.47l9.12,13.18-41.73,71.93h-16.47Z" fill="#231f20"/><path d="M580.33,84.35h-27.52v2h17.76l9.76,8.76v9.76h-27.52v2h17.76l9.76,8.76v9.76h-38.28l-9.76-8.76v-50.81h38.28l9.76,8.76v9.76Z" fill="#231f20"/><path d="M608.23,65.83v41.05h7.53l9.3-8.23h10.69v17.99l-9.76,8.76h-38.28v-50.81l9.76-8.76h10.76Z" fill="#231f20"/><path d="M626.53,65.83h49.66l9.76,8.76v9.76h-19.45v41.05h-10.76l-9.76-8.76v-32.29h-9.61l-9.84-8.76v-9.76Z" fill="#231f20"/><path d="M724.16,125.4v-20.53h-14.91v11.76l-9.76,8.76h-10.76v-50.81l9.76-8.76h10.76v20.53h14.91v-11.76l9.76-8.76h10.76v50.81l-9.76,8.76h-10.76Z" fill="#231f20"/><path d="M799.5,74.59v28.37c0,14.07-10.76,22.45-23.98,22.45s-24.06-8.38-24.06-22.45v-37.13h10.76l9.76,8.76v29.29c0,3.61,1.61,4.38,3.54,4.38s3.46-.77,3.46-4.38v-38.05h10.76l9.76,8.76Z" fill="#231f20"/><path d="M833.02,125.4h-29.21v-9.76l9.23-8.23v-23.06h-9.23v-9.76l9.76-8.76h29.21v9.76l-9.22,8.23v23.06h9.22v9.76l-9.76,8.76Z" fill="#231f20"/><path d="M870.61,114.26c.54-.77.77-1.77.77-3.08,0-2.46-1.92-4.77-4.92-6.76l-9.61-6.38c-4.46-2.92-8.76-7.76-8.76-15.37,0-10.76,9.23-16.84,18.6-16.84h9.15c10.53,0,18.3,7.46,19.53,13.38l-8.3,7.46h-10.76c-.15-4.69-2.92-8.46-7-9.61-.46.77-.69,1.69-.69,3,0,2.46,1.15,4.23,5,6.76l9.46,6.3c4.54,3,8.84,7.84,8.84,15.45,0,9.99-7.69,16.83-18.6,16.83h-9.15c-10.53,0-18.3-7.46-19.53-13.38l8.3-7.46h10.76c.08,4.77,2.92,8.46,6.92,9.69Z" fill="#231f20"/><path d="M913.6,40.18l13.95,12.52v13.95c0,8.79-4.28,11.64-12.63,11.97l-13.95-12.52-2.09-8.68h3.41l-3.62-3.29v-13.95h14.93Z" fill="#231f20"/><path d="M213.06,110.69h-13.29l-20.21-23.39h-11.42v23.39h-10.21V43.26h34.7c16.69,0,28,10.43,28,27.89,0,12.96-6.26,21.96-15.7,25.48l-6.37-7.36c7.36-2.53,11.86-8.68,11.86-18.12,0-11.75-7.14-19.11-20.21-19.11h-22.07v26.47h21.19c5.27,0,8.02-3.18,8.02-7.47,0-4.61-3.4-7.25-7.91-7.25h-6.04l-9.88-8.79h16.47c11.64,0,17.46,6.48,17.46,16.14s-4.83,15.15-14.61,16.14l20.21,23.39ZM178.8,122.44h-8.57l-9.88-8.79h8.68l9.77,8.79ZM171.11,56.88l10.21,9.23v9.44h-10.21v-18.67ZM171.11,111.45v-19.33l10.21,9.22v19.22l-10.21-9.12ZM173.53,90.26h4.5l7.69,8.79h-2.31l-9.88-8.79ZM202.41,113.65h13.18l7.69,8.79h-13.29l-7.58-8.79Z" fill="#ff5e1f"/><path d="M277.15,102.95c0,12.92-9.84,20.37-21.91,20.37s-21.99-7.46-21.99-20.37v-33.75l7.15,6.38v28.67c0,9.76,6.46,14.76,14.76,14.76s14.84-5,14.84-14.76v-35.05l7.15,6.38v27.37ZM247.94,74.05h-6.07l-6.84-6.15h6l6.92,6.15ZM260.78,67.9h7.15v36.36c0,8.61-5.77,12.68-12.61,12.68-7.23,0-12.84-4.07-12.84-12.76v-28.06h7.15v27.75c0,4.77,2.54,6.46,5.54,6.46s5.61-1.69,5.61-6.46v-35.98Z" fill="#ff5e1f"/><path d="M311.9,67.9c16.84,0,28.52,10.84,28.52,27.67s-10.69,27.75-30.13,27.75h-22.22v-47.2h21.83c13.22,0,21.29,7.92,21.29,19.53s-7.84,19.45-21.29,19.45h-10.84l6.84-6.15h4c8.92,0,14.15-5.23,14.15-13.3s-5.23-13.38-14.15-13.38h-14.68v34.9h14.68c14.61,0,23.37-8.92,23.37-21.52s-8.99-21.6-23.37-21.6h-20.14l6.92-6.15h15.22ZM297.3,84.35h7.15v22.99l-7.15,6.46v-29.44Z" fill="#ff5e1f"/><path d="M344.04,74.05l4.23-6.15h8.23l-4.23,6.15h-8.23ZM363.72,92.88l16.6-24.98h7.84l-21.06,31.75v22.37l-7.15-6.38v-16.53l-15.38-22.98h7.92l11.22,16.76ZM358.26,69.21l9.38,14.15-3.92,5.84-9.53-14.22,4.07-5.77ZM376.33,123.33h-7.15v-23.14l20.83-31.36,4.07,5.84-17.76,26.68v21.99Z" fill="#ff5e1f"/><path d="M473.45,101.35l33.6-58.09h11.09l-44.81,77.42-38-65.67h11.2l26.91,46.34ZM435.46,52.04l6.04-8.79h11.64l-6.04,8.79h-11.64ZM455.55,45.13l23.39,40.41-5.49,9.55-23.94-41.18,6.04-8.79ZM475.98,122.44l45.03-77.75,6.15,8.79-39.97,68.97h-11.2Z" fill="#ff5e1f"/><path d="M541.5,74.05v47.97l-7.15-6.38v-47.74h34.67v6.15h-27.52ZM543.58,77.43l7.15,6.46v12.76h27.52v6.15h-27.52v14.38h27.52v6.15h-34.67v-45.89ZM545.35,76.13h24.29l6.84,6.15h-24.29l-6.84-6.15ZM569.72,88.43l6.76,6.15h-23.68v-6.15h16.91ZM569.64,108.95l6.84,6.15h-23.68v-6.15h16.84ZM578.25,80.97l-7.15-6.38v-5.38l7.15,6.38v5.38Z" fill="#ff5e1f"/><path d="M596.93,117.18h35.05l-6.92,6.15h-35.29v-47.2h7.15v41.05ZM598.39,67.9h6l-6.84,6.15h-6.07l6.92-6.15ZM599.01,113.87v-38.21l7.15-6.46v38.13l-7.15,6.53ZM626.53,100.73h7.15v14.38h-32.9l6.76-6.15h18.99v-8.23ZM619,106.88l5.46-4.84v4.84h-5.46Z" fill="#ff5e1f"/><path d="M628.61,74.51v-5.3l7.15,6.38v5.3l-7.15-6.38ZM648.06,115.1v-41.05h-10.84l-6.84-6.15h44.89l6.76,6.15h-26.83v41.05h-7.15ZM637.83,76.13h8.15v6.15h-8.15v-6.15ZM662.66,123.33h-6l-6.92-6.15h6.07l6.84,6.15ZM657.28,115.64v-38.28l7.15,6.46v38.21l-7.15-6.38ZM683.88,76.13v6.15h-18.07l-6.77-6.15h24.83Z" fill="#ff5e1f"/><path d="M726.24,96.65v-21.06l7.15-6.38v46.43l-7.15,6.38v-19.22h-28.29v20.53h-7.15v-47.2h7.15v20.52h28.29ZM699.41,67.9h6l-6.84,6.15h-6.07l6.92-6.15ZM700.02,75.59l7.15-6.38v17.68l-7.15,6.38v-17.68ZM700.02,122.02v-17.14h7.15v10.76l-7.15,6.38ZM708.63,88.43h15.53v6.15h-22.45l6.92-6.15ZM734.85,117.18h6.07l-6.92,6.15h-6l6.84-6.15ZM735.46,67.9h7.15v47.2h-7.15v-47.2Z" fill="#ff5e1f"/><path d="M797.43,102.95c0,12.92-9.84,20.37-21.91,20.37s-21.99-7.46-21.99-20.37v-33.75l7.15,6.38v28.67c0,9.76,6.46,14.76,14.76,14.76s14.84-5,14.84-14.76v-35.05l7.15,6.38v27.37ZM768.21,74.05h-6.07l-6.84-6.15h6l6.92,6.15ZM781.05,67.9h7.15v36.36c0,8.61-5.77,12.68-12.61,12.68-7.23,0-12.84-4.07-12.84-12.76v-28.06h7.15v27.75c0,4.77,2.54,6.46,5.54,6.46s5.61-1.69,5.61-6.46v-35.98Z" fill="#ff5e1f"/><path d="M813.03,69.21v5.38l-7.15,6.38v-5.38l7.15-6.38ZM831.48,117.18v6.15h-25.6v-6.15h9.22v-33.29l7.15-6.38v39.67h9.22ZM807.58,82.28l6.84-6.15h6.23l-6.92,6.15h-6.15ZM807.73,115.1l5.3-4.84v4.84h-5.3ZM815.11,74.05v-6.15h25.6v6.15h-9.23v33.44l-7.15,6.3v-39.74h-9.22ZM826.02,115.1l6.84-6.15h6.07l-6.84,6.15h-6.07ZM833.56,76.13h5.3l-5.3,4.84v-4.84ZM833.56,122.02v-5.38l7.15-6.38v5.38l-7.15,6.38Z" fill="#ff5e1f"/><path d="M854.31,113.41c1.61,4.07,4.77,7.92,9.61,10.07-6.61-.08-13.99-3.69-16.68-10.07h7.07ZM853.85,106.65h6l-5.23,4.69h-6l5.23-4.69ZM868.38,103.34l-9.99-6.69c-4.46-2.92-8.23-7.3-8.23-13.99,0-9.61,8.3-14.76,16.53-14.76,9.15,0,14.99,4.92,16.99,10.61l-5.77,5.07c-1.46-5.61-5.46-9.07-11.45-9.07-5.15,0-9.15,3.15-9.15,8.23,0,4.23,2.69,7.46,6.92,10.3l9.61,6.3c4.07,2.69,6.76,5.23,6.76,9.15s-3.07,6.15-7.07,6.15h-.85c.46-.92.77-2.08.77-3.46,0-3.38-1.77-5.69-5.07-7.84ZM882.68,108.49c0-4.23-2.69-7.53-7-10.38l-9.76-6.38c-3.84-2.54-6.53-5.07-6.53-8.99s3.08-6.15,7.07-6.15c.23,0,.54,0,.77.08-.46.92-.69,2-.69,3.38,0,3.38,1.77,5.69,5.3,8l9.69,6.46c4.69,3.15,8.3,7.38,8.3,14.07,0,8.84-6.77,14.76-16.53,14.76-9.22,0-14.99-4.92-16.99-10.61l5.77-5.15c1.38,5.69,5.38,9.15,11.45,9.15,5.15,0,9.15-3.15,9.15-8.23ZM885.68,77.82c-1.69-4.07-4.84-7.84-9.61-10.07,6.53.08,13.99,3.77,16.68,10.07h-7.07ZM886.14,84.58h-6l5.23-4.69h6l-5.23,4.69Z" fill="#ff5e1f"/><path d="M911.84,53.91v8.46l-10.43-9.33v-8.46l10.43,9.33ZM911.84,68.63l1.1,4.39-9.44-8.46-1.1-4.39h2.96l7.25,6.48h3.84c0,1.43-.88,1.98-2.75,1.98h-1.87ZM903.82,42.93h8.68l9.99,9.01h-8.68l-9.99-9.01ZM915.35,71.26c2.42-.22,4.06-1.54,4.06-4.61v-2.75h-4.83v-9.22h10.21v11.97c0,7.14-3.18,8.57-8.35,9l-1.1-4.39Z" fill="#ff5e1f"/><path d="M401.72,865.88l-4.51,36.72h-2.58l4.51-36.72h-10.13l.29-2.34h22.84l-.29,2.34h-10.13Z" fill="#fff"/><path d="M425.27,878.7l-1.76,14.41c-.35,2.75-.06,5.09,1.46,6.5,1.05.94,2.64,1.41,4.1,1.41,2.11,0,3.81-.76,4.86-1.87.76-.82,1.7-2.46,2.11-6.03l1.76-14.41h2.34l-1.99,15.05c-.35,2.52-.7,5.04-2.4,6.97-2.05,2.28-4.92,2.52-6.79,2.52s-4.22-.35-5.97-2.17c-2.4-2.52-2.05-5.92-1.82-7.85l1.76-14.52h2.34Z" fill="#fff"/><path d="M459.07,878.7h2.34l-.35,3.1c.47-.88,1.29-1.93,2.28-2.58.94-.64,2.23-1.05,3.51-1.05.35,0,1.35.06,2.34.59l-1.41,2.11c-.23-.18-.76-.47-1.7-.47-1.17,0-2.4.59-3.28,1.52-1.93,2.05-2.46,5.74-2.81,8.67l-1.52,12.01h-2.34l2.93-23.89Z" fill="#fff"/><path d="M490.04,859.9l-2.81,22.72c.7-1,1.76-2.17,3.34-3.05,1.64-.94,3.51-1.41,5.56-1.41,3.28,0,6.21,1.17,8.08,3.04,1.7,1.7,3.1,4.45,3.1,8.08,0,4.22-1.52,8.02-4.04,10.54-1.76,1.7-4.45,3.4-8.55,3.4-2.05,0-4.1-.47-5.86-1.7-1.46-1-2.69-2.52-3.46-3.98l-.64,5.04h-2.34l5.27-42.69h2.34ZM501.52,898.5c2.05-1.99,3.34-5.68,3.34-9.19,0-3.1-1.29-5.15-2.46-6.38-1.64-1.64-3.98-2.52-6.21-2.52-2.52,0-5.04,1-6.85,2.75-2.05,1.99-3.28,5.21-3.28,8.32s1.17,5.62,2.69,7.14c1.35,1.35,3.34,2.4,6.33,2.4s5.09-1.17,6.44-2.52Z" fill="#fff"/><path d="M545.88,881.51c1.76,1.76,2.99,4.39,2.99,8.26,0,4.57-1.76,7.91-3.92,9.96-1.93,1.82-4.98,3.51-9.78,3.51-3.22,0-6.15-.88-8.43-3.28-1.87-1.93-3.16-4.92-3.16-8.32,0-3.69,1.52-7.5,3.98-9.9,2.52-2.4,6.09-3.57,9.43-3.57s6.79,1.23,8.9,3.34ZM542.9,898.32c1.7-1.58,3.51-4.27,3.51-8.32s-1.87-6.09-2.52-6.79c-1.46-1.52-3.81-2.81-7.14-2.81-3.05,0-5.5,1.11-7.26,2.69-2.28,2.05-3.46,5.21-3.46,8.2,0,2.81,1.05,5.39,2.69,7.09,1.17,1.23,3.28,2.64,6.79,2.64,2.93,0,5.39-.88,7.38-2.69Z" fill="#fff"/><path d="M571.18,884.03l-2.28,18.56h-2.58l4.8-39.06h7.55c1.87,0,5.45.23,7.91,2.75,1.17,1.17,2.4,3.22,2.4,6.56s-1.17,6.15-2.87,7.91c-1.52,1.58-4.39,3.28-9.9,3.28h-5.04ZM571.47,881.69h5.15c2.23,0,5.09-.29,7.2-2.28,1.23-1.17,2.34-3.16,2.34-6.44,0-1.46-.23-3.22-1.7-4.8-2.11-2.28-4.68-2.28-6.91-2.28h-4.16l-1.93,15.81Z" fill="#fff"/><path d="M623.18,878.7h2.34l-2.93,23.89h-2.34l.47-3.69c-.94,1.29-2.11,2.4-3.51,3.1-1.41.7-3.22,1.23-5.5,1.23-2.75,0-5.39-.64-7.61-2.75-1.46-1.35-3.46-4.04-3.46-8.67,0-3.92,1.35-7.79,4.04-10.37,1.76-1.7,4.51-3.28,8.84-3.28,1.87,0,3.98.35,5.8,1.58,1.41.94,2.58,2.28,3.28,3.63l.59-4.68ZM606.31,883.03c-1.93,1.93-3.22,5.21-3.22,8.61,0,3.04,1.17,5.62,2.75,7.14,1.99,1.87,4.39,2.23,6.09,2.23,2.23,0,3.98-.53,5.68-1.76,3.51-2.58,4.33-7.03,4.33-9.6,0-2.87-.94-5.33-2.46-6.85-1-1.05-2.99-2.4-6.44-2.4-2.63,0-4.92.82-6.73,2.63Z" fill="#fff"/><path d="M663.07,884.32c-.88-1-2.11-2.05-3.28-2.69-1.29-.7-2.87-1.23-4.74-1.23-4.45,0-7.03,2.17-7.91,3.1-2.23,2.23-3.16,5.5-3.16,8.2,0,2.34.88,4.92,2.46,6.68,2.05,2.23,4.74,2.64,6.74,2.64s3.34-.29,4.92-1.11c1.76-.94,2.93-2.11,3.75-3.16l-.41,3.4c-.94.76-2.23,1.64-3.4,2.17-1.93.82-4.04.94-4.98.94-4.1,0-6.68-1.41-8.43-3.16-1.76-1.82-3.1-4.63-3.1-8.37,0-4.33,1.82-7.85,3.98-9.96,2.22-2.17,5.45-3.57,9.49-3.57,2.69,0,4.63.82,5.21,1.05,1.11.47,2.28,1.23,3.28,1.99l-.41,3.1Z" fill="#fff"/><path d="M685.66,859.9l-3.57,29.05,11.07-10.25h3.04l-11.42,10.48,11.6,13.41h-2.99l-10.31-11.83-1.41,1.23-1.29,10.6h-2.34l5.27-42.69h2.34Z" fill="#fff"/></g></svg>