<?xml version="1.0" encoding="UTF-8"?><svg xmlns="http://www.w3.org/2000/svg" width="1010" height="701.73" viewBox="0 0 1010 701.73"><g id="Layer_2"><path d="M22.09,621.66v-19.62h38.83v-107.69l-39.03,29.02v-23.42l33.43-24.42h27.22v126.51h31.43v19.62H22.09Z" fill="#f15a24"/><path d="M167.87,623.66c-5.47,0-9.78-1.57-12.91-4.7-3.14-3.13-4.7-7.37-4.7-12.71s1.57-9.84,4.7-13.11c3.13-3.27,7.44-4.9,12.91-4.9s9.77,1.64,12.91,4.9c3.13,3.27,4.7,7.64,4.7,13.11s-1.57,9.58-4.7,12.71c-3.14,3.13-7.44,4.7-12.91,4.7Z" fill="#29abe2"/><path d="M224.58,621.66v-20.42l48.24-51.04c5.87-6.41,10.21-12.24,13.01-17.51,2.8-5.27,4.2-10.44,4.2-15.51,0-7.61-2.1-13.58-6.3-17.92-4.2-4.33-9.98-6.5-17.31-6.5s-13.38,2.24-17.71,6.71c-4.34,4.47-6.51,10.58-6.51,18.32h-21.62c.4-13.48,4.74-24.22,13.01-32.23,8.27-8.01,19.28-12.01,33.03-12.01s24.69,3.84,32.83,11.51c8.14,7.68,12.21,18.12,12.21,31.33,0,7.48-2,14.98-6,22.52-4,7.54-10.41,15.98-19.22,25.32l-36.03,37.83h63.45v19.62h-89.28Z" fill="#93278f"/><path d="M381.63,623.66c-9.21,0-17.18-1.74-23.92-5.21-6.74-3.47-11.98-8.37-15.71-14.71-3.74-6.34-5.6-13.71-5.6-22.12h21.62c0,7.34,2.1,13.04,6.31,17.11,4.2,4.07,10.04,6.1,17.51,6.1s13.48-2.1,17.61-6.3c4.13-4.2,6.21-9.84,6.21-16.91v-10.41c0-7.47-2.1-13.24-6.3-17.31-4.2-4.07-10.04-6.11-17.51-6.11h-16.41v-18.01l33.23-35.23h-56.05v-19.02h79.87v18.82l-33.23,35.03c11.74,1.2,21.02,5.5,27.82,12.91s10.21,16.98,10.21,28.72v10.61c0,8.41-1.9,15.78-5.7,22.12-3.8,6.34-9.11,11.24-15.91,14.71-6.81,3.47-14.81,5.21-24.02,5.21Z" fill="#93278f"/><path d="M518.22,621.66v-30.43h-65.46v-32.43l53.65-83.27h23.82l-56.45,88.47v7.81h44.44v-34.23h21.62v84.07h-21.62Z" fill="#93278f"/><path d="M612.56,623.66c-8.94,0-16.75-1.77-23.42-5.3-6.67-3.53-11.84-8.51-15.51-14.91-3.67-6.41-5.5-13.88-5.5-22.42v-28.82c0-8.54,1.83-16.01,5.5-22.42,3.67-6.41,8.84-11.38,15.51-14.91,6.67-3.53,14.48-5.3,23.42-5.3s16.95,1.77,23.62,5.3c6.67,3.54,11.84,8.51,15.51,14.91,3.67,6.41,5.5,13.88,5.5,22.42v19.62h-68.26v9.21c0,16.68,7.94,25.02,23.82,25.02,12.94,0,20.42-4.33,22.42-13.01h21.42c-1.6,9.34-6.41,16.78-14.41,22.32-8.01,5.54-17.88,8.31-29.62,8.31ZM588.94,552.2v5l47.24-.2v-5c0-8.14-2-14.38-6-18.72-4-4.33-9.88-6.51-17.61-6.51s-13.61,2.2-17.62,6.61c-4,4.4-6,10.68-6,18.82Z" fill="#006837"/><path d="M688.88,565.41v-19.62h64.05v19.62h-64.05Z" fill="#2e3192"/><path d="M827.3,623.66c-12.68,0-22.95-3.23-30.83-9.71-7.88-6.47-12.28-15.18-13.21-26.12h21.62c.53,5.34,2.73,9.48,6.61,12.41,3.87,2.94,9.21,4.4,16.01,4.4,7.61,0,13.38-2.03,17.31-6.1,3.93-4.07,5.91-9.84,5.91-17.31v-14.21c0-7.34-1.94-13.04-5.81-17.12-3.87-4.07-9.61-6.1-17.21-6.1-4.8,0-8.94,1.13-12.41,3.4-3.47,2.27-6,5.27-7.61,9.01h-21.42l1-80.67h79.67v19.62h-59.05l-.4,45.44h.6c1.2-4.67,4.13-8.34,8.81-11.01,4.67-2.67,10.61-4,17.82-4,11.74,0,20.95,3.64,27.62,10.91,6.67,7.28,10.01,17.45,10.01,30.53v14.21c0,13.08-3.97,23.42-11.91,31.03-7.94,7.61-18.99,11.41-33.13,11.41Z" fill="#2e3192"/><path d="M945.47,623.66c-9.74,0-18.25-2-25.52-6-7.28-4-12.95-9.57-17.01-16.71-4.07-7.14-6.11-15.51-6.11-25.12,0-6.27,1.17-12.81,3.5-19.62,2.33-6.81,5.71-14.08,10.11-21.82l33.63-58.85h23.42l-40.03,68.06,1,.8c2.53-3.87,6-6.91,10.41-9.11,4.4-2.2,9.47-3.3,15.21-3.3,7.87,0,14.78,1.84,20.72,5.5,5.94,3.67,10.57,8.84,13.91,15.51,3.33,6.67,5,14.41,5,23.22,0,9.48-2.04,17.78-6.11,24.92-4.07,7.14-9.71,12.68-16.91,16.61s-15.61,5.91-25.22,5.91ZM945.27,604.85c8.01,0,14.51-2.57,19.52-7.71,5-5.14,7.51-11.98,7.51-20.52s-2.5-15.24-7.51-20.52c-5-5.27-11.51-7.91-19.52-7.91s-14.51,2.64-19.52,7.91c-5,5.27-7.51,12.11-7.51,20.52s2.5,15.38,7.51,20.52c5,5.14,11.51,7.71,19.52,7.71Z" fill="#2e3192"/><path d="M119.59,295.97c13.08,2.8,20.36,12.52,20.36,26.71,0,22.04-17.93,37.18-42.41,37.18H27.68l15.32-124.6h55.86c19.99,0,31.95,5.79,38.11,18.31,2.06,4.48,3.18,9.53,3.18,13.45,0,14.76-7.47,24.85-20.74,27.84l.19,1.12ZM77.18,309.24l-2.62,21.48h2.99c13.26,0,19.05-3.36,19.05-12.89,0-5.98-3.55-8.59-11.77-8.59h-7.66ZM82.6,265.15l-2.24,17.93h3.92c9.71,0,14.01-2.8,14.01-9.71,0-5.6-3.36-8.22-9.34-8.22h-6.35Z" fill="#93278f" stroke="#000" stroke-miterlimit="10" stroke-width="5.66"/><path d="M205.9,272.62l-10.65,87.24h-43.15l10.65-87.24h43.15ZM212.25,240.67c0,11.77-10.83,21.11-25.03,21.11-13.26,0-23.73-8.78-23.73-19.99s11.4-21.48,24.66-21.48,24.1,9.53,24.1,20.36Z" fill="#93278f" stroke="#000" stroke-miterlimit="10" stroke-width="5.66"/><path d="M326.4,272.62l-9.71,78.65c-2.43,20.55-7.1,30.45-18.12,38.67-10.65,8.22-25.22,12.7-41.29,12.7-12.14,0-27.65-2.99-39.79-7.66-1.31-.37-3.18-1.12-5.6-2.24l11.58-28.4c11.02,6.73,18.68,9.34,28.02,9.34s17.19-4.11,20.74-10.65c2.05-4.11,2.8-6.73,5.23-18.68l-1.31-.37c-5.6,12.14-12.52,16.44-25.41,16.44-20.74,0-36.06-17.56-36.06-41.29,0-27.65,18.87-49.5,42.78-49.5,13.08,0,21.3,5.42,25.78,17.75l1.31-.37-.37-5.04-.19-6.35-.19-2.99h42.59ZM280.07,316.52c0-7.1-4.3-12.33-10.27-12.33-6.91,0-12.52,6.16-12.52,13.64,0,6.91,4.48,11.58,10.65,11.58,7.1,0,12.14-5.42,12.14-12.89Z" fill="#93278f" stroke="#000" stroke-miterlimit="10" stroke-width="5.66"/><path d="M361.53,235.26c17.37,0,32.51,1.87,46.33,12.14,15.13,11.4,23.91,29.52,23.91,50.25s-8.59,38.67-25.03,50.25c-14.57,10.27-28.21,11.96-45.58,11.96h-25.78v-124.6h26.15ZM354.43,341.93h8.22c9.34,0,22.23-.75,33.07-8.78,8.59-6.54,17-18.5,17-35.5s-7.85-29.33-16.81-35.87c-10.84-7.85-24.1-8.59-33.25-8.59h-8.22v88.74Z" stroke="#fff" stroke-miterlimit="10" stroke-width="3"/><path d="M522.75,341.93c-3.36,5.98-8.22,11.21-13.26,14.38-6.35,4.11-14.76,5.98-23.17,5.98-10.46,0-19.06-2.62-26.53-10.09-7.47-7.47-11.58-18.31-11.58-30.08s4.3-23.91,12.52-32.32c6.54-6.54,15.13-10.65,26.34-10.65,12.52,0,20.55,5.42,25.22,10.27,10.09,10.46,11.02,25.03,11.02,33.25v2.24h-56.42c.37,5.6,2.8,11.96,6.73,15.88,4.3,4.3,9.53,5.04,14.01,5.04,5.04,0,8.78-1.12,12.52-3.92,3.18-2.43,5.6-5.6,7.29-8.59l15.32,8.59ZM504.63,309.98c-.75-4.3-2.8-8.03-5.6-10.65-2.43-2.24-6.35-4.48-12.33-4.48-6.35,0-10.46,2.62-12.89,5.04-2.62,2.43-4.67,6.17-5.6,10.09h36.43Z" stroke="#fff" stroke-miterlimit="10" stroke-width="3"/><path d="M603.27,305.31c-8.41-8.22-16.63-9.71-22.23-9.71-8.59,0-14.01,3.55-17.37,6.91-3.36,3.36-6.72,9.34-6.72,18.12s3.55,15.32,7.1,18.87c4.11,3.92,9.9,6.35,16.63,6.35,7.47,0,16.25-2.99,22.6-10.09v20.36c-4.48,2.8-11.77,6.17-23.91,6.17-13.08,0-22.42-3.74-29.89-11.58-5.6-5.79-11.21-15.13-11.21-29.52s6.17-24.66,11.96-30.45c6.17-6.17,16.07-11.58,31.57-11.58,5.98,0,13.08.93,21.48,5.6v20.55Z" stroke="#fff" stroke-miterlimit="10" stroke-width="3"/><path d="M629.99,236.94c6.73,0,11.77,5.04,11.77,11.77s-5.04,11.77-11.77,11.77-11.77-5.04-11.77-11.77,5.04-11.77,11.77-11.77ZM639.14,281.21v78.65h-18.31v-78.65h18.31Z" stroke="#fff" stroke-miterlimit="10" stroke-width="3"/><path d="M662.3,281.21h18.31v7.29c6.16-7.47,13.45-9.34,19.43-9.34,8.22,0,15.88,3.92,20.36,11.58,6.54-9.34,16.44-11.58,23.35-11.58,9.53,0,17.93,4.48,22.42,12.33,1.5,2.62,4.11,8.41,4.11,19.8v48.57h-18.31v-43.34c0-8.78-.93-12.33-1.68-14.01-1.12-2.99-3.92-6.91-10.46-6.91-4.48,0-8.41,2.43-10.84,5.79-3.18,4.48-3.55,11.21-3.55,17.93v40.54h-18.31v-43.34c0-8.78-.93-12.33-1.68-14.01-1.12-2.99-3.92-6.91-10.46-6.91-4.48,0-8.41,2.43-10.83,5.79-3.18,4.48-3.55,11.21-3.55,17.93v40.54h-18.31v-78.65Z" stroke="#fff" stroke-miterlimit="10" stroke-width="3"/><path d="M850.99,281.21h18.31v78.65h-18.31v-8.22c-8.03,9.34-17.93,10.65-23.54,10.65-24.29,0-38.11-20.18-38.11-41.85,0-25.59,17.56-41.29,38.3-41.29,5.79,0,15.88,1.49,23.35,11.21v-9.15ZM808.02,320.82c0,13.64,8.59,25.03,21.86,25.03,11.58,0,22.23-8.41,22.23-24.85s-10.65-25.41-22.23-25.41c-13.26,0-21.86,11.21-21.86,25.22Z" stroke="#fff" stroke-miterlimit="10" stroke-width="3"/><path d="M910.77,223.67v136.19h-18.31v-136.19h18.31Z" stroke="#fff" stroke-miterlimit="10" stroke-width="3"/><path d="M968.31,301.95c-1.87-2.99-5.42-6.73-11.21-6.73-2.62,0-4.48.93-5.6,2.06-.93.93-1.68,2.43-1.68,4.11,0,2.05.93,3.36,2.62,4.48,1.12.75,2.24,1.12,6.17,3.18l9.34,4.67c4.11,2.05,8.03,4.11,11.02,7.29,4.3,4.3,5.79,9.15,5.79,14.57,0,7.1-2.62,13.26-6.91,17.93-6.17,6.73-13.82,8.78-22.04,8.78-5.04,0-11.4-.75-17-5.04-4.48-3.36-8.22-8.78-10.09-14.38l14.95-7.1c.93,2.62,2.62,5.98,4.3,7.47,1.12,1.12,3.74,2.99,8.03,2.99,2.8,0,5.79-.93,7.47-2.62,1.5-1.49,2.62-3.92,2.62-6.17s-.75-4.11-2.43-5.98c-2.24-2.24-4.86-3.55-7.85-4.86l-6.73-3.18c-3.55-1.68-7.85-3.74-10.83-6.73-4.11-3.92-5.6-8.22-5.6-13.26,0-6.35,2.43-12.52,6.54-16.81,3.55-3.74,9.53-7.47,19.24-7.47,5.6,0,10.09,1.12,14.57,4.11,2.62,1.68,6.17,4.67,8.97,9.71l-13.64,8.97Z" stroke="#fff" stroke-miterlimit="10" stroke-width="3"/></g><g id="Layer_4"><path d="M16.12,112.56h977.76c7.52,0,13.62,6.1,13.62,13.62v7.76c0,7.52-6.1,13.62-13.62,13.62H16.12c-7.52,0-13.62-6.1-13.62-13.62v-7.76c0-7.52,6.1-13.62,13.62-13.62Z" fill="#333"/><path d="M993.88,115.06c6.14,0,11.12,4.98,11.12,11.12v7.76c0,6.14-4.98,11.12-11.12,11.12H16.12c-6.14,0-11.12-4.98-11.12-11.12v-7.76c0-6.14,4.98-11.12,11.12-11.12h977.76M993.88,110.06H16.12c-8.89,0-16.12,7.23-16.12,16.12v7.76c0,8.89,7.23,16.12,16.12,16.12h977.76c8.89,0,16.12-7.23,16.12-16.12v-7.76c0-8.89-7.23-16.12-16.12-16.12h0Z" fill="#f2f2f2"/><path d="M878.17,111.77V29.5c0-6.86,5.58-12.45,12.45-12.45h7.48c6.86,0,12.45,5.58,12.45,12.45v82.27h-32.37Z" fill="#333"/><path d="M898.09,19.55c5.49,0,9.95,4.45,9.95,9.95v79.77h-27.37V29.5c0-5.49,4.45-9.95,9.95-9.95h7.48M898.09,14.55h-7.48c-8.24,0-14.95,6.71-14.95,14.95v84.77h37.37V29.5c0-8.24-6.71-14.95-14.95-14.95h0Z" fill="#f2f2f2"/><path d="M955.88,111.77V29.5c0-6.86,5.58-12.45,12.45-12.45h7.48c6.86,0,12.45,5.58,12.45,12.45v82.27h-32.37Z" fill="#333"/><path d="M975.81,19.55c5.49,0,9.95,4.45,9.95,9.95v79.77h-27.37V29.5c0-5.49,4.45-9.95,9.95-9.95h7.48M975.81,14.55h-7.48c-8.24,0-14.95,6.71-14.95,14.95v84.77h37.37V29.5c0-8.24-6.71-14.95-14.95-14.95h0Z" fill="#f2f2f2"/><path d="M800.46,111.77V29.5c0-6.86,5.58-12.45,12.45-12.45h7.48c6.86,0,12.45,5.58,12.45,12.45v82.27h-32.37Z" fill="#333"/><path d="M820.38,19.55c5.49,0,9.95,4.45,9.95,9.95v79.77h-27.37V29.5c0-5.49,4.45-9.95,9.95-9.95h7.48M820.38,14.55h-7.48c-8.24,0-14.95,6.71-14.95,14.95v84.77h37.37V29.5c0-8.24-6.71-14.95-14.95-14.95h0Z" fill="#f2f2f2"/><path d="M922.03,106.77V29.5c0-4.11,3.34-7.45,7.45-7.45h7.48c4.11,0,7.45,3.34,7.45,7.45v77.27h-22.37Z" fill="#f2f2f2"/><path d="M936.95,24.55c2.73,0,4.95,2.22,4.95,4.95v74.77h-17.37V29.5c0-2.73,2.22-4.95,4.95-4.95h7.48M936.95,19.55h-7.48c-5.49,0-9.95,4.45-9.95,9.95v79.77h27.37V29.5c0-5.49-4.45-9.95-9.95-9.95h0Z" fill="#333"/><path d="M844.32,106.77V29.5c0-4.11,3.34-7.45,7.45-7.45h7.48c4.11,0,7.45,3.34,7.45,7.45v77.27h-22.37Z" fill="#f2f2f2"/><path d="M859.24,24.55c2.73,0,4.95,2.22,4.95,4.95v74.77h-17.37V29.5c0-2.73,2.22-4.95,4.95-4.95h7.48M859.24,19.55h-7.48c-5.49,0-9.95,4.45-9.95,9.95v79.77h27.37V29.5c0-5.49-4.45-9.95-9.95-9.95h0Z" fill="#333"/><path d="M766.6,106.77V29.5c0-4.11,3.34-7.45,7.45-7.45h7.48c4.11,0,7.45,3.34,7.45,7.45v77.27h-22.37Z" fill="#f2f2f2"/><path d="M781.53,24.55c2.73,0,4.95,2.22,4.95,4.95v74.77h-17.37V29.5c0-2.73,2.22-4.95,4.95-4.95h7.48M781.53,19.55h-7.48c-5.49,0-9.95,4.45-9.95,9.95v79.77h27.37V29.5c0-5.49-4.45-9.95-9.95-9.95h0Z" fill="#333"/><path d="M48.86,22.57c6.1,0,15.18.41,21.96,5.02,5.29,3.52,9.9,10.44,9.9,20.06,0,13.83-9.08,23.99-22.77,24.94l28.74,40.4h-12.2l-27.52-39.58h-2.58v39.58h-10.03V22.57h14.5ZM44.38,64.46h6.37c12.47,0,19.93-5.96,19.93-16.54,0-5.02-1.49-10.03-7.18-13.28-4.07-2.3-8.68-2.58-13.01-2.58h-6.1v32.4Z" fill="#29abe2"/><path d="M106.87,89.53c0,3.93,0,8.54,2.71,12.06,1.49,1.9,4.47,4.34,9.9,4.34s8.4-2.44,9.9-4.34c2.71-3.52,2.71-8.13,2.71-12.06v-32.81h9.76v33.89c0,6.91-.68,12.06-5.15,16.94-5.02,5.29-11.66,7.05-17.22,7.05s-12.2-1.76-17.22-7.05c-4.47-4.88-5.15-10.03-5.15-16.94v-33.89h9.76v32.81Z" fill="#29abe2"/><path d="M203.39,14.16h9.76v98.82h-9.76v-7.86c-3.25,4.2-9.35,9.49-19.25,9.49-14.23,0-27.38-10.03-27.38-29.82s13.01-29.42,27.38-29.42c10.84,0,16.67,5.96,19.25,9.35V14.16ZM166.79,84.79c0,12.06,6.78,21.15,18.44,21.15s18.71-9.9,18.71-21.01c0-14.5-10.03-20.88-18.71-20.88-9.62,0-18.44,7.05-18.44,20.74Z" fill="#29abe2"/><path d="M249.34,107.7l-25.89-50.97h11.12l19.93,40.26,18.3-40.26h10.84l-41.35,87.44h-10.84l17.89-36.47Z" fill="#29abe2"/><path d="M328.5,22.57l25.49,69,25.49-69h11.12l-36.6,95.84-36.6-95.84h11.12Z" fill="#29abe2"/><path d="M446.58,98.62c-1.63,3.12-4.07,6.51-6.91,9.08-5.15,4.61-11.52,6.91-18.71,6.91-13.56,0-27.79-8.54-27.79-29.42,0-16.81,10.3-29.82,27.25-29.82,10.98,0,17.89,5.42,21.28,10.3,3.52,5.02,5.56,13.69,5.29,21.15h-43.79c.13,11.66,8.13,19.11,17.89,19.11,4.61,0,8.27-1.36,11.52-4.07,2.58-2.17,4.61-5.02,5.83-7.73l8.13,4.47ZM436.95,78.69c-1.63-8.81-8.27-14.64-16.54-14.64s-15.05,6.24-16.54,14.64h33.08Z" fill="#29abe2"/><path d="M471.65,14.16v98.82h-9.76V14.16h9.76Z" fill="#29abe2"/><path d="M500.12,65.68v47.31h-9.76v-47.31h-5.96v-8.95h5.96v-20.33h9.76v20.33h9.76v8.95h-9.76Z" fill="#29abe2"/><path d="M519.09,14.16h9.76v49.07c1.76-2.3,6.78-7.86,16.13-7.86,6.64,0,12.74,2.71,16.13,7.73,2.85,4.2,3.25,8.81,3.25,15.05v34.84h-9.76v-34.57c0-3.39-.27-7.32-2.58-10.3-1.9-2.44-4.88-4.07-9.22-4.07-3.39,0-7.05.95-9.9,4.34-3.8,4.47-4.07,11.12-4.07,15.18v29.42h-9.76V14.16Z" fill="#29abe2"/><path d="M592.57,89.53c0,3.93,0,8.54,2.71,12.06,1.49,1.9,4.47,4.34,9.9,4.34s8.41-2.44,9.9-4.34c2.71-3.52,2.71-8.13,2.71-12.06v-32.81h9.76v33.89c0,6.91-.68,12.06-5.15,16.94-5.02,5.29-11.66,7.05-17.22,7.05s-12.2-1.76-17.22-7.05c-4.47-4.88-5.15-10.03-5.15-16.94v-33.89h9.76v32.81Z" fill="#29abe2"/><path d="M650.85,28.53c3.79,0,6.91,3.12,6.91,6.91s-3.12,6.91-6.91,6.91-6.91-3.12-6.91-6.91,3.12-6.91,6.91-6.91ZM655.73,56.73v56.26h-9.76v-56.26h9.76Z" fill="#29abe2"/><path d="M697.35,69.74c-1.36-3.25-4.2-5.69-7.86-5.69s-6.78,2.03-6.78,6.37c0,4.07,2.71,5.29,9.08,8,8.13,3.39,11.93,5.96,14.1,8.68,2.44,2.98,2.98,5.96,2.98,9.08,0,11.79-8.54,18.44-19.38,18.44-2.3,0-14.91-.27-19.66-14.37l8.41-3.52c1.08,2.98,4.34,9.22,11.39,9.22,6.37,0,9.22-4.74,9.22-8.95,0-5.29-3.8-7.05-9.08-9.35-6.78-2.98-11.12-5.15-13.69-8.27-2.17-2.71-2.58-5.42-2.58-8.27,0-9.9,6.91-15.73,16.4-15.73,2.98,0,10.98.54,15.45,10.17l-8,4.2Z" fill="#29abe2"/><path d="M731.51,19.31l9.08,3.25-13.69,30.64-6.37-2.58,10.98-31.31Z" fill="#29abe2"/></g></svg>