<?xml version="1.0" encoding="UTF-8"?><svg id="Layer_1" xmlns="http://www.w3.org/2000/svg" width="947.32" height="954.5" viewBox="0 0 947.32 954.5"><path d="M30.53,26.34c7.12,0,17.72.47,25.63,5.85,6.17,4.11,11.55,12.18,11.55,23.41,0,16.14-10.6,28-26.58,29.11l33.54,47.14h-14.24l-32.12-46.2h-3.01v46.2h-11.71V26.34h16.93ZM25.31,75.22h7.44c14.55,0,23.26-6.96,23.26-19.3,0-5.85-1.74-11.71-8.38-15.5-4.75-2.69-10.12-3.01-15.19-3.01h-7.12v37.81Z" fill="#29abe2"/><path d="M98.24,104.49c0,4.59,0,9.97,3.16,14.08,1.74,2.21,5.22,5.06,11.55,5.06s9.81-2.85,11.55-5.06c3.16-4.11,3.16-9.49,3.16-14.08v-38.29h11.39v39.55c0,8.07-.79,14.08-6.01,19.78-5.85,6.17-13.61,8.23-20.09,8.23s-14.24-2.06-20.09-8.23c-5.22-5.7-6.01-11.71-6.01-19.78v-39.55h11.39v38.29Z" fill="#29abe2"/><path d="M210.88,16.53h11.39v115.33h-11.39v-9.18c-3.8,4.9-10.92,11.07-22.46,11.07-16.61,0-31.96-11.71-31.96-34.8s15.19-34.33,31.96-34.33c12.66,0,19.46,6.96,22.46,10.92V16.53ZM168.17,98.96c0,14.08,7.91,24.68,21.52,24.68s21.83-11.55,21.83-24.52c0-16.93-11.71-24.36-21.83-24.36-11.23,0-21.52,8.23-21.52,24.21Z" fill="#29abe2"/><path d="M264.51,125.69l-30.22-59.48h12.97l23.26,46.99,21.36-46.99h12.66l-48.25,102.04h-12.66l20.88-42.56Z" fill="#29abe2"/><path d="M356.9,26.34l29.74,80.53,29.74-80.53h12.97l-42.71,111.85-42.71-111.85h12.97Z" fill="#29abe2"/><path d="M494.69,115.09c-1.9,3.64-4.75,7.59-8.07,10.6-6.01,5.38-13.45,8.07-21.83,8.07-15.82,0-32.43-9.97-32.43-34.33,0-19.62,12.02-34.8,31.8-34.8,12.81,0,20.88,6.33,24.84,12.02,4.11,5.85,6.49,15.98,6.17,24.68h-51.1c.16,13.61,9.49,22.31,20.88,22.31,5.38,0,9.65-1.58,13.45-4.75,3.01-2.53,5.38-5.85,6.8-9.02l9.49,5.22ZM483.46,91.84c-1.9-10.28-9.65-17.09-19.3-17.09s-17.56,7.28-19.3,17.09h38.6Z" fill="#29abe2"/><path d="M523.96,16.53v115.33h-11.39V16.53h11.39Z" fill="#29abe2"/><path d="M557.18,76.65v55.21h-11.39v-55.21h-6.96v-10.44h6.96v-23.73h11.39v23.73h11.39v10.44h-11.39Z" fill="#29abe2"/><path d="M579.33,16.53h11.39v57.27c2.06-2.69,7.91-9.18,18.83-9.18,7.75,0,14.87,3.16,18.83,9.02,3.32,4.9,3.8,10.28,3.8,17.56v40.66h-11.39v-40.34c0-3.96-.32-8.54-3.01-12.02-2.21-2.85-5.7-4.75-10.76-4.75-3.96,0-8.23,1.11-11.55,5.06-4.43,5.22-4.75,12.97-4.75,17.72v34.33h-11.39V16.53Z" fill="#29abe2"/><path d="M665.07,104.49c0,4.59,0,9.97,3.16,14.08,1.74,2.21,5.22,5.06,11.55,5.06s9.81-2.85,11.55-5.06c3.16-4.11,3.16-9.49,3.16-14.08v-38.29h11.39v39.55c0,8.07-.79,14.08-6.01,19.78-5.85,6.17-13.61,8.23-20.09,8.23s-14.24-2.06-20.09-8.23c-5.22-5.7-6.01-11.71-6.01-19.78v-39.55h11.39v38.29Z" fill="#29abe2"/><path d="M733.1,33.3c4.43,0,8.07,3.64,8.07,8.07s-3.64,8.07-8.07,8.07-8.07-3.64-8.07-8.07,3.64-8.07,8.07-8.07ZM738.79,66.21v65.65h-11.39v-65.65h11.39Z" fill="#29abe2"/><path d="M787.36,81.39c-1.58-3.8-4.9-6.64-9.18-6.64s-7.91,2.37-7.91,7.44c0,4.75,3.16,6.17,10.6,9.33,9.49,3.96,13.92,6.96,16.45,10.12,2.85,3.48,3.48,6.96,3.48,10.6,0,13.76-9.97,21.52-22.62,21.52-2.69,0-17.4-.32-22.94-16.77l9.81-4.11c1.27,3.48,5.06,10.76,13.29,10.76,7.44,0,10.76-5.54,10.76-10.44,0-6.17-4.43-8.23-10.6-10.92-7.91-3.48-12.97-6.01-15.98-9.65-2.53-3.16-3.01-6.33-3.01-9.65,0-11.55,8.07-18.35,19.14-18.35,3.48,0,12.81.63,18.04,11.87l-9.33,4.9Z" fill="#29abe2"/><path d="M827.23,22.54l10.6,3.8-15.98,35.75-7.44-3.01,12.81-36.54Z" fill="#29abe2"/><path d="M339.01,793.6c15.65,0,23.65,4.08,28.92,8.51,8.68,7.31,11.23,17.01,11.23,25.52,0,11.06-4.42,20.75-13.27,26.71-2.89,2.04-6.97,3.91-12.42,4.93l35.38,47.8h-27.56l-30.28-45.59h-2.72v45.59h-22.12v-113.47h32.83ZM328.29,845.82h6.29c4.25,0,21.78-.51,21.78-17.18s-17.35-17.01-21.44-17.01h-6.63v34.19Z" stroke="#fff" stroke-miterlimit="10" stroke-width="3"/><path d="M451.7,833.4h20.75v73.66h-20.75v-9.53c-7.48,10.72-17.35,11.91-22.63,11.91-22.63,0-37.6-17.69-37.6-39.3s14.8-39.13,36.58-39.13c5.61,0,16.67,1.02,23.65,11.91v-9.53ZM412.91,870.15c0,11.74,8.51,20.92,20.41,20.92s20.41-9.19,20.41-20.92-8.51-20.75-20.41-20.75-20.41,9.02-20.41,20.75Z" stroke="#fff" stroke-miterlimit="10" stroke-width="3"/><path d="M512.65,851.1v55.97h-20.75v-55.97h-8.17v-17.69h8.17v-25.18h20.75v25.18h14.29v17.69h-14.29Z" stroke="#fff" stroke-miterlimit="10" stroke-width="3"/><path d="M545.98,789.85c6.81,0,12.42,5.61,12.42,12.42s-5.61,12.42-12.42,12.42-12.42-5.61-12.42-12.42,5.61-12.42,12.42-12.42ZM556.36,833.4v73.66h-20.75v-73.66h20.75Z" stroke="#fff" stroke-miterlimit="10" stroke-width="3"/><path d="M641.18,841.4c7.32,6.63,12.42,16.84,12.42,28.92s-5.1,22.12-12.42,28.75c-6.29,5.78-15.82,10.38-29.77,10.38s-23.48-4.59-29.77-10.38c-7.31-6.63-12.42-16.84-12.42-28.75s5.1-22.29,12.42-28.92c6.29-5.78,15.82-10.38,29.77-10.38s23.48,4.59,29.77,10.38ZM632.16,870.32c0-11.57-8.85-20.92-20.75-20.92s-20.75,9.36-20.75,20.92,8.68,20.75,20.75,20.75,20.75-9.53,20.75-20.75Z" stroke="#fff" stroke-miterlimit="10" stroke-width="3"/><path d="M667.16,833.4h20.75v9.53c3.91-5.44,10.89-11.91,22.8-11.91,6.46,0,15.99,1.87,21.78,9.02,5.1,6.29,5.78,13.61,5.78,20.75v46.27h-20.75v-40.15c0-4.08-.17-10.55-3.91-14.46-3.23-3.4-7.66-3.74-9.7-3.74-5.44,0-9.7,1.87-12.76,6.46-3.06,4.76-3.23,10.04-3.23,14.29v37.6h-20.75v-73.66Z" stroke="#fff" stroke-miterlimit="10" stroke-width="3"/><path d="M811.77,833.4h20.75v73.66h-20.75v-9.53c-7.49,10.72-17.35,11.91-22.63,11.91-22.63,0-37.6-17.69-37.6-39.3s14.8-39.13,36.58-39.13c5.61,0,16.67,1.02,23.65,11.91v-9.53ZM772.98,870.15c0,11.74,8.51,20.92,20.41,20.92s20.42-9.19,20.42-20.92-8.51-20.75-20.42-20.75-20.41,9.02-20.41,20.75Z" stroke="#fff" stroke-miterlimit="10" stroke-width="3"/><path d="M870.63,783.05v124.02h-20.75v-124.02h20.75Z" stroke="#fff" stroke-miterlimit="10" stroke-width="3"/><path d="M927.11,850.93c-4.93-4.59-9.87-4.93-12.08-4.93-4.93,0-8,2.38-8,5.95,0,1.87.85,4.76,6.63,6.63l4.93,1.53c5.78,1.87,14.46,4.76,18.71,10.55,2.21,3.06,3.74,7.48,3.74,12.25,0,6.63-2.21,13.27-8.17,18.71-5.95,5.44-13.1,7.83-22.12,7.83-15.31,0-23.99-7.32-28.58-12.25l10.89-12.59c4.08,4.76,10.21,8.51,16.33,8.51,5.78,0,10.21-2.89,10.21-8,0-4.59-3.74-6.46-6.46-7.49l-4.76-1.7c-5.27-1.87-11.4-4.25-15.82-8.85-3.4-3.57-5.61-8.17-5.61-14.12,0-7.14,3.4-13.1,7.66-16.67,5.78-4.59,13.27-5.27,19.22-5.27,5.44,0,14.12.68,23.48,7.83l-10.21,12.08Z" stroke="#fff" stroke-miterlimit="10" stroke-width="3"/><path d="M66.88,793.6h36.24c14.63,0,21.44,1.53,26.88,5.78,5.78,4.42,9.02,12.08,9.02,20.58,0,6.46-1.87,12.93-5.1,17.69-3.4,4.93-6.12,7.15-13.44,10.38,7.15,1.7,9.87,2.89,13.44,5.95,4.93,4.25,7.66,10.89,7.66,18.88,0,13.78-8.51,26.2-21.61,31.3-5.61,2.21-11.23,2.89-21.95,2.89h-45.08l13.95-113.47ZM87.29,859.94l-2.89,24.5h7.83c14.12,0,19.56-4.08,19.56-13.78,0-8.34-3.4-10.72-15.82-10.72h-8.68ZM92.74,816.22l-2.72,22.46h4.08c12.59,0,17.69-3.74,17.69-12.59,0-7.66-3.06-9.87-13.78-9.87h-5.27Z" fill="#29abe2" stroke="#000" stroke-miterlimit="10" stroke-width="3"/><path d="M189.76,831.02l-9.36,76.04h-28.07l9.36-76.04h28.07ZM178.36,784.07c8.51,0,15.31,6.8,15.31,15.31s-6.81,15.31-15.31,15.31-15.31-6.8-15.31-15.31,6.8-15.31,15.31-15.31Z" fill="#29abe2" stroke="#000" stroke-miterlimit="10" stroke-width="3"/><path d="M289.74,831.02l-8.34,66.69c-2.38,20.41-5.78,30.45-12.76,37.6-7.49,7.31-18.37,10.72-33.85,10.72-13.61,0-23.14-2.89-29.94-9.19-6.46-5.78-9.19-11.57-11.06-21.27h26.71c1.02,5.1,6.12,8.68,14.29,8.68,10.55,0,15.82-5.1,17.35-17.86l.85-7.14c-8.17,7.66-13.44,10.04-22.29,10.04-20.58,0-33.51-14.63-33.51-37.77,0-25.01,15.82-42.7,38.28-42.7,10.89,0,18.03,3.57,25.86,13.27l.51-11.06h27.9ZM257.42,866.92c0-9.87-5.61-15.99-14.8-15.99-9.87,0-16.84,8-16.84,19.39,0,10.21,6.12,16.84,15.31,16.84,9.87,0,16.33-8,16.33-20.24Z" fill="#29abe2" stroke="#000" stroke-miterlimit="10" stroke-width="3"/><path d="M504.6,726.7c-.77,4.56,1.12,8.94,3.53,11.35,1.38,1.38,4.13,3.44,8.86,3.44,2.75,0,5.93-.77,8.34-2.49,1.89-1.38,3.61-3.53,4.56-5.5l2.67,1.72c-1.46,2.58-3.78,5.33-6.28,6.97-1.81,1.2-4.82,2.58-9.37,2.58s-8.51-1.2-11.7-4.64c-3.1-3.27-4.39-7.4-4.39-11.95,0-6.54,2.41-11.7,5.85-15.14,2.75-2.75,6.79-5.07,12.56-5.07,4.64,0,8.51,1.63,11.01,4.04,3.96,3.78,4.73,9.29,4.3,14.71h-29.93ZM531.09,723.44c-.09-3.7-1.63-6.97-3.53-8.94-1.63-1.72-4.3-3.27-8.34-3.27-5.07,0-8.34,2.41-10.06,4.21-1.72,1.81-3.35,4.47-4.04,8h25.97Z" fill="#ff1d25"/><path d="M551.04,725.41l-10.92-16.68h4.04l9.29,14.45,12.73-14.45h4.21l-14.79,16.68,11.87,18.4h-4.04l-10.32-16.17-14.28,16.17h-4.21l16.42-18.4Z" fill="#ff1d25"/><path d="M574.4,763.6h-3.44l6.62-54.87h3.44l-.77,6.11c1.03-1.55,2.67-3.27,5.25-4.73,2.75-1.55,5.68-2.15,8.77-2.15,5.5,0,9.2,2.15,11.35,4.3,2.06,2.15,4.21,5.76,4.21,11.7,0,6.97-2.41,12.3-5.93,15.74-2.24,2.24-6.36,5.07-12.73,5.07-3.18,0-6.45-.86-9.03-2.49-2.58-1.72-4.21-4.04-4.64-4.73l-3.1,26.06ZM601.15,738.06c3.01-2.75,5.07-7.65,5.07-13.5,0-4.56-1.55-7.83-3.87-10.06-1.29-1.29-4.04-3.27-8.43-3.27s-7.91,1.63-10.49,4.21c-2.84,2.84-4.82,7.48-4.82,12.81s1.98,8.08,3.87,9.98c2.49,2.41,5.33,3.27,8.6,3.27,4.99,0,8.17-1.72,10.06-3.44Z" fill="#ff1d25"/><path d="M619.95,726.7c-.77,4.56,1.12,8.94,3.53,11.35,1.38,1.38,4.13,3.44,8.86,3.44,2.75,0,5.93-.77,8.34-2.49,1.89-1.38,3.61-3.53,4.56-5.5l2.67,1.72c-1.46,2.58-3.78,5.33-6.28,6.97-1.81,1.2-4.82,2.58-9.37,2.58s-8.51-1.2-11.7-4.64c-3.1-3.27-4.39-7.4-4.39-11.95,0-6.54,2.41-11.7,5.85-15.14,2.75-2.75,6.79-5.07,12.56-5.07,4.64,0,8.51,1.63,11.01,4.04,3.96,3.78,4.73,9.29,4.3,14.71h-29.93ZM646.44,723.44c-.09-3.7-1.63-6.97-3.53-8.94-1.63-1.72-4.3-3.27-8.34-3.27-5.07,0-8.34,2.41-10.06,4.21-1.72,1.81-3.35,4.47-4.04,8h25.97Z" fill="#ff1d25"/><path d="M660.26,708.73h3.44l-.52,4.56c.69-1.29,1.89-2.84,3.35-3.78,1.38-.95,3.27-1.55,5.16-1.55.52,0,1.98.09,3.44.86l-2.06,3.1c-.34-.26-1.12-.69-2.49-.69-1.72,0-3.53.86-4.82,2.24-2.84,3.01-3.61,8.43-4.13,12.73l-2.24,17.63h-3.44l4.3-35.09Z" fill="#ff1d25"/><path d="M684.76,708.73l-4.3,35.09h-3.44l4.3-35.09h3.44ZM682.09,699.44c-.34-.34-.69-.95-.69-1.89,0-1.2.43-2.15,1.12-2.75.77-.77,1.72-.95,2.32-.95.95,0,1.63.43,1.98.77.6.6.77,1.38.77,1.98,0,.95-.26,1.81-1.03,2.58-.69.69-1.46,1.03-2.49,1.03-1.12,0-1.72-.52-1.98-.77Z" fill="#ff1d25"/><path d="M695.31,708.73h3.44l-.52,4.39c1.03-1.81,2.32-2.92,3.44-3.61,1.81-1.12,3.78-1.55,5.76-1.55,2.32,0,4.73.52,6.45,1.81,1.2.86,2.49,2.41,3.1,4.56.6-1.38,1.63-3.1,3.7-4.47,1.98-1.38,4.04-1.89,6.71-1.89,4.64,0,6.97,1.98,7.83,2.84,1.89,1.98,2.41,4.39,2.41,6.54,0,.6,0,2.24-.43,5.85l-2.49,20.64h-3.44l2.49-20.38c.09-.69.43-3.7.43-4.9,0-2.41-.77-4.13-1.89-5.33-1.63-1.72-3.78-1.98-5.42-1.98-2.06,0-4.21.43-6.11,2.24-2.41,2.32-3.18,6.02-3.7,10.06l-2.49,20.3h-3.44l2.49-20.21c.17-1.38.43-3.7.43-4.99,0-1.72-.17-3.78-1.81-5.42-1.03-1.03-2.75-1.98-5.42-1.98s-4.82,1.03-6.19,2.49c-2.15,2.24-3.27,5.85-3.78,10.41l-2.41,19.69h-3.44l4.3-35.09Z" fill="#ff1d25"/><path d="M748.86,726.7c-.77,4.56,1.12,8.94,3.53,11.35,1.38,1.38,4.13,3.44,8.86,3.44,2.75,0,5.93-.77,8.34-2.49,1.89-1.38,3.61-3.53,4.56-5.5l2.67,1.72c-1.46,2.58-3.78,5.33-6.28,6.97-1.81,1.2-4.82,2.58-9.37,2.58s-8.51-1.2-11.7-4.64c-3.1-3.27-4.39-7.4-4.39-11.95,0-6.54,2.41-11.7,5.85-15.14,2.75-2.75,6.79-5.07,12.56-5.07,4.64,0,8.51,1.63,11.01,4.04,3.96,3.78,4.73,9.29,4.3,14.71h-29.93ZM775.35,723.44c-.09-3.7-1.63-6.97-3.53-8.94-1.63-1.72-4.3-3.27-8.34-3.27-5.07,0-8.34,2.41-10.06,4.21-1.72,1.81-3.35,4.47-4.04,8h25.97Z" fill="#ff1d25"/><path d="M789.17,708.73h3.44l-.69,5.5c1.2-2.24,2.84-3.61,4.04-4.39,2.06-1.38,4.3-1.89,6.97-1.89,4.04,0,6.54,1.38,7.91,2.75,1.29,1.29,2.67,3.35,2.67,6.97,0,1.72-.43,5.25-.52,6.19l-2.49,19.95h-3.44l2.49-20.47c.26-2.41.43-3.61.43-4.64,0-1.63-.34-3.7-1.89-5.33-.95-1.03-2.84-2.15-5.93-2.15-2.58,0-5.07.69-7.22,2.75-2.58,2.49-3.7,6.28-4.39,11.61l-2.24,18.23h-3.44l4.3-35.09Z" fill="#ff1d25"/><path d="M828.43,712l-3.87,31.82h-3.44l3.87-31.82h-3.87l.43-3.27h3.87l1.55-12.56h3.44l-1.55,12.56h6.11l-.43,3.27h-6.11Z" fill="#ff1d25"/><path d="M868.56,708.73h3.44l-4.3,35.09h-3.44l.69-5.42c-1.38,1.89-3.1,3.53-5.16,4.56-2.06,1.03-4.73,1.81-8.08,1.81-4.04,0-7.91-.95-11.18-4.04-2.15-1.98-5.07-5.93-5.07-12.73,0-5.76,1.98-11.44,5.93-15.22,2.58-2.49,6.62-4.82,12.99-4.82,2.75,0,5.85.52,8.51,2.32,2.06,1.38,3.78,3.35,4.82,5.33l.86-6.88ZM843.79,715.09c-2.84,2.84-4.73,7.65-4.73,12.64,0,4.47,1.72,8.26,4.04,10.49,2.92,2.75,6.45,3.27,8.94,3.27,3.27,0,5.85-.77,8.34-2.58,5.16-3.78,6.36-10.32,6.36-14.1,0-4.21-1.38-7.83-3.61-10.06-1.46-1.55-4.39-3.53-9.46-3.53-3.87,0-7.22,1.2-9.89,3.87Z" fill="#ff1d25"/><path d="M889.38,681.12l-7.74,62.69h-3.44l7.74-62.69h3.44Z" fill="#ff1d25"/><path d="M126.49,669.64c-4.14,0-7.9-2.28-9.81-5.96l-2.9-5.58c-2.81-5.41-.69-12.09,4.71-14.89l703.6-365.42c1.57-.81,3.33-1.25,5.08-1.25,4.14,0,7.9,2.28,9.81,5.96l2.9,5.58c2.81,5.41.69,12.09-4.71,14.89L131.57,668.4c-1.57.81-3.33,1.25-5.08,1.25Z" fill="#333"/><path d="M827.18,278.58c3.26,0,6.4,1.77,8.01,4.86l2.9,5.58c2.3,4.42.57,9.86-3.85,12.16L130.64,666.6c-1.33.69-2.75,1.02-4.15,1.02-3.26,0-6.4-1.77-8.01-4.86l-2.9-5.58c-2.3-4.42-.57-9.86,3.85-12.16l703.6-365.42c1.33-.69,2.75-1.02,4.15-1.02M827.18,274.52h0c-2.08,0-4.16.51-6.02,1.47L117.56,641.41c-3.1,1.61-5.39,4.33-6.44,7.66-1.05,3.33-.75,6.87.86,9.97l2.9,5.58c2.26,4.35,6.71,7.05,11.61,7.05,2.08,0,4.16-.51,6.02-1.47l703.6-365.42c6.4-3.32,8.9-11.23,5.58-17.63l-2.9-5.58c-2.26-4.35-6.71-7.05-11.61-7.05h0Z" fill="#f2f2f2"/><path d="M733.21,265.34c-.95-1.83-1.13-3.91-.51-5.87.62-1.96,1.97-3.56,3.79-4.51l4.1-2.13c1.09-.57,2.32-.87,3.54-.87,2.89,0,5.51,1.59,6.84,4.15l23.46,45.17-17.77,9.23-23.46-45.17Z" fill="#333"/><path d="M744.14,253.51c2.22,0,4.37,1.21,5.47,3.32l22.75,43.8-15.03,7.81-22.75-43.8c-1.57-3.02-.39-6.73,2.63-8.3l4.1-2.13c.91-.47,1.88-.69,2.83-.69M744.14,250.41h0c-1.47,0-2.94.36-4.26,1.04l-4.1,2.13c-4.53,2.35-6.29,7.94-3.94,12.47l22.75,43.8,1.43,2.75,2.75-1.43,15.03-7.81,2.75-1.43-1.43-2.75-22.75-43.8c-1.6-3.08-4.74-4.99-8.21-4.99h0Z" fill="#f2f2f2"/><path d="M775.87,243.19c-.95-1.83-1.13-3.91-.51-5.87.62-1.96,1.97-3.56,3.79-4.51l4.1-2.13c1.09-.57,2.32-.87,3.54-.87,2.89,0,5.51,1.59,6.84,4.15l23.46,45.17-17.77,9.23-23.46-45.17Z" fill="#333"/><path d="M786.8,231.35c2.22,0,4.37,1.21,5.47,3.32l22.75,43.8-15.03,7.81-22.75-43.8c-1.57-3.02-.39-6.73,2.63-8.3l4.1-2.13c.91-.47,1.88-.69,2.83-.69M786.81,228.25h0c-1.47,0-2.94.36-4.26,1.04l-4.1,2.13c-4.53,2.35-6.29,7.94-3.94,12.47l22.75,43.8,1.43,2.75,2.75-1.43,15.03-7.81,2.75-1.43-1.43-2.75-22.75-43.8c-1.6-3.08-4.74-4.99-8.21-4.99h0Z" fill="#f2f2f2"/><path d="M690.54,287.5c-.95-1.83-1.13-3.91-.51-5.87.62-1.96,1.97-3.56,3.79-4.51l4.1-2.13c1.09-.57,2.32-.87,3.54-.87,2.89,0,5.51,1.59,6.84,4.15l23.46,45.17-17.77,9.23-23.46-45.17Z" fill="#333"/><path d="M701.47,275.66c2.22,0,4.37,1.21,5.47,3.32l22.75,43.8-15.03,7.81-22.75-43.8c-1.57-3.02-.39-6.73,2.63-8.3l4.1-2.13c.91-.47,1.88-.69,2.83-.69M701.48,272.57h0c-1.47,0-2.94.36-4.26,1.04l-4.1,2.13c-2.19,1.14-3.81,3.06-4.55,5.42-.75,2.36-.53,4.86.61,7.05l22.75,43.8,1.43,2.75,2.75-1.43,15.03-7.81,2.75-1.43-1.43-2.75-22.75-43.8c-1.6-3.08-4.74-4.99-8.21-4.99h0Z" fill="#f2f2f2"/><path d="M757.28,252.84c-.57-1.09-.68-2.34-.3-3.51s1.18-2.13,2.27-2.7l4.11-2.13c.66-.35,1.38-.52,2.12-.52,1.73,0,3.3.95,4.09,2.49l22.03,42.42-12.28,6.38-22.03-42.42Z" fill="#f2f2f2"/><path d="M765.47,245.52c1.15,0,2.19.63,2.72,1.65l21.32,41.05-9.54,4.95-21.32-41.05c-.38-.73-.45-1.55-.2-2.33s.78-1.42,1.51-1.79l4.1-2.13c.44-.23.91-.35,1.41-.35M765.47,242.43c-.96,0-1.93.22-2.83.69l-4.1,2.13c-3.02,1.57-4.19,5.28-2.63,8.3l22.75,43.8,15.03-7.81-22.75-43.8c-1.1-2.11-3.24-3.32-5.47-3.32h0Z" fill="#333"/><path d="M714.62,275c-1.17-2.25-.29-5.04,1.96-6.21l4.11-2.13c.66-.35,1.38-.52,2.12-.52,1.73,0,3.3.95,4.09,2.49l22.03,42.42-12.28,6.38-22.03-42.42Z" fill="#f2f2f2"/><path d="M722.81,267.68c1.15,0,2.19.63,2.72,1.65l21.32,41.05-9.54,4.95-21.32-41.05c-.38-.73-.45-1.55-.2-2.33s.78-1.42,1.51-1.79l4.1-2.13c.44-.23.91-.35,1.41-.35M722.81,264.59c-.96,0-1.93.22-2.83.69l-4.1,2.13c-3.02,1.57-4.19,5.28-2.63,8.3l22.75,43.8,15.03-7.81-22.75-43.8c-1.1-2.11-3.24-3.32-5.47-3.32h0Z" fill="#333"/><path d="M671.95,297.15c-.57-1.09-.68-2.34-.3-3.51.37-1.17,1.18-2.13,2.27-2.7l4.1-2.13c.66-.35,1.38-.52,2.12-.52,1.73,0,3.3.95,4.09,2.49l22.03,42.42-12.28,6.38-22.03-42.42Z" fill="#f2f2f2"/><path d="M680.14,289.84c1.15,0,2.19.63,2.72,1.65l21.32,41.05-9.54,4.95-21.32-41.05c-.78-1.5-.19-3.35,1.31-4.13l4.1-2.13c.44-.23.91-.35,1.41-.35M680.14,286.74c-.96,0-1.93.22-2.83.69l-4.1,2.13c-3.02,1.57-4.19,5.28-2.63,8.3l22.75,43.8,15.03-7.81-22.75-43.8c-1.1-2.11-3.24-3.32-5.47-3.32h0Z" fill="#333"/><path d="M98.49,432.42v-19.95h48.17v-139.39l-48.17,36v-24.33l40.14-29.92h29.92v157.63h39.41v19.95h-109.47Z" fill="red"/><path d="M244.93,432.42v-21.65l56.68-61.79c8.43-9.08,14.55-17.19,18.37-24.33,3.81-7.13,5.72-14.11,5.72-20.92,0-9.73-2.84-17.47-8.51-23.23-5.68-5.75-13.38-8.64-23.11-8.64s-17.72,2.96-23.47,8.88c-5.76,5.92-8.64,13.91-8.64,23.96h-21.89c.49-16.06,5.6-28.79,15.33-38.19,9.73-9.4,22.62-14.11,38.68-14.11s29.39,4.62,39.04,13.87c9.65,9.24,14.47,21.81,14.47,37.71,0,8.43-2.47,17.27-7.42,26.52-4.95,9.24-12.93,19.87-23.96,31.87l-46.22,50.11h80.52v19.95h-105.58Z" fill="lime"/><path d="M438.81,434.85c-10.71,0-20.07-2.15-28.1-6.45s-14.23-10.25-18.61-17.88c-4.38-7.62-6.57-16.54-6.57-26.76h21.89c0,9.89,2.8,17.64,8.39,23.23,5.59,5.59,13.34,8.39,23.23,8.39s17.84-2.92,23.35-8.76c5.51-5.84,8.27-13.46,8.27-22.87v-12.16c0-10.05-2.76-17.84-8.27-23.35-5.52-5.51-13.3-8.27-23.35-8.27h-19.22v-18.97l42.33-46.22h-69.33v-19.95h94.14v20.43l-41.6,45.49c14.43,1.14,25.91,6.25,34.42,15.33,8.51,9.08,12.77,20.92,12.77,35.52v12.16c0,10.22-2.23,19.14-6.69,26.76-4.46,7.62-10.75,13.58-18.85,17.88-8.11,4.29-17.51,6.45-28.22,6.45Z" fill="blue"/><path d="M562.84,653.7v-38.92h-80.28v-34.3l64.71-104.36h24.08l-66.9,108.74v9.97h58.38v-43.3h21.89v102.17h-21.89Z" fill="#29abe2"/><path d="M683.98,656.13c-14.44,0-26.27-3.73-35.52-11.19-9.24-7.46-14.68-17.51-16.3-30.16h21.89c.81,6.97,3.81,12.37,9,16.18,5.19,3.81,12.24,5.72,21.16,5.72,10.22,0,17.88-2.76,22.99-8.27,5.11-5.51,7.66-13.3,7.66-23.35v-17.27c0-10.05-2.55-17.84-7.66-23.35-5.11-5.51-12.69-8.27-22.75-8.27-6.33,0-11.84,1.67-16.54,4.99-4.71,3.33-8.11,7.75-10.22,13.26h-21.89l1.22-98.28h93.41v19.95h-72.25l-.73,59.11h.97c1.46-5.67,5.07-10.13,10.83-13.38,5.75-3.24,13.01-4.87,21.77-4.87,14.43-.16,25.66,4.26,33.69,13.26,8.03,9,12.04,21.53,12.04,37.58v17.27c0,15.73-4.62,28.18-13.87,37.34-9.24,9.16-22.22,13.74-38.92,13.74Z" fill="#9e005d"/><path d="M830.67,656.13c-11.52,0-21.61-2.39-30.29-7.18-8.68-4.78-15.41-11.43-20.19-19.95-4.79-8.51-7.18-18.37-7.18-29.56,0-7.78,1.42-15.77,4.26-23.96,2.83-8.19,6.77-16.74,11.8-25.66l41.84-73.71h23.84l-48.17,81.98.97.73c2.92-4.38,7.13-7.86,12.65-10.46,5.51-2.59,11.76-3.89,18.73-3.89,9.73,0,18.28,2.27,25.66,6.81,7.38,4.54,13.09,10.83,17.15,18.85,4.05,8.03,6.08,17.48,6.08,28.34,0,11.52-2.39,21.61-7.18,30.29-4.79,8.68-11.43,15.41-19.95,20.19-8.51,4.78-18.53,7.18-30.04,7.18ZM830.43,636.67c10.54,0,19.1-3.44,25.66-10.34,6.57-6.89,9.85-16.01,9.85-27.37s-3.28-20.47-9.85-27.37c-6.57-6.89-15.12-10.34-25.66-10.34s-19.1,3.45-25.66,10.34c-6.57,6.89-9.85,16.02-9.85,27.37s3.28,20.48,9.85,27.37c6.57,6.9,15.12,10.34,25.66,10.34Z" fill="#f7931e"/></svg>